<?xml version="1.0" standalone="no"?>
<!DOCTYPE svg PUBLIC "-//W3C//DTD SVG 1.1//EN" "http://www.w3.org/Graphics/SVG/1.1/DTD/svg11.dtd" >
<svg xmlns="http://www.w3.org/2000/svg" xmlns:xlink="http://www.w3.org/1999/xlink" version="1.1">
<metadata>
Created by FontForge 20170731 at Tue Apr 24 20:15:33 2012
 By Aleksey,,,
2009 Mitja Miklavcic published by FSI FontShop International GmbH
</metadata>
<defs>
<font id="Kkqnguripixdtgzcpuxsrhrvrzb" horiz-adv-x="570" >
  <font-face 
    font-family="Kkqnguripixdtgzcpuxsrhrvrzb"
    font-weight="400"
    font-stretch="normal"
    units-per-em="1000"
    panose-1="2 1 5 4 3 1 1 2 1 2"
    ascent="729"
    descent="-271"
    x-height="475"
    cap-height="694"
    bbox="-369 -269 1228 914"
    underline-thickness="70"
    underline-position="-270"
    unicode-range="U+0020-FEFF"
  />
<missing-glyph horiz-adv-x="736" 
d="M362 197q-22 0 -37 -13.5t-15 -34.5q0 -54 52 -54q20 0 34.5 14t14.5 40q0 22 -14.5 35t-34.5 13zM102 723h532v-723h-532v723zM298 565q10 5 26 8.5t28 3.5q39 0 56 -19.5t17 -40.5q0 -27 -19 -49.5t-42.5 -43.5t-42.5 -43.5t-19 -50.5q0 -19 7.5 -38t18.5 -33
q16 2 33.5 10t27.5 17q-18 21 -18 51q0 20 21 38t46.5 39t46.5 47.5t21 62.5q0 48 -35.5 75t-100.5 27q-16 0 -35.5 -2t-38 -5.5t-35.5 -8t-28 -9.5q0 -27 2 -54t7 -50q12 0 29 3.5t27 8.5v56z" />
    <glyph glyph-name="uniFB00" unicode="ff" horiz-adv-x="669" 
d="M664 475q2 -14 3.5 -30.5t1.5 -27.5h-137v-353q10 -1 24 -3t27.5 -4.5t26 -5t21.5 -5.5q2 -9 3 -22t-1 -24h-266q3 25 14 45q12 5 30.5 10.5t33.5 8.5v353h-243v-353q10 -1 23 -2.5t26 -4t25 -5t20 -5.5q2 -9 3 -22.5t-1 -24.5h-261q3 25 14 45q12 5 30.5 10.5t33.5 8.5
v353h-79q0 12 3.5 27t8.5 25q14 5 32.5 10t34.5 8v44q0 51 14.5 86.5t38.5 58.5t56 33.5t67 10.5q24 0 52 -4t57 -13q3 -17 3 -34q0 -24 -4 -47.5t-10 -40.5q-12 0 -30.5 4.5t-28.5 11.5v67q-7 4 -16 5.5t-16 1.5q-20 0 -37.5 -6t-30.5 -20.5t-20.5 -39.5t-7.5 -64v-66h243
v66q0 51 14.5 86.5t38.5 58.5t56 33.5t67 10.5q24 0 52 -4t57 -13q3 -17 3 -34q0 -24 -4 -47.5t-10 -40.5q-12 0 -30.5 4.5t-28.5 11.5v67q-7 4 -16 5.5t-16 1.5q-20 0 -37.5 -6t-30.5 -20.5t-20.5 -39.5t-7.5 -64v-76h132z" />
    <glyph glyph-name="fi" unicode="fi" horiz-adv-x="626" 
d="M319 475q2 -14 3.5 -30.5t1.5 -27.5h-122v-353q10 -1 23 -2.5t26.5 -4t26 -5t21.5 -5.5q2 -9 3 -22.5t-1 -24.5h-264q3 25 14 45q12 5 30.5 10.5t33.5 8.5v353h-79q0 12 3.5 27t8.5 25q14 5 32.5 10t34.5 8v26q0 115 60 166t167 51q17 0 39 -2.5t46 -7t47.5 -11
t43.5 -15.5q1 -5 1.5 -15t0.5 -18q0 -20 -3 -43t-8 -36q-6 0 -16 1t-20 3.5t-19.5 5.5t-14.5 6v56q-17 9 -42 14.5t-48 5.5q-71 0 -109 -35t-38 -120v-44h117zM363 419q0 13 5 27.5t13 25.5q17 6 41 10t49 4q29 0 52 -6v-418q19 -2 41 -5.5t38 -8.5q3 -12 3 -31v-9
q0 -3 -1 -8h-246q3 25 14 45q12 5 30.5 10.5t33.5 8.5v355h-73z" />
    <glyph glyph-name="fl" unicode="fl" horiz-adv-x="618" 
d="M333 475q2 -14 3.5 -30.5t1.5 -27.5h-136v-353q19 -2 47 -7t44 -10q2 -9 3 -22.5t-1 -24.5h-258q3 25 14 45q12 5 30.5 10.5t33.5 8.5v353h-79q0 12 3.5 27t8.5 25q14 5 32.5 10t34.5 8v36q0 108 59.5 157.5t162.5 49.5q18 0 41 -2t47.5 -5.5t47.5 -8.5t41 -11v-641
q19 -2 42 -5.5t39 -8.5q3 -12 3 -31v-9q0 -3 -1 -8h-243q3 24 13 45q11 5 28.5 10.5t31.5 8.5v595q-17 7 -39.5 11t-43.5 4q-66 0 -104 -33t-38 -111v-55h131z" />
    <glyph glyph-name="uniFB03" unicode="ffi" horiz-adv-x="956" 
d="M649 475q2 -14 3.5 -30.5t1.5 -27.5h-122v-353q10 -1 23 -2.5t26.5 -4t26 -5t21.5 -5.5q2 -9 3 -22.5t-1 -24.5h-264q3 25 14 45q12 5 30.5 10.5t33.5 8.5v353h-243v-353q10 -1 23 -2.5t26 -4t25 -5t20 -5.5q2 -9 3 -22.5t-1 -24.5h-261q3 25 14 45q12 5 30.5 10.5
t33.5 8.5v353h-79q0 12 3.5 27t8.5 25q14 5 32.5 10t34.5 8v44q0 51 14.5 86.5t38.5 58.5t56 33.5t67 10.5q24 0 52 -4t57 -13q3 -17 3 -34q0 -24 -4 -47.5t-10 -40.5q-12 0 -30.5 4.5t-28.5 11.5v67q-7 4 -16 5.5t-16 1.5q-20 0 -37.5 -6t-30.5 -20.5t-20.5 -39.5t-7.5 -64
v-66h243v38q0 115 60 166t167 51q17 0 39 -2.5t46 -7t47.5 -11t43.5 -15.5q1 -5 1.5 -15t0.5 -18q0 -20 -3 -43t-8 -36q-6 0 -16 1t-20 3.5t-19.5 5.5t-14.5 6v56q-17 9 -42 14.5t-48 5.5q-71 0 -109 -35t-38 -120v-44h117zM693 419q0 13 5 27.5t13 25.5q17 6 41 10t49 4
q29 0 52 -6v-418q19 -2 41 -5.5t38 -8.5q3 -12 3 -31v-9q0 -3 -1 -8h-246q3 25 14 45q12 5 30.5 10.5t33.5 8.5v355h-73z" />
    <glyph glyph-name="uniFB04" unicode="ffl" horiz-adv-x="948" 
d="M663 475q2 -14 3.5 -30.5t1.5 -27.5h-136v-353q19 -2 47 -7t44 -10q2 -9 3 -22.5t-1 -24.5h-258q3 25 14 45q12 5 30.5 10.5t33.5 8.5v353h-243v-353q10 -1 23 -2.5t26 -4t25 -5t20 -5.5q2 -9 3 -22.5t-1 -24.5h-261q3 25 14 45q12 5 30.5 10.5t33.5 8.5v353h-79
q0 12 3.5 27t8.5 25q14 5 32.5 10t34.5 8v44q0 51 14.5 86.5t38.5 58.5t56 33.5t67 10.5q24 0 52 -4t57 -13q3 -17 3 -34q0 -24 -4 -47.5t-10 -40.5q-12 0 -30.5 4.5t-28.5 11.5v67q-7 4 -16 5.5t-16 1.5q-20 0 -37.5 -6t-30.5 -20.5t-20.5 -39.5t-7.5 -64v-66h243v48
q0 108 59.5 157.5t162.5 49.5q18 0 41 -2t47.5 -5.5t47.5 -8.5t41 -11v-641q19 -2 42 -5.5t39 -8.5q3 -12 3 -31v-9q0 -3 -1 -8h-243q3 24 13 45q11 5 28.5 10.5t31.5 8.5v595q-17 7 -39.5 11t-43.5 4q-66 0 -104 -33t-38 -111v-55h131z" />
    <glyph glyph-name=".notdef" horiz-adv-x="736" 
d="M362 197q-22 0 -37 -13.5t-15 -34.5q0 -54 52 -54q20 0 34.5 14t14.5 40q0 22 -14.5 35t-34.5 13zM102 723h532v-723h-532v723zM298 565q10 5 26 8.5t28 3.5q39 0 56 -19.5t17 -40.5q0 -27 -19 -49.5t-42.5 -43.5t-42.5 -43.5t-19 -50.5q0 -19 7.5 -38t18.5 -33
q16 2 33.5 10t27.5 17q-18 21 -18 51q0 20 21 38t46.5 39t46.5 47.5t21 62.5q0 48 -35.5 75t-100.5 27q-16 0 -35.5 -2t-38 -5.5t-35.5 -8t-28 -9.5q0 -27 2 -54t7 -50q12 0 29 3.5t27 8.5v56z" />
    <glyph glyph-name=".null" horiz-adv-x="0" 
 />
    <glyph glyph-name="nonmarkingreturn" horiz-adv-x="205" 
 />
    <glyph glyph-name="space" unicode=" " horiz-adv-x="205" 
 />
    <glyph glyph-name="exclam" unicode="!" horiz-adv-x="322" 
d="M196 210q-12 -3 -32 -3q-9 0 -18 0.5t-15 2.5l-29 476q14 5 36 8t45 3h16q8 0 16 -2zM162 118q29 0 46.5 -16.5t17.5 -46.5q0 -32 -17.5 -49.5t-46.5 -17.5q-65 0 -65 67q0 29 18.5 46t46.5 17z" />
    <glyph glyph-name="quotedbl" unicode="&#x22;" 
d="M150 486q-14 0 -31 2t-29 5q2 24 3.5 52t2.5 56t1.5 55t0.5 50q17 0 44 -2.5t44 -7.5q0 -20 -3.5 -48t-8.5 -57.5t-11.5 -57t-12.5 -47.5zM322 486q-14 0 -31 2t-29 5q2 24 3.5 52t2.5 56t1.5 55t0.5 50q17 0 44 -2.5t44 -7.5q0 -20 -3.5 -48t-8.5 -57.5t-11.5 -57
t-12.5 -47.5z" />
    <glyph glyph-name="numbersign" unicode="#" 
d="M391 206l-31 -205q-5 -1 -19.5 -1.5t-24.5 -0.5q-6 0 -15.5 0.5t-14.5 1.5l32 205h-114l-31 -205q-5 -1 -19.5 -1.5t-24.5 -0.5q-6 0 -15.5 0.5t-14.5 1.5l32 205h-96q0 11 3 27t7 26h96l26 166h-100q0 11 3 27t7 26h100l31 187q13 3 33 5t36 2l-30 -194h117l31 187
q13 3 33 5t36 2l-30 -194h97q2 -11 0.5 -26.5t-3.5 -26.5h-104l-24 -166h99q2 -11 0.5 -26.5t-3.5 -26.5h-105zM213 259h115l26 166h-117z" />
    <glyph glyph-name="dollar" unicode="$" 
d="M390 606q-17 10 -39 16t-43 6q-53 0 -83.5 -29t-30.5 -70t22 -66.5t55 -45.5t71 -38t71 -43t55 -61.5t22 -92.5q0 -50 -14.5 -85.5t-39.5 -59t-58.5 -37t-71.5 -17.5v-112q-4 -1 -14.5 -1.5t-18.5 -0.5q-7 0 -18.5 0.5t-16.5 1.5v110q-45 2 -87 11.5t-75 24.5q0 38 3 82
t8 79q14 0 36.5 -2t37.5 -6v-97q23 -15 53 -22.5t58 -7.5q63 0 94 33t31 90q0 42 -22 67.5t-55.5 44.5t-72 36t-72 42t-55.5 62t-22 97q0 73 44.5 118.5t125.5 53.5v87q12 2 33 3.5t35 1.5v-91q32 -3 68.5 -10.5t67.5 -18.5q0 -35 -3 -72.5t-10 -73.5q-17 0 -36.5 4
t-32.5 10v79z" />
    <glyph glyph-name="percent" unicode="%" horiz-adv-x="900" 
d="M229 686q74 0 117.5 -43t43.5 -126q0 -88 -43 -133.5t-118 -45.5q-78 0 -119.5 44t-41.5 135q0 39 12 70.5t33.5 53t51 33.5t64.5 12zM148 517q0 -61 21 -95.5t60 -34.5q41 0 60.5 34t19.5 96q0 53 -20.5 86.5t-59.5 33.5q-40 0 -60.5 -32t-20.5 -88zM671 331
q74 0 117.5 -43t43.5 -126q0 -88 -43 -133.5t-118 -45.5q-78 0 -119.5 44t-41.5 135q0 39 12 70.5t33.5 53t51 33.5t64.5 12zM590 162q0 -61 21 -95.5t60 -34.5q41 0 60.5 34t19.5 96q0 53 -20.5 86.5t-59.5 33.5q-40 0 -60.5 -32t-20.5 -88zM252 -25q-12 2 -29.5 10.5
t-25.5 16.5l447 692q14 -1 32 -5.5t31 -9.5z" />
    <glyph glyph-name="ampersand" unicode="&#x26;" horiz-adv-x="829" 
d="M686 340q-10 -48 -29 -98t-48 -95q20 -20 37.5 -41t33.5 -41q19 -1 39 -2.5t42 -6.5q4 -11 7 -28t3 -28h-149q-17 21 -34 42.5t-37 42.5q-43 -46 -101 -75.5t-140 -29.5q-44 0 -87 9.5t-78 31.5t-56.5 57.5t-21.5 87.5q0 37 12 69.5t32 58.5t47 44t57 26v5q-41 23 -68 59
t-27 95q0 45 17.5 76.5t45.5 51.5t61.5 29t66.5 9q30 0 61 -8t56 -25t41 -44.5t16 -67.5q0 -31 -11 -59t-29.5 -51t-42.5 -39.5t-50 -23.5v-5q20 -12 47.5 -33t56.5 -45t56 -48.5t45 -43.5q16 33 26 70.5t16 73.5q-13 1 -31 3.5t-29 4.5q-4 11 -6.5 26.5t-3.5 29.5h245
q0 -11 -4 -30t-8 -29q-14 -2 -36.5 -3t-39.5 -2zM505 133q-57 57 -121.5 109t-127.5 93q-41 -21 -67 -58t-26 -92q0 -38 12.5 -65t34.5 -43.5t50.5 -24t61.5 -7.5q63 0 107 25t76 63zM306 402q44 21 67.5 58t23.5 78q0 27 -8.5 45.5t-21.5 29.5t-29.5 15.5t-32.5 4.5
q-14 0 -30.5 -4t-30.5 -13.5t-24 -27t-10 -44.5q0 -45 25.5 -77.5t70.5 -64.5z" />
    <glyph glyph-name="quotesingle" unicode="'" horiz-adv-x="350" 
d="M152 486q-14 0 -31 2t-29 5q2 24 3.5 52t2.5 56t1.5 55t0.5 50q17 0 44 -2.5t44 -7.5q0 -20 -3.5 -48t-8.5 -57.5t-11.5 -57t-12.5 -47.5z" />
    <glyph glyph-name="parenleft" unicode="(" horiz-adv-x="316" 
d="M253 -183q-13 -8 -30.5 -14.5t-33.5 -10.5q-59 131 -82.5 258.5t-23.5 233.5q0 101 20 219t71 238q7 4 17.5 6.5t22 4.5t22 3t18.5 1q-21 -49 -36.5 -105t-25.5 -116t-15 -122.5t-5 -122.5q0 -126 19.5 -246t61.5 -227z" />
    <glyph glyph-name="parenright" unicode=")" horiz-adv-x="316" 
d="M83 -183q42 106 61.5 224t19.5 243q0 121 -17 237t-54 216q11 7 29.5 14t35.5 9q25 -59 43.5 -121t29.5 -122.5t16.5 -118t5.5 -108.5q0 -107 -23.5 -236t-82.5 -261q-16 3 -33.5 9.5t-30.5 14.5z" />
    <glyph glyph-name="asterisk" unicode="*" horiz-adv-x="422" 
d="M251 505q-5 4 -12.5 11t-11.5 12l-4 -3q3 -6 6.5 -15.5t3.5 -16.5l5 -103q-6 -2 -15.5 -2.5t-14.5 -0.5q-4 0 -14 0.5t-17 2.5l5 103q0 7 3 16.5t5 14.5l-4 3q-4 -5 -10.5 -12t-11.5 -10l-89 -59q-7 8 -15.5 24t-12.5 27l92 46q6 3 16.5 6t16.5 4v5q-6 1 -16.5 3.5
t-16.5 5.5l-90 45q2 10 10 27.5t14 27.5l90 -56q6 -4 13 -11t10 -11l5 3q-3 6 -6 15t-3 15l-4 100q11 2 29 3.5t30 1.5l-4 -105q0 -6 -3 -15.5t-7 -16.5l5 -3q5 6 11.5 12.5t12.5 10.5l85 55q8 -8 19 -22t17 -25l-97 -51q-6 -3 -15 -5t-17 -3v-5q7 -1 16.5 -3.5t15.5 -5.5
l93 -46q-3 -11 -13.5 -28.5t-17.5 -24.5z" />
    <glyph glyph-name="plus" unicode="+" 
d="M523 304q2 -8 3 -21t1 -26v-10q0 -4 -1 -9h-200v-213q-15 -3 -38 -3q-12 0 -23.5 0.5t-19.5 2.5v213h-201q0 14 3 34.5t6 31.5h192v204q13 2 38.5 4t42.5 2v-210h197z" />
    <glyph glyph-name="comma" unicode="," horiz-adv-x="350" 
d="M41 27q5 16 14 36t19 31q19 4 41 4q20 0 39 -3.5t35 -8.5q-5 -28 -16 -61.5t-23.5 -66t-26.5 -61.5t-25 -47q-14 4 -29.5 12t-23.5 14q6 15 11 34l11 38q6 19 10 37t6 32z" />
    <glyph glyph-name="hyphen" unicode="-" horiz-adv-x="336" 
d="M281 308q2 -9 3 -24t1 -29v-10q0 -5 -1 -11h-239q0 15 3 38.5t7 35.5h226z" />
    <glyph glyph-name="period" unicode="." horiz-adv-x="350" 
d="M129 115q27 0 44.5 -16t17.5 -45q0 -32 -17.5 -49t-44.5 -17q-64 0 -64 66q0 27 18 44t46 17z" />
    <glyph glyph-name="slash" unicode="/" horiz-adv-x="446" 
d="M128 -165q-6 1 -15.5 3.5t-20 6t-19.5 7.5t-13 7l339 893q13 0 36.5 -2.5t37.5 -6.5z" />
    <glyph glyph-name="zero" unicode="0" 
d="M285 689q110 0 171.5 -84.5t61.5 -259.5q0 -184 -61 -274.5t-172 -90.5q-118 0 -176 88t-58 277q0 83 16.5 147t47 108t74 66.5t96.5 22.5zM148 346q0 -144 35 -223t102 -79q72 0 104 78t32 224q0 63 -9 114.5t-26.5 88.5t-42.5 57t-58 20q-70 0 -103.5 -73t-33.5 -207z
" />
    <glyph glyph-name="one" unicode="1" 
d="M254 598l-154 -20q1 15 5 32.5t11 31.5q16 5 41.5 11.5t56 12.5t64.5 10.5t68 7.5v-612q33 -2 70 -5t66 -7q3 -8 4.5 -20t1.5 -21v-10q0 -4 -1 -9h-372q1 12 7 30.5t13 29.5q10 2 25 4t31.5 4.5t33 4t29.5 2.5v523z" />
    <glyph glyph-name="two" unicode="2" 
d="M68 75q21 28 52.5 61t65.5 69.5t68.5 75t61.5 77.5t44 77.5t17 74.5q0 112 -113 112q-29 0 -56.5 -7t-50.5 -17v-88q-12 -6 -32.5 -10t-35.5 -4q-8 35 -10.5 76.5t-2.5 76.5q35 16 86 28t106 12q43 0 81 -9.5t66.5 -29t44.5 -49.5t16 -72q0 -44 -18 -88.5t-46 -87
t-63.5 -81.5t-69.5 -73.5t-64 -63t-48 -48.5v-7h244q0 7 1.5 18t3 23t4 24t4.5 22q13 4 32.5 6.5t33.5 2.5v-176h-422v75z" />
    <glyph glyph-name="three" unicode="3" 
d="M148 314q-3 10 -3 23q0 8 2 21t6 20q49 0 90 7t71 23t46.5 42t16.5 65q0 30 -10 51t-26.5 34t-36.5 18.5t-40 5.5q-23 0 -51 -5.5t-47 -11.5v-80q-12 -6 -32.5 -10t-35.5 -4q-8 35 -10.5 75t-2.5 75q19 6 43 11t49.5 8.5t51 5t46.5 1.5q38 0 74 -9.5t63.5 -29.5
t44.5 -51.5t17 -75.5q0 -67 -39.5 -111.5t-110.5 -58.5v-5q35 -5 65.5 -18t53 -34.5t35.5 -51.5t13 -68q0 -51 -20.5 -88t-55.5 -61t-81 -35.5t-97 -11.5q-42 0 -84 5.5t-71 13.5q-8 14 -13 35.5t-5 38.5v9q0 5 1 9q15 -6 36 -13t45.5 -13t49.5 -9.5t48 -3.5q28 0 54.5 6.5
t47.5 20.5t33.5 36.5t12.5 54.5q0 82 -61.5 113t-182.5 31z" />
    <glyph glyph-name="four" unicode="4" 
d="M53 260l276 415h87v-419h91q2 -7 3 -21t1 -25v-10q0 -4 -1 -10h-94v-127q22 -2 44.5 -4t40.5 -6q3 -9 4 -26.5t-1 -26.5h-261q1 11 4.5 26t7.5 26q14 4 36.5 7.5t39.5 5.5v125h-278v70zM332 493q0 37 3 73h-7l-199 -305v-7q11 1 28.5 1.5t31.5 0.5h143v237z" />
    <glyph glyph-name="five" unicode="5" 
d="M181 393q25 5 46.5 7.5t45.5 2.5q42 0 80 -12.5t67 -38t46 -64t17 -91.5q0 -56 -20.5 -96.5t-54.5 -67.5t-78 -40t-90 -13q-45 0 -83.5 6.5t-67.5 14.5q-8 14 -13 35t-5 38v9q0 5 1 9q34 -17 76.5 -30.5t90.5 -13.5q29 0 55.5 9t47 27t32.5 44t12 60q0 44 -12.5 73
t-34 46.5t-50.5 25t-62 7.5q-28 0 -61 -3.5t-62 -8.5l25 341h356q0 -42 -8 -85h-280z" />
    <glyph glyph-name="six" unicode="6" 
d="M167 344q15 31 52 53t96 22q50 0 88 -15t63.5 -42.5t38.5 -65.5t13 -83q0 -55 -15.5 -98.5t-43.5 -73.5t-68.5 -45.5t-89.5 -15.5q-121 0 -178.5 76.5t-57.5 229.5q0 98 22 173t61 126t92 77.5t115 26.5q35 0 70.5 -8t58.5 -20q3 -7 6 -18t5 -23.5t2.5 -25t-0.5 -22.5
q-26 19 -66.5 33t-77.5 14q-77 0 -129.5 -69.5t-63.5 -205.5h7zM161 273q0 -115 33.5 -173.5t109.5 -58.5q58 0 89.5 46t31.5 121q0 71 -33 109t-98 38q-44 0 -75 -18.5t-58 -47.5v-16z" />
    <glyph glyph-name="seven" unicode="7" 
d="M517 592q-78 -155 -140.5 -299.5t-107.5 -290.5q-20 -5 -47 -5q-14 0 -30.5 1.5t-26.5 3.5q24 70 55 143.5t66 147.5t72.5 146t75.5 140v7h-267q0 -8 -1.5 -19.5t-3.5 -23.5t-4.5 -24t-4.5 -19q-14 -3 -33 -5t-34 -2v176h431v-77z" />
    <glyph glyph-name="eight" unicode="8" 
d="M60 156q0 36 11.5 68t31 57.5t45.5 44t55 27.5v5q-21 9 -42 23t-37.5 33t-26.5 43.5t-10 55.5q0 48 19 81.5t49 54.5t67.5 30.5t74.5 9.5t73 -8.5t64 -27t45 -48.5t17 -72q0 -31 -9.5 -58.5t-25 -50.5t-36.5 -39.5t-44 -25.5v-5q24 -10 47 -25t41.5 -36t29.5 -48.5
t11 -61.5q0 -50 -19 -87.5t-50.5 -63.5t-72.5 -39t-85 -13q-39 0 -78.5 8.5t-72 29t-52.5 54t-20 84.5zM417 169q0 33 -14.5 57t-37.5 42.5t-53 33t-61 28.5q-42 -20 -71 -59.5t-29 -99.5q0 -35 10.5 -60t28.5 -41t42.5 -23.5t51.5 -7.5q25 0 49 7t43 22.5t30 40.5t11 60z
M174 528q0 -27 13 -47.5t34 -37t48.5 -30.5t57.5 -28q41 23 61.5 61t20.5 79q0 32 -10 53.5t-26 34t-36 18t-40 5.5q-18 0 -39.5 -4t-40 -16t-31 -33t-12.5 -55z" />
    <glyph glyph-name="nine" unicode="9" 
d="M415 332q-15 -30 -52 -52t-91 -22q-51 0 -90 15.5t-65.5 43t-40 65.5t-13.5 82q0 53 15.5 94.5t44 70.5t68.5 44.5t88 15.5q237 0 237 -317q0 -97 -19 -170.5t-54 -122.5t-84.5 -74t-110.5 -25q-45 0 -87.5 7t-73.5 20q-6 9 -10 21.5t-6.5 26t-3.5 26t1 21.5
q16 -8 37.5 -16.5t44.5 -15.5t47 -11t45 -4q37 0 68.5 15.5t55 49.5t38 86t18.5 126h-7zM420 389q0 121 -32.5 181t-108.5 60q-60 0 -91.5 -44t-31.5 -116q0 -68 35 -108t104 -40q41 0 71.5 19t53.5 48z" />
    <glyph glyph-name="colon" unicode=":" horiz-adv-x="350" 
d="M129 468q26 0 43.5 -16t17.5 -44q0 -31 -17.5 -48t-43.5 -17q-30 0 -46.5 16.5t-16.5 48.5q0 26 18.5 43t44.5 17zM129 115q27 0 44.5 -16t17.5 -45q0 -32 -17.5 -49t-44.5 -17q-64 0 -64 66q0 27 18 44t46 17z" />
    <glyph glyph-name="semicolon" unicode=";" horiz-adv-x="350" 
d="M41 27q5 16 14 36t19 31q19 4 41 4q20 0 39 -3.5t35 -8.5q-5 -28 -16 -61.5t-23.5 -66t-26.5 -61.5t-25 -47q-14 4 -29.5 12t-23.5 14q6 15 11 34l11 38q6 19 10 37t6 32zM129 467q26 0 43.5 -16t17.5 -44q0 -31 -17.5 -48t-43.5 -17q-30 0 -46.5 16.5t-16.5 48.5
q0 26 18.5 43t44.5 17z" />
    <glyph glyph-name="less" unicode="&#x3c;" 
d="M188 272v-7l270 -196q-2 -6 -8 -14t-13.5 -16.5t-15 -15.5t-12.5 -10l-310 227l3 60l299 222q7 -4 16 -11l18 -13q9 -6 16.5 -13t12.5 -12z" />
    <glyph glyph-name="equal" unicode="=" 
d="M71 144q0 7 1 16.5t2 19.5t2.5 18.5t3.5 13.5h415q2 -8 3 -21t1 -27v-10q0 -5 -1 -10h-427zM72 323q0 7 1 16.5t2 19.5t2.5 18.5t3.5 13.5h414q2 -8 3 -21t1 -27v-10q0 -5 -1 -10h-426z" />
    <glyph glyph-name="greater" unicode="&#x3e;" 
d="M161 8q-5 3 -12.5 10t-15 15.5t-13.5 17t-8 14.5l271 200v7l-278 196q10 11 29 26t35 23l300 -217l3 -60z" />
    <glyph glyph-name="question" unicode="?" horiz-adv-x="431" 
d="M96 529q-14 -8 -34.5 -12t-36.5 -4q-6 35 -9 77.5t-3 85.5q16 7 39.5 13t50.5 11t54 8t50 3q86 0 134.5 -37.5t48.5 -100.5q0 -34 -14 -61t-34.5 -50.5t-45 -43.5t-45 -39t-34.5 -39t-14 -42q0 -21 7 -41.5t19 -36.5q-13 -10 -36.5 -18.5t-43.5 -10.5q-16 20 -27 47.5
t-11 52.5q0 26 13 49t32.5 44.5t42.5 42t42.5 42t32.5 44t13 48.5q0 15 -6 31t-19 28.5t-32.5 20.5t-47.5 8q-20 0 -45.5 -6t-40.5 -14v-100zM192 118q29 0 46.5 -16.5t17.5 -46.5q0 -32 -17.5 -49.5t-46.5 -17.5q-65 0 -65 67q0 29 18.5 46t46.5 17z" />
    <glyph glyph-name="at" unicode="@" horiz-adv-x="1038" 
d="M677 101q0 -4 1 -12t2 -13q57 5 100 32.5t71.5 67.5t43 88t14.5 93q0 73 -30.5 127.5t-80 91.5t-111.5 55.5t-126 18.5q-92 0 -168 -33t-130 -91t-84 -137t-30 -170q0 -84 26.5 -154t76 -121t120 -79t158.5 -28q33 0 68 4t68 11t63 17.5t54 24.5q8 -6 19 -19.5t16 -23.5
q-31 -19 -67.5 -33.5t-76.5 -24t-82 -14.5t-82 -5q-100 0 -181 32t-138 89.5t-88 138.5t-31 179q0 106 37 197.5t103 159t156 106t196 38.5q84 0 160 -24t133.5 -69t91 -109.5t33.5 -145.5q0 -62 -21.5 -123.5t-66 -112.5t-111.5 -85t-157 -40q-8 14 -15.5 33t-9.5 36h-5
q-27 -38 -68 -53.5t-79 -15.5q-57 0 -95 41.5t-38 134.5q0 56 17 108t49 93q33 41 80 65t107 24q50 0 88.5 -12t62.5 -30zM638 405q-12 8 -30.5 12t-35.5 4q-45 0 -76.5 -18t-49.5 -47q-24 -38 -34 -81t-10 -82q0 -66 23 -93.5t61 -27.5q34 0 64.5 17.5t50.5 49.5z" />
    <glyph glyph-name="A" unicode="A" horiz-adv-x="738" 
d="M472 0q2 12 5 27t8 26q13 4 35.5 7t38.5 5q-12 17 -21.5 37t-17.5 40l-32 85h-265l-33 -90q-7 -20 -16.5 -39t-19.5 -36q18 -1 41 -3t43 -6q3 -10 5.5 -27t2.5 -26h-238q2 13 6.5 27.5t9.5 25.5q11 4 26 6l27 5l258 644h64l248 -642q12 -1 31 -3.5t32 -5.5q4 -11 7 -27.5
t4 -29.5h-249zM352 596q-2 -9 -5 -21t-7 -25.5t-8 -26.5t-8 -23l-80 -216h222l-82 218q-3 9 -7 21.5t-7.5 25.5t-6.5 25.5t-4 21.5h-7z" />
    <glyph glyph-name="B" unicode="B" horiz-adv-x="627" 
d="M435 367q70 -14 112 -55.5t42 -107.5q0 -56 -23 -95.5t-60.5 -64t-87 -36t-101.5 -11.5q-72 0 -148.5 1.5t-139.5 3.5q1 11 4.5 27t7.5 27q13 4 37 7.5t41 5.5v565q-17 0 -36.5 0.5t-37.5 2.5q-2 10 -3 30t1 30q63 4 125 6t120 2q55 0 103 -11.5t84 -34t56.5 -56.5
t20.5 -80q0 -57 -32.5 -97t-84.5 -54v-5zM211 63q23 -2 46.5 -3t46.5 -1q89 0 139.5 32.5t50.5 104.5q0 35 -14 61t-39 43t-58.5 25t-73.5 8h-98v-270zM211 394h94q74 0 114.5 28.5t40.5 97.5q0 30 -14 53.5t-38.5 39t-58 23.5t-72.5 8h-31q-19 0 -35 -2v-248z" />
    <glyph glyph-name="C" unicode="C" horiz-adv-x="620" 
d="M495 628q-27 12 -53.5 17t-54.5 5q-50 0 -94 -18.5t-76.5 -55t-51.5 -91.5t-19 -127q0 -77 17.5 -133.5t49 -93.5t75.5 -55t97 -18q21 0 46 3t50 8t48.5 11t42.5 13q2 -13 -2 -32.5t-9 -30.5q-20 -10 -44.5 -19t-52.5 -16t-57.5 -11t-58.5 -4q-67 0 -122.5 26.5t-95 73.5
t-61 111.5t-21.5 140.5q0 90 27.5 161t74.5 120t109.5 75t133.5 26q56 0 101.5 -10t83.5 -28q0 -41 -3 -87.5t-9 -78.5q-15 0 -36 4.5t-35 11.5v102z" />
    <glyph glyph-name="D" unicode="D" horiz-adv-x="694" 
d="M119 624q-17 0 -37 0.5t-37 2.5q-1 5 -2 13t-1 16v17q0 8 1 14q30 3 64 5.5t69 4.5t68.5 3t62.5 1q73 0 137 -22t111.5 -65.5t75 -107t27.5 -146.5q0 -96 -26.5 -165t-71 -113t-102.5 -65t-121 -21h-73q-39 0 -79.5 1t-80.5 1.5t-75 2.5q2 12 5 27t7 26q14 4 37.5 7.5
t40.5 5.5v557zM211 62q23 -2 48.5 -2.5t48.5 -0.5q60 0 107 17t79.5 52.5t49.5 91.5t17 135q0 69 -21.5 122t-58 89t-86 54.5t-105.5 18.5h-18q-10 0 -21.5 -0.5t-22 -1t-17.5 -1.5v-574z" />
    <glyph glyph-name="E" unicode="E" horiz-adv-x="566" 
d="M29 0q1 11 4.5 26.5t7.5 26.5q14 4 37.5 7.5t40.5 5.5v564q-17 1 -39 3t-35 4q-2 10 -3 28.5t1 28.5h474v-147q-13 0 -28.5 2t-27.5 5q-4 15 -7.5 39.5t-4.5 39.5h-238v-254h189q1 11 4 27.5t6 26.5q10 3 27 5.5t30 2.5v-184q-13 -2 -29.5 -0.5t-28.5 4.5q-3 14 -5.5 30
t-3.5 28h-189v-256h242q2 20 5 44.5t7 41.5q11 3 29.5 5t32.5 2v-156h-498z" />
    <glyph glyph-name="F" unicode="F" horiz-adv-x="513" 
d="M119 630q-17 1 -39 3t-35 4q-2 10 -3 28.5t1 28.5h457v-150q-14 0 -29 1.5t-29 5.5q-4 16 -7.5 40.5t-5.5 41.5h-218v-262h174q1 10 4 27.5t6 27.5q10 3 26.5 5.5t30.5 2.5v-186q-13 -2 -29.5 -0.5t-28.5 4.5q-3 14 -5.5 31t-3.5 28h-174v-246q24 -2 51 -4t48 -6
q3 -9 4 -27.5t-1 -27.5h-284q1 11 4.5 26.5t7.5 26.5q14 4 37.5 7.5t40.5 5.5v564z" />
    <glyph glyph-name="G" unicode="G" horiz-adv-x="704" 
d="M601 24q-17 -6 -45.5 -13.5t-62 -14.5t-69 -11.5t-66.5 -4.5q-74 0 -132.5 25t-98.5 70.5t-61 109t-21 141.5q0 88 26 159.5t73.5 122.5t115.5 78.5t152 27.5q59 0 106 -13t88 -39q0 -17 -1 -39t-2.5 -43.5t-4 -41t-5.5 -32.5q-7 0 -17 1.5t-20 4t-18.5 5t-13.5 5.5v96
q-30 18 -59.5 26t-62.5 8q-52 0 -99 -19t-83 -57.5t-57 -97t-21 -137.5q0 -75 18 -130t50 -91t77 -53.5t98 -17.5q28 0 62 3.5t65 8.5v211q-33 1 -68.5 3t-67.5 7q-4 11 -5.5 28t-1.5 31h318q-1 -13 -3.5 -30.5t-5.5 -30.5q-14 -3 -38 -5t-39 -3v-248z" />
    <glyph glyph-name="H" unicode="H" horiz-adv-x="771" 
d="M479 0q1 11 4.5 26.5t6.5 26.5q14 4 34 7.5t36 5.5v263h-349v-264q15 -1 40.5 -3t42.5 -6q1 -5 2 -12.5t1.5 -16t0.5 -16t-1 -11.5h-268q1 11 4.5 26.5t7.5 26.5q14 4 37.5 7.5t40.5 5.5v564q-17 1 -39 3t-35 4q-2 10 -3 28.5t1 28.5h249q2 -9 1.5 -27.5t-3.5 -28.5
q-16 -3 -38 -5t-41 -3v-236h349v236q-17 1 -39 3t-35 4q-2 10 -3 28.5t1 28.5h252q2 -9 1.5 -27.5t-3.5 -28.5q-17 -3 -39.5 -5t-42.5 -3v-565q22 -2 46 -4t43 -6q2 -8 3 -18t1 -21v-8q0 -3 -1 -8h-265z" />
    <glyph glyph-name="I" unicode="I" horiz-adv-x="330" 
d="M29 0q1 11 4.5 26.5t7.5 26.5q14 4 37.5 7.5t40.5 5.5v564q-17 1 -39 3t-35 4q-2 10 -3 28.5t1 28.5h252q2 -9 1.5 -27.5t-3.5 -28.5q-17 -3 -39.5 -5t-42.5 -3v-565q22 -2 46 -4t43 -6q2 -8 3 -18t1 -21v-8q0 -3 -1 -8h-274z" />
    <glyph glyph-name="J" unicode="J" horiz-adv-x="341" 
d="M317 694q2 -8 2 -21q0 -9 -1 -19t-3 -16q-17 -3 -39.5 -5t-42.5 -3v-404q0 -142 -59.5 -245.5t-177.5 -159.5q-8 7 -16.5 22t-10.5 26q93 55 132.5 139.5t39.5 198.5v423q-21 1 -47.5 3t-42.5 4q-2 10 -3 28.5t1 28.5h268z" />
    <glyph glyph-name="K" unicode="K" horiz-adv-x="647" 
d="M268 382l137 188q4 6 11 14.5t14.5 17t15 16t13.5 11.5q-14 1 -36 3t-35 4q-4 12 -6 30t-2 28h229q-1 -13 -4.5 -29.5t-9.5 -29.5q-11 -2 -28 -3.5t-31 -2.5l-206 -263l241 -305l65 4q0 -16 -3 -34.5t-8 -30.5q-11 -2 -25 -4.5t-29.5 -5t-30.5 -4.5t-27 -3l-260 344h-42
v-262q20 -2 41.5 -4t38.5 -6q3 -9 4 -27.5t-1 -27.5h-265q1 11 4.5 26.5t7.5 26.5q14 4 37.5 7.5t40.5 5.5v564q-17 1 -39 3t-35 4q-2 10 -3 28.5t1 28.5h245q2 -9 1.5 -27.5t-3.5 -28.5q-15 -3 -36 -5t-39 -3v-248h57z" />
    <glyph glyph-name="L" unicode="L" horiz-adv-x="552" 
d="M119 630q-17 1 -39 3t-35 4q-2 10 -3 28.5t1 28.5h262q2 -9 1.5 -27.5t-3.5 -28.5q-19 -3 -44.5 -5t-47.5 -3v-566h248q2 23 4.5 52.5t6.5 47.5q11 4 31 5.5t34 1.5v-171h-506q1 11 4.5 26.5t7.5 26.5q14 4 37.5 7.5t40.5 5.5v564z" />
    <glyph glyph-name="M" unicode="M" horiz-adv-x="895" 
d="M249 424q-20 54 -35 105.5t-21 98.5h-7v-565q17 -2 36 -4t34 -6q2 -8 3 -26t-1 -27h-224q1 11 4 25.5t7 25.5q13 4 34.5 7.5t36.5 5.5v566q-17 1 -38.5 3t-34.5 4q-2 10 -3 29t1 28h207l148 -423q14 -41 27 -85t20 -86h7q8 42 21.5 86t28.5 85l153 423h204
q2 -9 1.5 -27.5t-3.5 -28.5q-17 -3 -39 -5t-42 -3v-565q22 -2 46 -4t43 -6q2 -8 3 -18t1 -21v-8q0 -3 -1 -8h-263q1 11 4.5 26.5t6.5 26.5q13 4 35.5 7.5t37.5 5.5v562h-7q-6 -45 -22 -99t-36 -107l-159 -435h-57z" />
    <glyph glyph-name="N" unicode="N" horiz-adv-x="735" 
d="M502 231q6 -12 15 -31t18 -40t16 -41t10 -33h7v544q-17 1 -39.5 3t-35.5 4q-2 10 -3 29t1 28h221q2 -8 2 -21q0 -11 -1 -20t-3 -15q-14 -3 -34 -5t-37 -3v-636h-113l-292 545q-8 14 -17.5 34.5t-17.5 38.5h-7v-547q21 -2 45 -4t42 -6q3 -9 4 -27.5t-1 -27.5h-254
q1 11 4.5 26.5t7.5 26.5q13 4 36.5 7.5t39.5 5.5v564q-17 1 -39 3t-35 4q-2 10 -3 29t1 28h211z" />
    <glyph glyph-name="O" unicode="O" horiz-adv-x="721" 
d="M362 714q70 0 128 -23.5t99.5 -69t64 -112t22.5 -152.5q0 -90 -22.5 -160t-63.5 -118.5t-99 -73.5t-129 -25q-154 0 -235.5 95.5t-81.5 281.5q0 83 24 149t66.5 112.5t100.5 71t126 24.5zM144 357q0 -71 14.5 -128t42.5 -97.5t68.5 -62.5t92.5 -22q108 0 161.5 83
t53.5 227q0 63 -15.5 116.5t-43.5 92t-67.5 60.5t-88.5 22q-54 0 -94.5 -20.5t-68 -59t-41.5 -92t-14 -119.5z" />
    <glyph glyph-name="P" unicode="P" horiz-adv-x="571" 
d="M119 629q-17 0 -37.5 0.5t-36.5 2.5q-1 5 -2 13t-1 17v17q0 8 1 14q66 6 130.5 8.5t124.5 2.5q55 0 102.5 -13t82 -39t54.5 -65t20 -91q0 -57 -20 -98.5t-53 -68.5t-75.5 -40t-86.5 -13q-26 0 -54.5 2t-56.5 6v-219q26 -2 55.5 -4t52.5 -6q1 -5 2 -12.5t1.5 -15.5
t0.5 -15.5t-1 -11.5h-293q1 11 4.5 26.5t7.5 26.5q14 4 37.5 7.5t40.5 5.5v563zM211 343q24 -2 52.5 -3.5t54.5 -1.5q69 0 106.5 35.5t37.5 117.5q0 74 -49.5 112t-128.5 38q-7 0 -17 -1l-20 -1q-10 0 -19.5 -0.5t-16.5 -1.5v-294z" />
    <glyph glyph-name="Q" unicode="Q" horiz-adv-x="742" 
d="M548 36q22 -16 50.5 -32t56 -29t50.5 -21.5t34 -8.5l67 9q1 -4 1 -7v-7q0 -18 -3.5 -36.5t-7.5 -29.5q-13 -5 -32.5 -9.5t-32.5 -4.5q-18 0 -50.5 13.5t-69.5 34t-74 45t-65 45.5q-25 -8 -52.5 -13t-57.5 -5q-154 0 -235.5 95.5t-81.5 281.5q0 83 24 149t66.5 112.5
t100.5 71t126 24.5q70 0 128 -23.5t99.5 -69t64 -112t22.5 -152.5q0 -56 -9 -104.5t-25.5 -89t-40.5 -71t-53 -49.5v-7zM144 357q0 -71 14.5 -128t42.5 -97.5t68.5 -62.5t92.5 -22q108 0 161.5 83t53.5 227q0 63 -15.5 116.5t-43.5 92t-67.5 60.5t-88.5 22
q-54 0 -94.5 -20.5t-68 -59t-41.5 -92t-14 -119.5z" />
    <glyph glyph-name="R" unicode="R" horiz-adv-x="628" 
d="M119 631q-17 0 -37.5 0.5t-36.5 2.5q-1 5 -2 13t-1 17v17q0 8 1 14q60 5 123 7.5t123 2.5q53 0 101 -11.5t84 -35.5t57 -60.5t21 -86.5q0 -38 -12 -69.5t-33 -55.5t-48.5 -40t-58.5 -25q23 -46 48 -91.5t46.5 -82t37 -59.5t20.5 -24l63 4q0 -16 -3.5 -35t-8.5 -30
q-25 -7 -54.5 -11.5t-54.5 -6.5q-10 6 -27.5 32t-40.5 68.5t-52 99t-62 124.5q-25 0 -50.5 1t-50.5 4v-249q20 -2 43 -3.5t40 -5.5q1 -5 2 -12.5t1.5 -16t0.5 -16t-1 -11.5h-268q1 11 4.5 26.5t7.5 26.5q14 4 37.5 7.5t40.5 5.5v565zM211 368q26 -2 52.5 -2.5t50.5 -0.5
q64 0 104.5 33t40.5 106q0 36 -14 62.5t-39 43.5t-59 25t-74 8q-14 0 -31 -0.5t-31 -2.5v-272z" />
    <glyph glyph-name="S" unicode="S" horiz-adv-x="540" 
d="M395 630q-18 11 -43 16.5t-51 5.5q-63 0 -98.5 -29.5t-35.5 -72.5q0 -44 24.5 -71t61 -47t79.5 -38t79.5 -44t61 -64t24.5 -98q0 -59 -21 -98.5t-55.5 -64t-79.5 -35t-94 -10.5q-53 0 -105.5 10.5t-93.5 27.5q0 19 0.5 41t2 44.5t3.5 44t5 38.5q7 0 16.5 -0.5t20 -2
t20.5 -3.5t17 -4v-102q27 -15 61.5 -22.5t67.5 -7.5q72 0 107 33.5t35 93.5q0 46 -24.5 73.5t-61.5 47.5t-80 37t-80 42t-61.5 63.5t-24.5 100.5q0 40 15 73t43.5 56.5t69 36.5t91.5 13q44 0 94 -9t91 -25q0 -16 -1 -35.5t-2.5 -39.5t-4.5 -39t-6 -34q-15 0 -35 4t-32 10v84
z" />
    <glyph glyph-name="T" unicode="T" horiz-adv-x="586" 
d="M339 65q23 -2 49.5 -4t46.5 -6q3 -9 4 -27.5t-1 -27.5h-288q1 11 5 26.5t8 26.5q15 4 40.5 7.5t43.5 5.5v567h-162q-1 -9 -2.5 -20.5t-3.5 -23.5t-4 -23t-3 -18q-11 -3 -28.5 -4.5t-31.5 -1.5v152h562v-156q-15 0 -32 2t-29 5q-4 17 -7.5 43t-5.5 45h-161v-568z" />
    <glyph glyph-name="U" unicode="U" horiz-adv-x="704" 
d="M188 257q0 -103 43 -157.5t133 -54.5q47 0 81 16.5t56 45.5t32.5 68t10.5 84v371q-16 1 -36 3t-32 4q-3 10 -3.5 29t1.5 28h219q2 -8 2 -21q0 -9 -1 -19t-3 -16q-14 -3 -34 -5t-37 -3v-365q0 -63 -16 -115.5t-49.5 -90t-86 -58.5t-124.5 -21q-127 0 -187.5 69t-60.5 200
v379q-15 2 -38.5 4.5t-36.5 4.5q-2 4 -3.5 12t-2.5 16.5t-1.5 16.5t-0.5 12h264q2 -9 1.5 -27.5t-3.5 -28.5q-17 -3 -41.5 -5t-45.5 -3v-373z" />
    <glyph glyph-name="V" unicode="V" horiz-adv-x="711" 
d="M371 68q4 26 14.5 62.5t20.5 65.5l100 293q11 32 26 70t29 70q-19 1 -40 3.5t-38 6.5q-4 10 -7 27.5t-3 27.5h233q0 -11 -3.5 -29t-7.5 -29q-13 -2 -29 -3.5t-30 -2.5l-237 -643h-90l-230 642q-12 1 -30 4t-30 6q-4 10 -7 27.5t-3 27.5h266q0 -12 -4 -29.5t-9 -28.5
q-19 -2 -43.5 -3.5t-47.5 -2.5q16 -31 31 -64.5t28 -71.5l104 -305q4 -12 8.5 -27.5t8.5 -32t7.5 -32.5t5.5 -29h7z" />
    <glyph glyph-name="W" unicode="W" horiz-adv-x="1002" 
d="M317 70q5 27 12 62.5t14 63.5l122 507h106l115 -511q8 -32 12.5 -62t9.5 -60h7q4 25 10.5 59t14.5 67l75 299q8 33 19.5 70.5t22.5 64.5q-18 1 -39 3t-36 5q-3 10 -5.5 28t-2.5 28h215q0 -10 -3.5 -29t-6.5 -29q-10 -2 -24.5 -3.5t-27.5 -2.5l-184 -643h-94l-111 482
q-4 16 -8 36.5t-7.5 42t-6.5 42.5t-5 38h-7q-2 -17 -5.5 -38.5t-7.5 -44t-8.5 -44t-8.5 -37.5l-117 -477h-103l-169 641q-13 2 -29 4.5t-26 5.5q-5 12 -7.5 28.5t-3.5 27.5h255q0 -12 -3.5 -29.5t-8.5 -28.5q-19 -2 -42.5 -3.5t-45.5 -2.5q11 -26 23 -64.5t20 -70.5l71 -301
q6 -26 12 -60.5t10 -63.5h7z" />
    <glyph glyph-name="X" unicode="X" horiz-adv-x="705" 
d="M460 570q8 14 20 30.5t25 29.5q-15 1 -32.5 3t-31.5 5q-5 13 -7 29t-2 27h207q0 -11 -2.5 -29t-5.5 -29q-8 -2 -22.5 -3t-25.5 -2l-179 -271l199 -296q13 -1 30.5 -3t31.5 -5q4 -11 7 -27.5t4 -28.5h-255q2 12 6.5 27.5t9.5 26.5q13 3 32 5t39 4q-17 14 -35 35t-30 38
l-113 169l-105 -182q-8 -14 -21 -31t-25 -29q19 -1 40 -3t38 -6q4 -10 7 -27.5t3 -26.5h-246q2 11 6 25.5t9 26.5q11 3 26 5.5t29 4.5l202 299l-175 266q-12 1 -30 4t-28 6q-4 10 -6 28t-2 29h248q0 -12 -3 -29.5t-6 -27.5q-17 -2 -37.5 -4t-40.5 -3q15 -15 31 -35.5
t27 -36.5l99 -147z" />
    <glyph glyph-name="Y" unicode="Y" horiz-adv-x="602" 
d="M315 338q4 13 10.5 29.5t14.5 30.5l85 163q8 16 19.5 35t23.5 34q-16 1 -34.5 3t-32.5 5q-5 13 -7 29t-2 27h206q0 -11 -2 -28.5t-5 -28.5q-11 -2 -24 -3.5t-24 -2.5l-202 -357v-209q23 -2 49 -4t46 -6q1 -5 2 -12.5t1.5 -15.5t0.5 -15.5t-1 -11.5h-288q2 12 5.5 27.5
t7.5 25.5q15 4 41 7.5t44 5.5v206l-181 356q-11 1 -27 3.5t-27 5.5q-4 11 -6.5 28.5t-2.5 28.5h251q0 -13 -2.5 -29t-6.5 -27q-17 -3 -39.5 -5t-42.5 -3q25 -32 42 -68l80 -164q6 -13 12 -30.5t9 -29.5h7z" />
    <glyph glyph-name="Z" unicode="Z" horiz-adv-x="561" 
d="M41 70l371 551v7h-275q0 -8 -2 -20.5t-4 -26t-4.5 -26t-4.5 -19.5q-14 -3 -33 -5t-34 -2v165h460v-71l-365 -548v-7h297q0 8 1.5 21t3.5 27t4 27.5t4 22.5q12 4 32 6.5t34 2.5v-175h-485v70z" />
    <glyph glyph-name="bracketleft" unicode="[" horiz-adv-x="330" 
d="M102 749h157v-28q0 -8 -1 -15.5t-2 -12.5q-16 -3 -34.5 -4.5t-34.5 -2.5v-816q19 -1 44.5 -3.5t38.5 -6.5q2 -5 3 -14.5t1 -18.5q0 -10 -2 -20h-170v942z" />
    <glyph glyph-name="backslash" unicode="\" horiz-adv-x="422" 
d="M415 -142q-5 -3 -13.5 -6.5t-19 -7t-20 -6.5t-15.5 -4l-340 897q9 8 29.5 19t33.5 15z" />
    <glyph glyph-name="bracketright" unicode="]" horiz-adv-x="330" 
d="M229 -193h-172q1 11 4 27t7 27q14 4 37 7t39 5v813q-17 1 -35 3t-32 4q-1 5 -2 12.5t-1 16t0.5 16t1.5 11.5h153v-942z" />
    <glyph glyph-name="asciicircum" unicode="^" 
d="M246 667l62 6l190 -308q-10 -7 -28 -16t-31 -14l-114 189q-10 16 -23 41.5t-21 42.5h-7q-8 -17 -20 -41t-23 -42l-116 -197q-10 6 -23.5 19.5t-20.5 22.5z" />
    <glyph glyph-name="underscore" unicode="_" horiz-adv-x="500" 
d="M501 -172q2 -9 2.5 -20t0.5 -22v-7q0 -4 -1 -10h-512q0 11 2 29.5t6 29.5h502z" />
    <glyph glyph-name="grave" unicode="`" horiz-adv-x="419" 
d="M73 706q7 5 19 9t26 6.5t28.5 4t26.5 1.5l116 -159q-5 -2 -14.5 -5t-20 -5.5t-20.5 -4t-16 -1.5z" />
    <glyph glyph-name="a" unicode="a" horiz-adv-x="507" 
d="M328 59q-20 -37 -57.5 -56.5t-82.5 -19.5q-27 0 -53 8t-45.5 24.5t-31.5 41.5t-12 60q0 39 15 68t40.5 48.5t59.5 29.5t71 10q24 0 49 -4.5t44 -12.5v54q0 112 -95 112q-16 0 -36 -4.5t-40 -11t-38.5 -15.5t-31.5 -18q-3 7 -4 15.5t-1 18.5q0 14 3 28t8 22
q12 7 31.5 13.5t42 11t46 7.5t43.5 3q82 0 119.5 -43.5t37.5 -146.5v-194q0 -15 3.5 -30.5t9.5 -21.5q11 0 33 3.5t36 8.5q1 -4 1 -11q0 -25 -10 -45q-17 -11 -49.5 -20t-58.5 -9q-15 9 -27.5 30.5t-14.5 45.5h-5zM326 212q-14 4 -34.5 6t-35.5 2q-59 0 -90.5 -24t-31.5 -64
q0 -42 27.5 -61t63.5 -19q29 0 57.5 13t43.5 36v111z" />
    <glyph glyph-name="b" unicode="b" horiz-adv-x="551" 
d="M168 55q18 -6 39 -9.5t44 -3.5q82 0 121 54t39 141q0 91 -36 139t-93 48q-44 0 -71 -18.5t-43 -41.5v-309zM82 664h-72q1 13 5.5 27.5t12.5 25.5q18 6 41.5 10t48.5 4q28 0 51 -6v-193q0 -29 -1.5 -58.5t-3.5 -58.5h10q12 32 47 54.5t95 22.5q33 0 66 -12t59.5 -40.5
t43.5 -74.5t17 -114q0 -60 -17.5 -109.5t-49.5 -85t-76.5 -54.5t-98.5 -19q-45 0 -91 10t-87 30v641z" />
    <glyph glyph-name="c" unicode="c" horiz-adv-x="466" 
d="M350 419q-30 15 -58 15q-65 0 -106.5 -45t-41.5 -143q0 -50 11.5 -86.5t32.5 -60.5t49.5 -35.5t62.5 -11.5q13 0 29.5 2t33 5.5t32.5 7.5t28 9q1 -11 -3 -28.5t-11 -28.5q-26 -14 -67 -25t-81 -11q-48 0 -87.5 18.5t-67 51t-42.5 77t-15 97.5q0 58 17.5 106.5t50 84
t77.5 55t100 19.5q39 0 72 -9.5t59 -26.5q1 -8 1.5 -18t0.5 -18q0 -22 -3 -43.5t-11 -41.5q-14 0 -32.5 3.5t-30.5 9.5v71z" />
    <glyph glyph-name="d" unicode="d" horiz-adv-x="572" 
d="M382 664h-72q1 13 5.5 27.5t12.5 25.5q17 6 41 10t49 4q28 0 51 -6v-593q0 -17 1.5 -36.5t6.5 -34.5h75q1 -3 1 -7v-6q0 -10 -2.5 -21t-5.5 -19q-13 -5 -31.5 -8.5t-38 -6t-37 -4t-28.5 -1.5q-17 31 -20 72h-5q-10 -15 -22.5 -29t-30.5 -24.5t-42 -17t-55 -6.5
q-33 0 -66 12t-59.5 40.5t-43.5 74.5t-17 114q0 60 17.5 109.5t49.5 85t76.5 54.5t98.5 19q24 0 49.5 -6.5t41.5 -17.5v196zM383 418q-18 6 -39 10t-44 4q-41 0 -71.5 -14t-50 -39.5t-29 -61.5t-9.5 -79q0 -91 36 -139t93 -48q44 0 71 18.5t43 41.5v307z" />
    <glyph glyph-name="e" unicode="e" horiz-adv-x="497" 
d="M142 226q2 -81 47 -127t116 -46q16 0 34.5 2.5t37.5 6.5t36.5 9t31.5 10q2 -11 -2 -28.5t-11 -28.5q-27 -15 -69 -28t-89 -13q-54 0 -95.5 19t-70.5 52t-44 77.5t-15 96.5q0 55 16.5 103t46.5 84t72.5 56.5t95.5 20.5q45 0 77.5 -15.5t53 -43.5t30.5 -67.5t10 -86.5
q0 -26 -3 -53h-306zM362 284q3 26 0 53t-14 49.5t-31.5 36.5t-51.5 14q-54 0 -86 -42t-37 -111h220z" />
    <glyph glyph-name="f" unicode="f" horiz-adv-x="339" 
d="M333 475q2 -14 3.5 -30.5t1.5 -27.5h-136v-353q10 -1 24 -3t27.5 -4.5t26 -5t21.5 -5.5q2 -9 3 -22t-1 -24h-266q3 25 14 45q12 5 30.5 10.5t33.5 8.5v353h-79q0 11 3.5 26t8.5 26q14 5 32.5 10t34.5 8v54q0 51 14.5 86.5t38.5 58.5t56 33.5t67 10.5q24 0 52 -4t57 -13
q3 -17 3 -34q0 -24 -4 -47.5t-10 -40.5q-12 0 -30.5 4.5t-28.5 11.5v67q-7 4 -16 5.5t-16 1.5q-20 0 -37.5 -6t-30.5 -20.5t-20.5 -39.5t-7.5 -64v-76h131z" />
    <glyph glyph-name="g" unicode="g" horiz-adv-x="541" 
d="M124 10q-20 6 -34 25t-14 46q0 26 16 49t39 36v5q-31 19 -47.5 55t-16.5 87q0 42 14.5 75t40.5 56t61 35.5t76 12.5q34 0 62.5 -7.5t50.5 -20.5q14 8 41.5 13.5t55.5 5.5q25 0 43 -6q3 -11 5.5 -29t2.5 -31h-99q14 -20 21.5 -46t7.5 -58q0 -84 -50.5 -131t-140.5 -47
q-21 0 -42.5 2.5t-38.5 8.5q-7 -7 -11 -18.5t-4 -22.5q0 -29 38 -37.5t107 -8.5q43 0 80.5 -5.5t65.5 -20.5t43.5 -40.5t15.5 -65.5q0 -45 -20 -78.5t-54.5 -56t-80 -33.5t-96.5 -11q-44 0 -85 9t-72 28t-49.5 47t-18.5 66q0 21 8 39t20.5 32t28 23t30.5 13v5zM174 -7
q-28 -13 -40.5 -35t-12.5 -48t14 -46t36 -33t49.5 -19.5t55.5 -6.5q30 0 57.5 6.5t48.5 19.5t34 32t13 45q0 38 -31.5 56.5t-109.5 18.5q-27 0 -57 2t-57 8zM155 313q0 -57 27.5 -91t76.5 -34q52 0 77 34t25 91q0 55 -27 90t-75 35q-54 0 -79 -32.5t-25 -92.5z" />
    <glyph glyph-name="h" unicode="h" horiz-adv-x="603" 
d="M195 61q18 -2 38.5 -5t34.5 -8q2 -9 3 -23t-1 -25h-240q3 25 14 45q12 5 30.5 10.5t33.5 8.5v600h-72q1 13 5.5 27.5t12.5 25.5q18 7 42 10.5t48 3.5q28 0 51 -6v-193q0 -31 -1.5 -62.5t-3.5 -62.5h10q6 15 19 30t32.5 27t46 20t59.5 8q30 0 57.5 -6.5t48 -25.5t33 -54.5
t12.5 -93.5q0 -125 -6 -251q20 -2 43 -5t38 -8q3 -12 3 -31v-9q0 -3 -1 -8h-237q3 25 14 45q11 5 27.5 10.5t29.5 8.5v234q0 58 -21.5 92t-74.5 34q-20 0 -39 -6t-36.5 -15.5t-31 -21t-21.5 -21.5v-299z" />
    <glyph glyph-name="i" unicode="i" horiz-adv-x="305" 
d="M42 419q1 13 5.5 27.5t12.5 25.5q17 6 41 10t49 4q29 0 52 -6v-418q19 -2 41 -5.5t38 -8.5q3 -12 3 -31v-9q0 -3 -1 -8h-246q3 25 14 45q12 5 30.5 10.5t33.5 8.5v355h-73zM161 707q25 0 40.5 -14.5t15.5 -40.5q0 -29 -15.5 -44t-40.5 -15q-57 0 -57 59q0 25 16 40t41 15
z" />
    <glyph glyph-name="j" unicode="j" horiz-adv-x="269" 
d="M29 419q1 13 5.5 27.5t11.5 25.5q17 6 41.5 10t49.5 4q29 0 52 -6v-410q0 -54 -13 -98.5t-34.5 -82t-49 -69.5t-55.5 -59q-14 5 -27 15.5t-21 23.5q20 21 40 46t36.5 55.5t26.5 66t10 77.5v374h-73zM148 707q25 0 40.5 -14.5t15.5 -40.5q0 -29 -15.5 -44t-40.5 -15
q-57 0 -57 59q0 25 16 40t41 15z" />
    <glyph glyph-name="k" unicode="k" horiz-adv-x="563" 
d="M195 61q19 -2 38 -5t33 -8q2 -9 3 -23t-1 -25h-238q3 25 14 45q12 5 30.5 10.5t33.5 8.5v600h-72q1 13 5.5 27.5t12.5 25.5q17 6 41 10t49 4q28 0 51 -6v-435h56l88 91q7 7 19 17t19 15q-13 2 -32.5 5.5t-30.5 8.5q-3 8 -5 22.5t-2 25.5h211q0 -11 -3 -27t-7 -26
q-8 -3 -23 -5t-25 -3l-153 -146q32 -39 64 -77t59 -68t46 -49t25 -20l59 9q1 -5 1 -8v-4q0 -11 -3.5 -25.5t-8.5 -24.5q-14 -6 -34.5 -12.5t-41.5 -9.5q-15 2 -38.5 23t-54 56t-68.5 81.5t-81 100.5h-36v-179z" />
    <glyph glyph-name="l" unicode="l" horiz-adv-x="296" 
d="M33 664q1 13 5.5 27.5t12.5 25.5q17 6 41 10t49 4q28 0 51 -6v-663q19 -2 42 -5.5t39 -8.5q3 -12 3 -31v-9q0 -3 -1 -8h-248q3 25 14 45q12 5 30.5 10.5t33.5 8.5v600h-72z" />
    <glyph glyph-name="m" unicode="m" horiz-adv-x="899" 
d="M202 61q19 -2 39 -5t34 -8q2 -9 3 -23t-1 -25h-240q3 25 14 45q12 5 30.5 10.5t33.5 8.5v355h-73q1 13 5.5 27.5t12.5 25.5q16 6 38 10t45 4q26 0 47 -6v-73h10q7 13 20 27.5t32.5 27.5t46 21.5t59.5 8.5q23 0 44 -4t38.5 -14t30.5 -27.5t20 -45.5h5q6 14 19.5 30
t33.5 29.5t47 22.5t61 9q29 0 55.5 -6.5t47 -25.5t32.5 -54.5t12 -93.5q0 -128 -6 -251q20 -2 43 -5t38 -8q3 -12 3 -31v-9q0 -3 -1 -8h-237q3 25 14 45q11 5 27.5 10.5t29.5 8.5v234q0 58 -20 92t-72 34q-19 0 -37.5 -6t-34.5 -15.5t-29 -21t-21 -21.5v-298q19 -2 39 -5.5
t34 -8.5q2 -9 3 -23t-1 -25h-231q3 25 14 45q11 5 27.5 10.5t29.5 8.5v234q0 58 -20 92t-72 34q-19 0 -37.5 -6t-34.5 -15.5t-29 -21t-21 -21.5v-299z" />
    <glyph glyph-name="n" unicode="n" horiz-adv-x="605" 
d="M202 61q19 -2 39 -5t34 -8q2 -9 3 -23t-1 -25h-240q3 25 14 45q12 5 30.5 10.5t33.5 8.5v355h-73q1 13 5.5 27.5t12.5 25.5q16 6 38 10t45 4q26 0 47 -6v-73h10q7 13 20 27.5t33.5 27.5t47 21.5t60.5 8.5q30 0 57 -6.5t47.5 -25.5t32.5 -54.5t12 -93.5q0 -124 -6 -251
q20 -2 43 -5t38 -8q3 -12 3 -31v-9q0 -3 -1 -8h-237q3 25 14 45q11 5 27.5 10.5t29.5 8.5v234q0 58 -20.5 92t-73.5 34q-19 0 -38 -6t-35.5 -15.5t-30 -21t-21.5 -21.5v-299z" />
    <glyph glyph-name="o" unicode="o" horiz-adv-x="553" 
d="M277 492q51 0 93 -16t71.5 -47.5t46 -77.5t16.5 -106q0 -126 -61.5 -194t-165.5 -68q-110 0 -169 66t-59 196q0 57 17.5 103t48 78t72 49t90.5 17zM140 245q0 -92 36.5 -147t100.5 -55q69 0 102.5 54t33.5 148q0 40 -9.5 74.5t-27.5 59.5t-43 39.5t-56 14.5
q-67 0 -102 -51.5t-35 -136.5z" />
    <glyph glyph-name="p" unicode="p" horiz-adv-x="565" 
d="M182 57q18 -6 39 -10t44 -4q82 0 121 54t39 141q0 91 -36 139.5t-93 48.5q-44 0 -71 -19t-43 -42v-308zM183 -167q10 -1 23 -3t26.5 -4.5t25.5 -5t20 -5.5q2 -9 3 -22t-1 -24h-262q3 25 14 45q12 5 30.5 10.5t33.5 8.5v586h-74q1 13 5.5 27.5t12.5 25.5q17 6 39 10t44 4
q26 0 47 -6v-65h10q9 15 21.5 29t30 24.5t40.5 17t55 6.5q33 0 66.5 -12t61 -40.5t44.5 -74.5t17 -114q0 -60 -18 -109.5t-50.5 -85t-77.5 -54.5t-99 -19q-22 0 -47 6.5t-41 17.5v-174z" />
    <glyph glyph-name="q" unicode="q" horiz-adv-x="548" 
d="M469 -169q19 -2 42.5 -5.5t39.5 -8.5q3 -12 3 -31v-8q0 -4 -1 -9h-253q3 25 14 45q13 5 32.5 10.5t35.5 8.5v102q0 32 1.5 63.5t3.5 61.5h-10q-12 -32 -47 -54.5t-95 -22.5q-33 0 -66 12t-59.5 40.5t-43.5 74.5t-17 114q0 60 17.5 109.5t49.5 85t76 54.5t98 19
q46 0 92 -10.5t87 -32.5v-618zM383 419q-19 8 -39.5 12t-44.5 4q-41 0 -71 -14.5t-49.5 -40.5t-29 -62.5t-9.5 -79.5q0 -91 36 -139t93 -48q44 0 71 18.5t43 41.5v308z" />
    <glyph glyph-name="r" unicode="r" horiz-adv-x="401" 
d="M200 385q11 46 46 76.5t84 30.5q9 0 22.5 -2t22.5 -6q5 -9 9 -25t4 -35q0 -15 -3 -27q-14 8 -32 12.5t-36 4.5q-35 0 -65.5 -19.5t-49.5 -62.5v-268q10 -1 24 -2.5t27.5 -4t26 -5.5t21.5 -6q2 -9 3 -22t-1 -24h-266q3 25 14 45q12 5 30.5 10.5t33.5 8.5v355h-73
q1 13 5.5 27.5t12.5 25.5q17 6 39 10t44 4q26 0 47 -6v-95h10z" />
    <glyph glyph-name="s" unicode="s" horiz-adv-x="430" 
d="M296 428q-11 5 -26.5 8.5t-32.5 3.5q-39 0 -60.5 -16.5t-21.5 -44.5t17.5 -45.5t43 -31t56 -26.5t56 -31.5t43 -46.5t17.5 -71q0 -39 -15 -66.5t-40 -44.5t-57.5 -25t-67.5 -8q-88 0 -153 38q-2 8 -3.5 22t-1.5 26q0 19 3 38t7 33q17 0 36.5 -2t35.5 -7v-69
q17 -11 39 -17t45 -6q38 0 61 20.5t23 54.5q0 30 -17.5 48t-43.5 31.5t-56.5 25.5t-56.5 30t-43.5 46t-17.5 72q0 27 12 50t34 39.5t52.5 26t67.5 9.5q35 0 71 -6t70 -20q2 -7 2 -15v-16q0 -21 -3 -42.5t-8 -38.5q-17 0 -35.5 3.5t-31.5 11.5v59z" />
    <glyph glyph-name="t" unicode="t" horiz-adv-x="350" 
d="M110 597q11 6 31.5 11t35.5 5v-138h145q1 -8 2.5 -27t0.5 -31h-148v-275q0 -49 11.5 -71t53.5 -22q21 0 45.5 3.5t47.5 9.5q1 -3 1 -7v-6q0 -11 -3 -21.5t-7 -17.5q-30 -13 -61.5 -20t-61.5 -7q-58 0 -87 33.5t-29 111.5v56q0 34 1 73t1.5 80.5t2.5 79.5h-69
q0 11 3.5 26.5t8.5 25.5q12 5 28 10t30 8z" />
    <glyph glyph-name="u" unicode="u" horiz-adv-x="598" 
d="M398 419h-72q1 13 5.5 27.5t12.5 25.5q17 7 41 10.5t49 3.5q28 0 51 -6v-348q0 -17 1.5 -35.5t6.5 -35.5h76q1 -3 1 -7v-6q0 -10 -2.5 -21t-5.5 -19q-14 -5 -32.5 -8.5t-38 -6t-37.5 -4t-29 -1.5q-8 15 -13 36.5t-7 42.5h-5q-7 -13 -20 -27.5t-33 -27t-46.5 -21
t-59.5 -8.5q-29 0 -56 6.5t-47 25.5t-32 54.5t-12 93.5q0 63 1 128t4 128h-76q2 12 6 26.5t12 25.5q17 7 41.5 11t49.5 4q28 0 51 -6v-303q0 -57 20.5 -91t71.5 -34q19 0 37.5 5.5t35 14.5t29.5 19.5t21 21.5v306z" />
    <glyph glyph-name="v" unicode="v" horiz-adv-x="518" 
d="M273 59q2 9 5 20.5t6 23.5t6 23t6 19l59 177q7 21 16.5 44.5t20.5 44.5q-14 2 -31 5t-28 8q-8 24 -8 51h189q0 -12 -3 -28t-7 -27q-9 -3 -23.5 -5.5t-23.5 -3.5l-154 -414l-91 -10l-148 419q-14 3 -27 7.5t-24 9.5q-4 11 -6.5 25.5t-3.5 26.5h224q0 -13 -2.5 -27.5
t-5.5 -25.5q-12 -3 -33 -6t-38 -5q9 -17 19 -41t17 -44l62 -185q5 -14 11 -39.5t9 -42.5h7z" />
    <glyph glyph-name="w" unicode="w" horiz-adv-x="771" 
d="M246 58q3 20 8.5 45t9.5 41l82 327l106 11l78 -341q5 -23 8 -42t7 -41h7q8 44 18 86l47 178q5 21 13.5 45t16.5 44q-14 2 -30.5 5t-27.5 8q-8 24 -8 51h181q0 -11 -3 -27t-7 -27q-9 -3 -22.5 -6t-22.5 -4l-121 -413l-97 -11l-77 320l-5 22q-3 14 -6 29l-5 30q-2 15 -3 27
h-7q-2 -12 -4 -27t-5 -30.5t-6 -29.5t-6 -24l-79 -306l-102 -11l-114 419q-14 3 -27.5 7.5t-24.5 9.5q-4 11 -6.5 25.5t-3.5 26.5h216q0 -11 -2.5 -26t-5.5 -25q-11 -3 -31.5 -6.5t-37.5 -5.5q9 -18 18 -42t14 -46l45 -183q4 -16 8.5 -39.5t6.5 -43.5h7z" />
    <glyph glyph-name="x" unicode="x" horiz-adv-x="554" 
d="M201 100q-6 -8 -14.5 -19t-17.5 -19q11 -1 30.5 -4.5t30.5 -7.5q5 -9 7 -24t2 -26h-222q3 25 14 47q10 5 29.5 11.5t32.5 9.5l140 179l-125 160q-15 3 -29 7.5t-25 9.5q-5 11 -7.5 25t-3.5 26h208q0 -11 -2 -25.5t-4 -24.5q-8 -3 -22 -6.5t-26 -5.5q10 -8 20 -18.5
t19 -21.5l61 -79l61 83q5 8 13.5 17.5t18.5 17.5q-27 3 -52 13q-8 24 -8 50h182q0 -11 -3 -27t-7 -26q-10 -4 -22.5 -6.5t-22.5 -3.5l-125 -165l144 -185q11 -1 28.5 -4t28.5 -7q4 -9 7 -24.5t3 -26.5h-226q2 14 5.5 27t8.5 23q11 4 28 7.5t28 4.5q-11 10 -23.5 22t-21.5 24
l-71 91z" />
    <glyph glyph-name="y" unicode="y" horiz-adv-x="519" 
d="M276 55q2 9 5.5 22.5t7 27.5t7.5 27.5t7 22.5l50 159q3 11 7.5 24t9.5 26.5t10 25.5t10 21q-14 2 -31.5 5t-28.5 8q-8 24 -8 51h191q0 -11 -3 -27.5t-7 -27.5q-9 -3 -23 -5.5t-24 -3.5l-57 -166q-11 -31 -24.5 -70.5t-28.5 -80t-30.5 -78.5t-29.5 -66q-35 -72 -84.5 -119
t-117.5 -71q-11 11 -23 31.5t-14 42.5q68 19 113.5 58t67.5 89l-163 425q-14 3 -27.5 7.5t-24.5 9.5q-4 11 -6.5 25.5t-3.5 26.5h226q0 -12 -2.5 -26.5t-5.5 -25.5q-14 -4 -35 -7t-38 -5q9 -17 18.5 -40t17.5 -44l63 -175q3 -8 6 -21t6 -26.5t5.5 -27t4.5 -22.5h7z" />
    <glyph glyph-name="z" unicode="z" horiz-adv-x="459" 
d="M44 43l259 369v7h-165q-2 -16 -7 -36t-11 -35q-13 0 -33.5 3t-29.5 7v117h347l11 -43l-259 -369v-7q46 0 96.5 2t92.5 7q4 17 10 36t12 35q20 5 39 5q15 0 25 -2l-17 -139h-359z" />
    <glyph glyph-name="braceleft" unicode="{" horiz-adv-x="342" 
d="M281 -145q1 -5 1.5 -13t0 -16.5t-2 -16t-2.5 -11.5q-44 2 -73 13.5t-46 31.5t-24.5 47t-7.5 60v182q0 30 -2.5 53.5t-11 39.5t-24 25t-41.5 11q0 15 3.5 31.5t6.5 24.5q23 2 37 11t21 23.5t9 35t2 46.5v158q0 35 7 65t25 51.5t48.5 34.5t77.5 15q0 -11 -3.5 -30t-8.5 -30
q-34 -5 -47.5 -27.5t-13.5 -72.5v-158q0 -58 -16.5 -96t-61.5 -51v-5q45 -12 61.5 -45t16.5 -93v-184q0 -51 16.5 -79t52.5 -31z" />
    <glyph glyph-name="bar" unicode="|" horiz-adv-x="300" 
d="M185 -184q-2 -1 -13.5 -1.5t-18.5 -0.5q-6 0 -18.5 0.5t-15.5 1.5v935q12 2 32 3.5t34 1.5v-940z" />
    <glyph glyph-name="braceright" unicode="}" horiz-adv-x="342" 
d="M62 -145q32 2 50.5 27.5t18.5 70.5v186q0 63 15.5 99.5t62.5 48.5v5q-43 13 -60.5 48.5t-17.5 92.5v156q0 58 -16.5 83t-56.5 29q0 11 4.5 29.5t9.5 26.5q43 -3 70.5 -17.5t44 -36t23 -48.5t6.5 -56v-160q0 -26 2 -47.5t9.5 -37.5t22 -26t40.5 -11q3 -10 5 -27t2 -29
q-47 -4 -64 -30t-17 -86v-185q0 -35 -6.5 -64t-24 -50t-46.5 -33.5t-74 -14.5q-2 4 -2.5 12t-1 16.5t-0.5 16.5t1 12z" />
    <glyph glyph-name="asciitilde" unicode="~" 
d="M96 213q-9 6 -19 18.5t-15 21.5q20 29 56 49.5t79 20.5q29 0 52.5 -7.5t44.5 -17t42 -17t46 -7.5q27 0 47 13t31 29q11 -2 26.5 -9t23.5 -12q-20 -36 -58 -60t-85 -24q-34 0 -57 7.5t-42.5 17t-39 17t-45.5 7.5q-29 0 -52 -15t-35 -32z" />
    <glyph glyph-name="uni00A0" unicode="&#xa0;" horiz-adv-x="205" 
 />
    <glyph glyph-name="exclamdown" unicode="&#xa1;" horiz-adv-x="322" 
d="M126 261q9 4 30 6.5t35 0.5l29 -476q-23 -6 -54 -6q-34 0 -59 6zM161 487q29 0 46.5 -16.5t17.5 -46.5q0 -32 -17.5 -49.5t-46.5 -17.5q-65 0 -65 67q0 29 18.5 46t46.5 17z" />
    <glyph glyph-name="cent" unicode="&#xa2;" 
d="M407 535q-32 15 -62 15q-70 0 -114 -45t-44 -143t46 -146t118 -48q28 0 65 8t66 18q2 -12 -3.5 -31t-10.5 -28q-22 -12 -51 -20t-63 -13v-101q-4 -1 -14.5 -1.5t-18.5 -0.5q-7 0 -18 0.5t-16 1.5v99q-45 4 -81 24.5t-61.5 52.5t-39 74.5t-13.5 91.5q0 52 15 97t43 79.5
t67.5 56.5t87.5 29v78q12 2 32.5 3.5t34.5 1.5v-81q32 -3 59.5 -12t50.5 -23q3 -20 3 -39q0 -21 -3.5 -42.5t-11.5 -39.5q-14 0 -32.5 3.5t-30.5 9.5v71z" />
    <glyph glyph-name="sterling" unicode="&#xa3;" 
d="M125 66q16 34 27 78t11 83q0 20 -1 39.5t-3 36.5h-91q0 12 3 31t5 28h76q-6 37 -11 69t-5 64q0 194 217 194q29 0 66 -6.5t63 -15.5q0 -75 -13 -143q-15 0 -34.5 4t-30.5 9v82q-16 5 -34 8t-32 3q-51 0 -79.5 -34t-28.5 -89q0 -21 1.5 -39t3.5 -35l5 -34q3 -17 6 -37h195
q2 -10 3 -27.5t-1 -31.5h-192q1 -12 1.5 -25.5t0.5 -28.5q0 -26 -5 -52.5t-13.5 -51t-20 -44.5t-24.5 -33v-5h260q2 22 5.5 49t7.5 44q11 3 30.5 5.5t32.5 2.5v-164h-487q1 11 4.5 26.5t7.5 26.5q13 4 35 7.5t39 5.5z" />
    <glyph glyph-name="currency" unicode="&#xa4;" 
d="M170 514q51 34 118 34q33 0 62 -8t53 -22l59 72q13 -3 27 -13.5t19 -19.5l-61 -75q45 -53 45 -137q0 -47 -12.5 -84.5t-35.5 -64.5l66 -80q-5 -9 -19 -19.5t-27 -13.5l-63 76q-47 -30 -113 -30q-71 0 -119 30l-62 -76q-13 3 -27 13.5t-19 19.5l66 81q-43 55 -43 148
q0 40 11.5 72.5t32.5 58.5l-65 81q5 9 19 19.5t27 13.5zM159 344q0 -35 9.5 -64.5t26.5 -50.5t40.5 -33t52.5 -12q62 0 95 44t33 116q0 31 -9.5 58t-26 47.5t-40.5 32t-52 11.5q-62 0 -95.5 -41.5t-33.5 -107.5z" />
    <glyph glyph-name="yen" unicode="&#xa5;" 
d="M327 172v-111q23 -2 47.5 -4t44.5 -5q3 -9 4 -26.5t-1 -25.5h-282q2 11 5.5 26t7.5 24q14 3 39.5 6.5t42.5 5.5v110h-149q0 11 2 26.5t5 26.5h142v40l-19 39h-130q0 11 2 26.5t5 26.5h97l-122 248q-11 1 -26.5 3t-26.5 5q-4 11 -6.5 28t-2.5 28h251q0 -12 -2.5 -27.5
t-5.5 -26.5q-20 -3 -42 -5.5t-44 -3.5q12 -15 22 -32.5t18 -32.5l71 -153q6 -14 11.5 -30t7.5 -28h7q4 13 9.5 28t13.5 30l77 153q8 14 18 33t21 33q-16 1 -34.5 3t-33.5 5q-5 12 -7 27.5t-2 26.5h207q0 -11 -2 -27.5t-5 -27.5q-11 -2 -23.5 -3.5t-23.5 -2.5l-139 -251h102
q1 -3 1.5 -9.5t1 -14.5t0.5 -16t-1 -13h-133l-20 -37v-42h151q1 -3 1.5 -9.5t1 -14.5t0.5 -16t-1 -13h-153z" />
    <glyph glyph-name="brokenbar" unicode="&#xa6;" horiz-adv-x="300" 
d="M185 414q-2 -1 -14 -1.5t-19 -0.5q-6 0 -19 0.5t-16 1.5v337q12 2 33 3.5t35 1.5v-342zM185 -184q-2 -1 -14 -1.5t-19 -0.5q-6 0 -19 0.5t-16 1.5v365q12 2 33 3.5t35 1.5v-370z" />
    <glyph glyph-name="section" unicode="&#xa7;" 
d="M78 327q0 50 21.5 89.5t53.5 67.5q-7 17 -11 37t-4 44q0 72 46.5 110.5t130.5 38.5q44 0 86 -10t76 -26q0 -32 -3.5 -65t-9.5 -59q-16 0 -35.5 4t-31.5 10v72q-14 8 -35 14t-47 6q-47 0 -71.5 -22t-24.5 -58q0 -39 20.5 -64t51 -45.5t66 -40.5t66 -48t51 -68.5
t20.5 -102.5q0 -48 -19.5 -85t-45.5 -61q11 -20 16.5 -43t5.5 -52q0 -44 -16.5 -75.5t-45.5 -51.5t-67.5 -29.5t-82.5 -9.5q-47 0 -91.5 10.5t-81.5 30.5q0 12 0.5 29t2 35.5t4 37.5t5.5 37q14 0 36.5 -2.5t37.5 -7.5v-86q23 -14 49 -20.5t53 -6.5q56 0 86 27.5t30 72.5
q0 43 -21.5 71.5t-54 50t-70.5 41.5t-70.5 46t-54 63t-21.5 94zM155 346q0 -30 11.5 -52t30.5 -40.5t44 -34t51 -31t52 -33t48 -39.5q11 17 19 38.5t8 42.5q0 35 -12 60t-31.5 44.5t-44.5 35t-51.5 30.5t-51.5 31.5t-45 39.5q-15 -19 -21.5 -43.5t-6.5 -48.5z" />
    <glyph glyph-name="dieresis" unicode="&#xa8;" horiz-adv-x="419" 
d="M107 672q23 0 37.5 -13t14.5 -37q0 -26 -14.5 -40t-37.5 -14q-53 0 -53 54q0 23 15 36.5t38 13.5zM314 672q23 0 37.5 -13t14.5 -37q0 -26 -14.5 -40t-37.5 -14q-53 0 -53 54q0 23 15 36.5t38 13.5z" />
    <glyph glyph-name="copyright" unicode="&#xa9;" horiz-adv-x="817" 
d="M764 336q0 -74 -28.5 -139t-77.5 -113t-115 -76t-141 -28t-139.5 27t-111.5 74.5t-74 112t-27 138.5t28 139t77 113.5t114.5 76.5t140.5 28t139.5 -27.5t112 -75.5t75 -112.5t27.5 -137.5zM703 333q0 62 -23 117t-63 96.5t-94 66t-116 24.5t-116 -23.5t-94 -64.5t-63 -96
t-23 -118t23 -118.5t63.5 -96.5t95 -65t116.5 -24q61 0 115 23.5t93.5 64.5t62.5 96t23 118zM471 469q-11 5 -23.5 7.5t-24.5 2.5q-44 0 -75 -33.5t-31 -104.5q0 -75 32.5 -109t87.5 -34q10 0 23.5 1.5t27 4.5t26.5 6.5t23 7.5q1 -10 -2.5 -25t-8.5 -26q-22 -12 -56 -20.5
t-68 -8.5q-39 0 -71 14t-55 39.5t-35.5 59.5t-12.5 75q0 49 15.5 87t42.5 64.5t62.5 40t75.5 13.5q33 0 63.5 -5.5t50.5 -14.5q0 -11 -1 -26t-2 -30.5t-3 -30t-3 -23.5q-14 0 -31 3.5t-27 8.5v56z" />
    <glyph glyph-name="ordfeminine" unicode="&#xaa;" horiz-adv-x="411" 
d="M245 364q-12 -25 -37 -38.5t-57 -13.5q-19 0 -36.5 5.5t-31 16t-22 27t-8.5 39.5q0 26 10 46t27 33.5t39.5 20.5t47.5 7q16 0 35 -3t31 -8v28q0 57 -64 57q-12 0 -26 -2.5t-28 -7t-26.5 -10.5t-21.5 -12q-4 14 -2 35t7 32q9 4 23 8t30.5 7t33.5 4.5t31 1.5q60 0 87.5 -27
t27.5 -89v-118q0 -11 3 -20.5t6 -12.5q8 0 22 3t23 6q0 -10 -2 -24t-7 -22q-12 -8 -37 -14.5t-43 -6.5q-11 7 -19.5 21.5t-10.5 30.5h-5zM243 455q-9 2 -22.5 3t-21.5 1q-38 0 -55 -13t-17 -35q0 -23 16 -32.5t39 -9.5q17 0 34.5 7.5t26.5 19.5v59zM338 268q1 -3 1.5 -10.5
t1 -16.5t0.5 -17.5t-1 -14.5h-274q0 11 2 29.5t6 29.5h264z" />
    <glyph glyph-name="guillemotleft" unicode="&#xab;" horiz-adv-x="538" 
d="M171 250q20 -49 41.5 -96t46.5 -96q-6 -3 -15.5 -5t-20 -4t-21 -3t-17.5 -1q-30 49 -60 102.5t-53 102.5q22 49 47 93.5t55 94.5q17 5 43 9t46 4q-25 -49 -49 -100.5t-43 -100.5zM362 253q20 -49 41.5 -96t46.5 -96q-6 -3 -16 -5t-20.5 -4t-21 -3t-17.5 -1
q-30 49 -60 102.5t-53 102.5q22 49 47 93.5t55 94.5q17 5 43.5 9t46.5 4q-25 -49 -49 -100.5t-43 -100.5z" />
    <glyph glyph-name="logicalnot" unicode="&#xac;" 
d="M502 305v-176q-14 -3 -37 -3q-25 0 -41 3v108h-363q0 14 3 35.5t6 32.5h432z" />
    <glyph glyph-name="uni00AD" unicode="&#xad;" horiz-adv-x="336" 
d="M281 308q2 -9 3 -24t1 -29v-10q0 -5 -1 -11h-239q0 15 3 38.5t7 35.5h226z" />
    <glyph glyph-name="registered" unicode="&#xae;" horiz-adv-x="548" 
d="M493 551q0 -48 -16.5 -88.5t-46 -70t-70 -46t-89.5 -16.5q-48 0 -88 16t-68.5 45t-44 69t-15.5 88t16.5 88t45.5 69t70 45t90 16t88.5 -16t68 -44.5t44 -68t15.5 -86.5zM443 546q0 38 -12 70.5t-34.5 56t-54 37t-70.5 13.5q-38 0 -68.5 -13.5t-53 -36.5t-34.5 -54.5
t-12 -68.5q0 -38 12 -70.5t34.5 -56.5t54 -37.5t70.5 -13.5q37 0 68 13t53.5 36.5t34.5 55t12 69.5zM200 633q-5 0 -14 0.5t-14 1.5q-2 5 -2.5 14t1.5 14q23 2 52.5 3t49.5 1q40 0 69 -16t29 -51q0 -25 -14.5 -41t-33.5 -20q9 -18 19.5 -36.5t21.5 -35.5l27 3q0 -7 -2 -16
t-5 -14q-11 -3 -24.5 -4.5t-26.5 -2.5q-15 25 -29 50.5t-25 48.5q-8 0 -17 0.5t-15 1.5v-65q8 -1 17 -3t14 -4q1 -4 1.5 -11t-0.5 -12h-113q1 6 2.5 12.5t3.5 9.5q6 3 15.5 5t12.5 2v165zM247 563q6 -1 15 -1.5t17 -0.5q19 0 32.5 10t13.5 27q0 21 -16.5 29.5t-43.5 8.5h-9
q-4 0 -9 -1v-72z" />
    <glyph glyph-name="macron" unicode="&#xaf;" horiz-adv-x="419" 
d="M78 584q0 14 3 34t6 31h249q2 -10 2.5 -22.5t0.5 -23.5v-9q0 -3 -1 -10h-260z" />
    <glyph glyph-name="degree" unicode="&#xb0;" horiz-adv-x="350" 
d="M163 689q60 0 97.5 -33t37.5 -94q0 -65 -36.5 -100t-98.5 -35q-66 0 -101 34t-35 101q0 29 10.5 52.5t28.5 40t43 25.5t54 9zM96 562q0 -38 18 -60.5t49 -22.5q34 0 50 22t16 61q0 32 -18 53.5t-48 21.5q-32 0 -49.5 -20.5t-17.5 -54.5z" />
    <glyph glyph-name="plusminus" unicode="&#xb1;" 
d="M485 401q2 -7 3 -18.5t1 -24.5v-9q0 -3 -1 -9h-164v-179q-2 -1 -15 -1.5t-21 -0.5t-22 0.5t-18 1.5v179h-166q0 13 3 32t5 29h158v172q14 2 36.5 4t39.5 2v-178h161zM481 64q2 -7 3 -19t1 -26v-9q0 -4 -1 -10h-406q0 14 3 33.5t5 30.5h395z" />
    <glyph glyph-name="twosuperior" unicode="&#xb2;" horiz-adv-x="385" 
d="M53 440q21 21 54 47.5t64.5 56t54.5 60.5t23 61q0 52 -60 52q-17 0 -35 -4.5t-32 -12.5v-51q-11 -4 -29 -6t-30 -2q-4 20 -5.5 47t-1.5 53q26 12 60 21.5t79 9.5q60 0 98.5 -21.5t38.5 -77.5q0 -24 -11 -48t-28 -46.5t-38.5 -43t-42.5 -38t-39 -32t-29 -23.5v-5
q19 0 44 1t52 1.5t54.5 2t53.5 3.5q0 -11 -1.5 -31.5t-3.5 -33.5h-290v60z" />
    <glyph glyph-name="threesuperior" unicode="&#xb3;" horiz-adv-x="385" 
d="M103 549q-2 12 -1 28.5t5 27.5q69 0 102.5 14.5t33.5 47.5q0 27 -17.5 36.5t-42.5 9.5q-23 0 -56.5 -5.5t-61.5 -17.5q-3 32 8 65q24 9 54.5 13t56.5 4q28 0 53 -5.5t44.5 -17t31 -29t11.5 -42.5q0 -38 -23 -63t-62 -30v-5q37 -3 65.5 -26.5t28.5 -69.5q0 -30 -13 -51
t-36 -34.5t-54 -19.5t-67 -6q-26 0 -53.5 3t-44.5 9q-5 11 -7.5 25t-2.5 28v6q0 4 1 8q10 -4 24 -7.5t30 -6.5t32 -5t30 -2q34 0 56 13t22 45q0 35 -33 47.5t-114 12.5z" />
    <glyph glyph-name="acute" unicode="&#xb4;" horiz-adv-x="419" 
d="M152 539q-6 2 -13 7t-14.5 11t-14 13t-9.5 12l112 156q8 0 20 -3.5t25 -8.5t24.5 -11t18.5 -12z" />
    <glyph glyph-name="mu" unicode="&#xb5;" horiz-adv-x="612" 
d="M141 81q20 -99 28.5 -186.5t8.5 -163.5q-12 0 -25.5 2.5t-27 5.5t-25 7t-18.5 7q7 189 11.5 367t4.5 349q6 2 18 4t25 3.5t25.5 2t18.5 0.5q-2 -60 -3.5 -119.5t-1.5 -121.5q0 -90 25.5 -135.5t86.5 -45.5q21 0 40 7.5t35 20t28.5 28t19.5 31.5q-3 43 -3 94q0 64 1 123
t4 108q6 2 17 4t23 3.5t23.5 2t17.5 0.5q-3 -60 -3.5 -122.5t-0.5 -122.5q0 -98 12 -139t40 -41q10 0 24 4.5t22 9.5q1 -5 1 -12q0 -14 -3.5 -29t-8.5 -23q-11 -8 -29.5 -14.5t-35.5 -6.5q-41 0 -62 27t-30 72h-5q-6 -17 -16 -35t-27.5 -32t-42 -23t-58.5 -9q-46 0 -79.5 23
t-47.5 75h-7z" />
    <glyph glyph-name="paragraph" unicode="&#xb6;" horiz-adv-x="604" 
d="M432 653q-17 2 -38 2.5t-42 0.5v-764q23 0 52 -1.5t59 -3t58.5 -3.5t49.5 -4q2 -7 3 -16t1 -18q0 -11 -1 -15h-365q1 11 3.5 23.5t6.5 23.5q11 4 32 7.5t35 5.5v465q-9 -1 -17 -1h-15q-37 0 -73.5 8.5t-65 29t-46 54.5t-17.5 84q0 87 70.5 133.5t205.5 46.5
q30 0 64.5 -0.5t68 -2t62.5 -3t49 -3.5q1 -5 1.5 -13.5t0.5 -17t-1 -16t-2 -11.5q-16 -1 -37 -1h-36v-685q-2 -1 -13.5 -1.5t-18.5 -0.5q-6 0 -18.5 0.5t-15.5 1.5v695z" />
    <glyph glyph-name="periodcentered" unicode="&#xb7;" horiz-adv-x="336" 
d="M169 315q31 0 50 -18t19 -50q0 -35 -19 -54t-50 -19q-71 0 -71 73q0 31 19.5 49.5t51.5 18.5z" />
    <glyph glyph-name="cedilla" unicode="&#xb8;" horiz-adv-x="419" 
d="M194 7q11 3 26 4.5t29 1.5l-14 -72q23 -5 43 -23t20 -47q0 -21 -10.5 -38t-27.5 -30.5t-39 -21.5t-45 -11q-20 16 -33 37q30 5 50 21t20 39q0 22 -15.5 36.5t-38.5 19.5z" />
    <glyph glyph-name="onesuperior" unicode="&#xb9;" horiz-adv-x="385" 
d="M87 380q1 11 5 24.5t8 22.5q14 3 32 5t34 4v271l-90 -9q1 12 3.5 26.5t8.5 26.5q20 5 62.5 11.5t94.5 9.5v-337q16 -1 38.5 -3.5t36.5 -4.5q2 -10 3.5 -23.5t0.5 -23.5h-237z" />
    <glyph glyph-name="ordmasculine" unicode="&#xba;" horiz-adv-x="420" 
d="M210 637q72 0 115.5 -40.5t43.5 -115.5q0 -80 -43 -124.5t-116 -44.5q-77 0 -119 43.5t-42 125.5q0 36 12 65t34 49.5t51 31t64 10.5zM124 481q0 -54 23 -85.5t63 -31.5q41 0 62 31.5t21 85.5q0 45 -22.5 75.5t-60.5 30.5q-42 0 -64 -29t-22 -77zM351 268q1 -3 1.5 -10.5
t1 -16.5t0.5 -17.5t-1 -14.5h-286q0 11 2 29.5t6 29.5h276z" />
    <glyph glyph-name="guillemotright" unicode="&#xbb;" horiz-adv-x="538" 
d="M165 250q-19 49 -39.5 93.5t-45.5 93.5q13 5 33.5 10t38.5 5q30 -49 59.5 -101t51.5 -101q-23 -49 -54 -104t-61 -104q-15 2 -36.5 8.5t-32.5 13.5q24 48 45 92.5t41 93.5zM359 253q-19 49 -39.5 93.5t-45.5 93.5q13 5 34 10t39 5q30 -49 59.5 -101t51.5 -101
q-23 -49 -54 -104t-61 -104q-15 2 -37 8.5t-33 13.5q24 48 45 92.5t41 93.5z" />
    <glyph glyph-name="onequarter" unicode="&#xbc;" horiz-adv-x="926" 
d="M92 284q1 11 5 24.5t8 22.5q14 3 32 5t34 4v271l-90 -9q1 12 3.5 26.5t8.5 26.5q20 5 62.5 11.5t94.5 9.5v-337q16 -1 38.5 -3.5t36.5 -4.5q2 -10 3.5 -23.5t0.5 -23.5h-237zM778 1q-2 -1 -14.5 -1.5t-20.5 -0.5q-7 0 -21 0.5t-17 1.5v99h-187v48l164 237h96v-229h55
q2 -8 3 -25.5t1 -30.5h-59v-99zM705 262q0 14 1 28.5t3 31.5h-4l-112 -163v-4q11 1 23 1h89v106zM271 -25q-12 2 -29.5 10.5t-25.5 16.5l484 697q14 -1 31.5 -5.5t30.5 -9.5z" />
    <glyph glyph-name="onehalf" unicode="&#xbd;" horiz-adv-x="926" 
d="M73 284q1 11 5 24.5t8 22.5q14 3 32 5t34 4v271l-90 -9q1 12 3.5 26.5t8.5 26.5q20 5 62.5 11.5t94.5 9.5v-337q16 -1 38.5 -3.5t36.5 -4.5q2 -10 3.5 -23.5t0.5 -23.5h-237zM229 -25q-12 2 -29.5 10.5t-25.5 16.5l484 697q14 -1 31.5 -5.5t30.5 -9.5zM548 60
q21 21 54 47.5t64.5 56t54.5 60.5t23 61q0 52 -60 52q-17 0 -35 -4.5t-32 -12.5v-51q-11 -4 -29 -6t-30 -2q-4 20 -5.5 47t-1.5 53q26 12 60 21.5t79 9.5q60 0 98.5 -21.5t38.5 -77.5q0 -24 -11 -48t-28 -46.5t-38.5 -43t-42.5 -38t-39 -32t-29 -23.5v-5q19 0 44 1t52 1.5
t54.5 2t53.5 3.5q0 -11 -1.5 -31.5t-3.5 -33.5h-290v60z" />
    <glyph glyph-name="threequarters" unicode="&#xbe;" horiz-adv-x="926" 
d="M125 453q-2 12 -1 28.5t5 27.5q69 0 102.5 14.5t33.5 47.5q0 27 -17.5 36.5t-42.5 9.5q-23 0 -56.5 -5.5t-61.5 -17.5q-3 32 8 65q24 9 54.5 13t56.5 4q28 0 53 -5.5t44.5 -17t31 -29t11.5 -42.5q0 -38 -23 -63t-62 -30v-5q37 -3 65.5 -26.5t28.5 -69.5q0 -30 -13 -51
t-36 -34.5t-54 -19.5t-67 -6q-26 0 -53.5 3t-44.5 9q-5 11 -7.5 25t-2.5 28v6q0 4 1 8q10 -4 24 -7.5t30 -6.5t32 -5t30 -2q34 0 56 13t22 45q0 35 -33 47.5t-114 12.5zM270 -25q-12 2 -29.5 10.5t-25.5 16.5l484 697q14 -1 31.5 -5.5t30.5 -9.5zM783 1q-2 -1 -14.5 -1.5
t-20.5 -0.5q-7 0 -21 0.5t-17 1.5v99h-187v48l164 237h96v-229h55q2 -8 3 -25.5t1 -30.5h-59v-99zM710 262q0 14 1 28.5t3 31.5h-4l-112 -163v-4q11 1 23 1h89v106z" />
    <glyph glyph-name="questiondown" unicode="&#xbf;" horiz-adv-x="485" 
d="M281 487q29 0 46.5 -16.5t17.5 -46.5q0 -32 -17.5 -49.5t-46.5 -17.5q-65 0 -65 67q0 29 18.5 46t46.5 17zM374 -46q14 8 34.5 12t36.5 4q6 -35 9 -77.5t3 -85.5q-16 -7 -39.5 -13t-50.5 -11t-54 -8t-50 -3q-86 0 -134.5 37t-48.5 99q0 33 14 60t34.5 50t45 43t45 39.5
t34.5 38.5t14 41q0 21 -7 41t-19 36q12 10 34.5 18.5t43.5 10.5q16 -20 27 -47t11 -52t-13 -48t-32 -44t-42 -41.5t-42 -41.5t-32 -43.5t-13 -47.5q0 -15 6 -30.5t18.5 -28t32.5 -20.5t48 -8q20 0 45.5 6t40.5 14v100z" />
    <glyph glyph-name="Agrave" unicode="&#xc0;" horiz-adv-x="738" 
d="M472 0q2 12 5 27t8 26q13 4 35.5 7t38.5 5q-12 17 -21.5 37t-17.5 40l-32 85h-265l-33 -90q-7 -20 -16.5 -39t-19.5 -36q18 -1 41 -3t43 -6q3 -10 5.5 -27t2.5 -26h-238q2 13 6.5 27.5t9.5 25.5q11 4 26 6l27 5l258 644h64l248 -642q12 -1 31 -3.5t32 -5.5q4 -11 7 -27.5
t4 -29.5h-249zM352 596q-2 -9 -5 -21t-7 -25.5t-8 -26.5t-8 -23l-80 -216h222l-82 218q-3 9 -7 21.5t-7.5 25.5t-6.5 25.5t-4 21.5h-7zM160 843q5 9 14 19t19.5 19t21 16.5t18.5 10.5l192 -98q0 -6 -2.5 -14.5t-6 -17.5t-7.5 -17.5t-8 -13.5z" />
    <glyph glyph-name="Aacute" unicode="&#xc1;" horiz-adv-x="738" 
d="M472 0q2 12 5 27t8 26q13 4 35.5 7t38.5 5q-12 17 -21.5 37t-17.5 40l-32 85h-265l-33 -90q-7 -20 -16.5 -39t-19.5 -36q18 -1 41 -3t43 -6q3 -10 5.5 -27t2.5 -26h-238q2 13 6.5 27.5t9.5 25.5q11 4 26 6l27 5l258 644h64l248 -642q12 -1 31 -3.5t32 -5.5q4 -11 7 -27.5
t4 -29.5h-249zM352 596q-2 -9 -5 -21t-7 -25.5t-8 -26.5t-8 -23l-80 -216h222l-82 218q-3 9 -7 21.5t-7.5 25.5t-6.5 25.5t-4 21.5h-7zM300 745q-2 6 -4 15t-3.5 18.5t-2.5 19t-1 16.5l209 98q14 -12 26 -33t19 -41z" />
    <glyph glyph-name="Acircumflex" unicode="&#xc2;" horiz-adv-x="738" 
d="M472 0q2 12 5 27t8 26q13 4 35.5 7t38.5 5q-12 17 -21.5 37t-17.5 40l-32 85h-265l-33 -90q-7 -20 -16.5 -39t-19.5 -36q18 -1 41 -3t43 -6q3 -10 5.5 -27t2.5 -26h-238q2 13 6.5 27.5t9.5 25.5q11 4 26 6l27 5l258 644h64l248 -642q12 -1 31 -3.5t32 -5.5q4 -11 7 -27.5
t4 -29.5h-249zM352 596q-2 -9 -5 -21t-7 -25.5t-8 -26.5t-8 -23l-80 -216h222l-82 218q-3 9 -7 21.5t-7.5 25.5t-6.5 25.5t-4 21.5h-7zM418 891l126 -102q-5 -12 -16.5 -25t-24.5 -20l-142 75l-150 -80q-8 8 -13.5 27t-7.5 30l120 95h108z" />
    <glyph glyph-name="Atilde" unicode="&#xc3;" horiz-adv-x="738" 
d="M472 0q2 12 5 27t8 26q13 4 35.5 7t38.5 5q-12 17 -21.5 37t-17.5 40l-32 85h-265l-33 -90q-7 -20 -16.5 -39t-19.5 -36q18 -1 41 -3t43 -6q3 -10 5.5 -27t2.5 -26h-238q2 13 6.5 27.5t9.5 25.5q11 4 26 6l27 5l258 644h64l248 -642q12 -1 31 -3.5t32 -5.5q4 -11 7 -27.5
t4 -29.5h-249zM352 596q-2 -9 -5 -21t-7 -25.5t-8 -26.5t-8 -23l-80 -216h222l-82 218q-3 9 -7 21.5t-7.5 25.5t-6.5 25.5t-4 21.5h-7zM498 876q30 0 50 -8q-1 -20 -9 -40t-23 -36.5t-36.5 -26.5t-50.5 -10q-20 0 -38.5 7t-36 15t-35 15t-35.5 7q-23 0 -39.5 -12.5
t-21.5 -30.5q-11 1 -25 9.5t-20 18.5q9 37 38 64.5t82 27.5q25 0 43.5 -6.5t34.5 -15t31.5 -15t35.5 -6.5q22 0 36.5 13t18.5 30z" />
    <glyph glyph-name="Adieresis" unicode="&#xc4;" horiz-adv-x="738" 
d="M472 0q2 12 5 27t8 26q13 4 35.5 7t38.5 5q-12 17 -21.5 37t-17.5 40l-32 85h-265l-33 -90q-7 -20 -16.5 -39t-19.5 -36q18 -1 41 -3t43 -6q3 -10 5.5 -27t2.5 -26h-238q2 13 6.5 27.5t9.5 25.5q11 4 26 6l27 5l258 644h64l248 -642q12 -1 31 -3.5t32 -5.5q4 -11 7 -27.5
t4 -29.5h-249zM352 596q-2 -9 -5 -21t-7 -25.5t-8 -26.5t-8 -23l-80 -216h222l-82 218q-3 9 -7 21.5t-7.5 25.5t-6.5 25.5t-4 21.5h-7zM243 874q28 0 44.5 -14t16.5 -40q0 -28 -16.5 -43t-44.5 -15q-62 0 -62 58q0 25 17 39.5t45 14.5zM484 874q28 0 44.5 -14t16.5 -40
q0 -28 -16.5 -43t-44.5 -15q-62 0 -62 58q0 25 17 39.5t45 14.5z" />
    <glyph glyph-name="Aring" unicode="&#xc5;" horiz-adv-x="738" 
d="M370 914q57 0 92 -26.5t35 -76.5q0 -46 -26 -72.5t-71 -33.5l247 -639q12 -1 31 -3.5t32 -5.5q4 -11 7 -27.5t4 -29.5h-249q2 12 5 27t8 26q13 4 35.5 7t38.5 5q-12 17 -21.5 37t-17.5 40l-32 85h-265l-33 -90q-7 -20 -16.5 -39t-19.5 -36q18 -1 41 -3t43 -6
q3 -10 5.5 -27t2.5 -26h-238q2 13 6.5 27.5t9.5 25.5q11 4 26 6l27 5l257 641q-95 14 -95 106q0 48 35.5 75.5t95.5 27.5zM352 596q-2 -9 -5 -21t-7 -25.5t-8 -26.5t-8 -23l-80 -216h222l-82 218q-3 9 -7 21.5t-7.5 25.5t-6.5 25.5t-4 21.5h-7zM369 864q-26 0 -43.5 -14
t-17.5 -40q0 -57 61 -57q26 0 42 14.5t16 42.5q0 27 -16 40.5t-42 13.5z" />
    <glyph glyph-name="AE" unicode="&#xc6;" horiz-adv-x="897" 
d="M372 0q1 11 4 26.5t7 26.5q13 4 35 7.5t37 5.5v165h-211l-48 -91q-11 -20 -22 -39.5t-23 -36.5q18 -1 39 -3.5t41 -6.5q3 -10 5.5 -27.5t2.5 -26.5h-236q2 13 6.5 27t9.5 25q11 4 24.5 7t25.5 5l310 568q-20 1 -45.5 3t-40.5 4q-3 10 -3.5 28t1.5 27h557v-147
q-13 0 -28.5 2t-27.5 5q-4 15 -7.5 39.5t-4.5 39.5h-233v-264h184q1 11 4 27.5t6 26.5q10 3 27 5.5t30 2.5v-184q-13 -2 -29.5 -0.5t-28.5 4.5q-3 14 -5.5 30t-3.5 28h-184v-246h237q2 20 5 44.5t7 41.5q11 3 29.5 5t32.5 2v-156h-486zM275 288h180v345h-7q-6 -18 -16 -43.5
t-21 -45.5z" />
    <glyph glyph-name="Ccedilla" unicode="&#xc7;" horiz-adv-x="620" 
d="M339 -19q-65 2 -119 29t-92 73.5t-59 110t-21 138.5q0 90 27.5 161t74.5 120t109.5 75t133.5 26q56 0 101.5 -10t83.5 -28q0 -41 -3 -87.5t-9 -78.5q-15 0 -36 4.5t-35 11.5v102q-27 12 -53.5 17t-54.5 5q-50 0 -94 -18.5t-76.5 -55t-51.5 -91.5t-19 -127
q0 -77 17.5 -133.5t49 -93.5t75.5 -55t97 -18q21 0 46 3t50 8t48.5 11t42.5 13q2 -13 -2 -32.5t-9 -30.5q-29 -16 -70 -28t-85 -18l-8 -49q32 -5 53.5 -24t21.5 -51q0 -23 -11.5 -43t-30.5 -35t-43 -24.5t-48 -12.5q-20 19 -36 44q33 9 54 24t21 43q0 26 -19.5 40t-45.5 19z
" />
    <glyph glyph-name="Egrave" unicode="&#xc8;" horiz-adv-x="566" 
d="M29 0q1 11 4.5 26.5t7.5 26.5q14 4 37.5 7.5t40.5 5.5v564q-17 1 -39 3t-35 4q-2 10 -3 28.5t1 28.5h474v-147q-13 0 -28.5 2t-27.5 5q-4 15 -7.5 39.5t-4.5 39.5h-238v-254h189q1 11 4 27.5t6 26.5q10 3 27 5.5t30 2.5v-184q-13 -2 -29.5 -0.5t-28.5 4.5q-3 14 -5.5 30
t-3.5 28h-189v-256h242q2 20 5 44.5t7 41.5q11 3 29.5 5t32.5 2v-156h-498zM101 843q5 9 14 19t19.5 19t21 16.5t18.5 10.5l192 -98q0 -6 -2.5 -14.5t-6 -17.5t-7.5 -17.5t-8 -13.5z" />
    <glyph glyph-name="Eacute" unicode="&#xc9;" horiz-adv-x="566" 
d="M29 0q1 11 4.5 26.5t7.5 26.5q14 4 37.5 7.5t40.5 5.5v564q-17 1 -39 3t-35 4q-2 10 -3 28.5t1 28.5h474v-147q-13 0 -28.5 2t-27.5 5q-4 15 -7.5 39.5t-4.5 39.5h-238v-254h189q1 11 4 27.5t6 26.5q10 3 27 5.5t30 2.5v-184q-13 -2 -29.5 -0.5t-28.5 4.5q-3 14 -5.5 30
t-3.5 28h-189v-256h242q2 20 5 44.5t7 41.5q11 3 29.5 5t32.5 2v-156h-498zM262 745q-2 6 -4 15t-3.5 18.5t-2.5 19t-1 16.5l209 98q14 -12 26 -33t19 -41z" />
    <glyph glyph-name="Ecircumflex" unicode="&#xca;" horiz-adv-x="566" 
d="M29 0q1 11 4.5 26.5t7.5 26.5q14 4 37.5 7.5t40.5 5.5v564q-17 1 -39 3t-35 4q-2 10 -3 28.5t1 28.5h474v-147q-13 0 -28.5 2t-27.5 5q-4 15 -7.5 39.5t-4.5 39.5h-238v-254h189q1 11 4 27.5t6 26.5q10 3 27 5.5t30 2.5v-184q-13 -2 -29.5 -0.5t-28.5 4.5q-3 14 -5.5 30
t-3.5 28h-189v-256h242q2 20 5 44.5t7 41.5q11 3 29.5 5t32.5 2v-156h-498zM357 891l126 -102q-5 -12 -16.5 -25t-24.5 -20l-142 75l-150 -80q-8 8 -13.5 27t-7.5 30l120 95h108z" />
    <glyph glyph-name="Edieresis" unicode="&#xcb;" horiz-adv-x="566" 
d="M29 0q1 11 4.5 26.5t7.5 26.5q14 4 37.5 7.5t40.5 5.5v564q-17 1 -39 3t-35 4q-2 10 -3 28.5t1 28.5h474v-147q-13 0 -28.5 2t-27.5 5q-4 15 -7.5 39.5t-4.5 39.5h-238v-254h189q1 11 4 27.5t6 26.5q10 3 27 5.5t30 2.5v-184q-13 -2 -29.5 -0.5t-28.5 4.5q-3 14 -5.5 30
t-3.5 28h-189v-256h242q2 20 5 44.5t7 41.5q11 3 29.5 5t32.5 2v-156h-498zM187 874q28 0 44.5 -14t16.5 -40q0 -28 -16.5 -43t-44.5 -15q-62 0 -62 58q0 25 17 39.5t45 14.5zM428 874q28 0 44.5 -14t16.5 -40q0 -28 -16.5 -43t-44.5 -15q-62 0 -62 58q0 25 17 39.5t45 14.5
z" />
    <glyph glyph-name="Igrave" unicode="&#xcc;" horiz-adv-x="330" 
d="M29 0q1 11 4.5 26.5t7.5 26.5q14 4 37.5 7.5t40.5 5.5v564q-17 1 -39 3t-35 4q-2 10 -3 28.5t1 28.5h252q2 -9 1.5 -27.5t-3.5 -28.5q-17 -3 -39.5 -5t-42.5 -3v-565q22 -2 46 -4t43 -6q2 -8 3 -18t1 -21v-8q0 -3 -1 -8h-274zM-34 843q5 9 14 19t19.5 19t21 16.5
t18.5 10.5l192 -98q0 -6 -2.5 -14.5t-6 -17.5t-7.5 -17.5t-8 -13.5z" />
    <glyph glyph-name="Iacute" unicode="&#xcd;" horiz-adv-x="330" 
d="M29 0q1 11 4.5 26.5t7.5 26.5q14 4 37.5 7.5t40.5 5.5v564q-17 1 -39 3t-35 4q-2 10 -3 28.5t1 28.5h252q2 -9 1.5 -27.5t-3.5 -28.5q-17 -3 -39.5 -5t-42.5 -3v-565q22 -2 46 -4t43 -6q2 -8 3 -18t1 -21v-8q0 -3 -1 -8h-274zM120 745q-2 6 -4 15t-3.5 18.5t-2.5 19
t-1 16.5l209 98q14 -12 26 -33t19 -41z" />
    <glyph glyph-name="Icircumflex" unicode="&#xce;" horiz-adv-x="330" 
d="M29 0q1 11 4.5 26.5t7.5 26.5q14 4 37.5 7.5t40.5 5.5v564q-17 1 -39 3t-35 4q-2 10 -3 28.5t1 28.5h252q2 -9 1.5 -27.5t-3.5 -28.5q-17 -3 -39.5 -5t-42.5 -3v-565q22 -2 46 -4t43 -6q2 -8 3 -18t1 -21v-8q0 -3 -1 -8h-274zM219 891l126 -102q-5 -12 -16.5 -25
t-24.5 -20l-142 75l-150 -80q-8 8 -13.5 27t-7.5 30l120 95h108z" />
    <glyph glyph-name="Idieresis" unicode="&#xcf;" horiz-adv-x="330" 
d="M29 0q1 11 4.5 26.5t7.5 26.5q14 4 37.5 7.5t40.5 5.5v564q-17 1 -39 3t-35 4q-2 10 -3 28.5t1 28.5h252q2 -9 1.5 -27.5t-3.5 -28.5q-17 -3 -39.5 -5t-42.5 -3v-565q22 -2 46 -4t43 -6q2 -8 3 -18t1 -21v-8q0 -3 -1 -8h-274zM62 874q28 0 44.5 -14t16.5 -40
q0 -28 -16.5 -43t-44.5 -15q-62 0 -62 58q0 25 17 39.5t45 14.5zM273 874q28 0 44.5 -14t16.5 -40q0 -28 -16.5 -43t-44.5 -15q-62 0 -62 58q0 25 17 39.5t45 14.5z" />
    <glyph glyph-name="Eth" unicode="&#xd0;" horiz-adv-x="705" 
d="M130 318h-86q0 13 1.5 30t5.5 31h79v245q-17 0 -37 0.5t-37 2.5q-1 5 -2 13t-1 16v17q0 8 1 14q30 3 64 5.5t69 4.5t68.5 3t62.5 1q73 0 137 -22t111.5 -65.5t75 -107t27.5 -146.5q0 -96 -26.5 -165t-71 -113t-102.5 -65t-121 -21h-73q-39 0 -79.5 1t-80.5 1.5t-75 2.5
q2 12 5 27t7 26q14 4 37.5 7.5t40.5 5.5v251zM222 318v-256q23 -2 48.5 -2.5t48.5 -0.5q60 0 107 17t79.5 52.5t49.5 91.5t17 135q0 69 -21.5 122t-58 89t-86 54.5t-105.5 18.5h-18q-10 0 -21.5 -0.5t-22 -1t-17.5 -1.5v-257h186q2 -8 3.5 -28t-0.5 -33h-189z" />
    <glyph glyph-name="Ntilde" unicode="&#xd1;" horiz-adv-x="735" 
d="M502 231q6 -12 15 -31t18 -40t16 -41t10 -33h7v544q-17 1 -39.5 3t-35.5 4q-2 10 -3 29t1 28h221q2 -8 2 -21q0 -11 -1 -20t-3 -15q-14 -3 -34 -5t-37 -3v-636h-113l-292 545q-8 14 -17.5 34.5t-17.5 38.5h-7v-547q21 -2 45 -4t42 -6q3 -9 4 -27.5t-1 -27.5h-254
q1 11 4.5 26.5t7.5 26.5q13 4 36.5 7.5t39.5 5.5v564q-17 1 -39 3t-35 4q-2 10 -3 29t1 28h211zM521 876q30 0 50 -8q-1 -20 -9 -40t-23 -36.5t-36.5 -26.5t-50.5 -10q-20 0 -38.5 7t-36 15t-35 15t-35.5 7q-23 0 -39.5 -12.5t-21.5 -30.5q-11 1 -25 9.5t-20 18.5
q9 37 38 64.5t82 27.5q25 0 43.5 -6.5t34.5 -15t31.5 -15t35.5 -6.5q22 0 36.5 13t18.5 30z" />
    <glyph glyph-name="Ograve" unicode="&#xd2;" horiz-adv-x="721" 
d="M362 714q70 0 128 -23.5t99.5 -69t64 -112t22.5 -152.5q0 -90 -22.5 -160t-63.5 -118.5t-99 -73.5t-129 -25q-154 0 -235.5 95.5t-81.5 281.5q0 83 24 149t66.5 112.5t100.5 71t126 24.5zM144 357q0 -71 14.5 -128t42.5 -97.5t68.5 -62.5t92.5 -22q108 0 161.5 83
t53.5 227q0 63 -15.5 116.5t-43.5 92t-67.5 60.5t-88.5 22q-54 0 -94.5 -20.5t-68 -59t-41.5 -92t-14 -119.5zM170 843q5 9 14 19t19.5 19t21 16.5t18.5 10.5l192 -98q0 -6 -2.5 -14.5t-6 -17.5t-7.5 -17.5t-8 -13.5z" />
    <glyph glyph-name="Oacute" unicode="&#xd3;" horiz-adv-x="721" 
d="M362 714q70 0 128 -23.5t99.5 -69t64 -112t22.5 -152.5q0 -90 -22.5 -160t-63.5 -118.5t-99 -73.5t-129 -25q-154 0 -235.5 95.5t-81.5 281.5q0 83 24 149t66.5 112.5t100.5 71t126 24.5zM144 357q0 -71 14.5 -128t42.5 -97.5t68.5 -62.5t92.5 -22q108 0 161.5 83
t53.5 227q0 63 -15.5 116.5t-43.5 92t-67.5 60.5t-88.5 22q-54 0 -94.5 -20.5t-68 -59t-41.5 -92t-14 -119.5zM303 745q-2 6 -4 15t-3.5 18.5t-2.5 19t-1 16.5l209 98q14 -12 26 -33t19 -41z" />
    <glyph glyph-name="Ocircumflex" unicode="&#xd4;" horiz-adv-x="721" 
d="M362 714q70 0 128 -23.5t99.5 -69t64 -112t22.5 -152.5q0 -90 -22.5 -160t-63.5 -118.5t-99 -73.5t-129 -25q-154 0 -235.5 95.5t-81.5 281.5q0 83 24 149t66.5 112.5t100.5 71t126 24.5zM144 357q0 -71 14.5 -128t42.5 -97.5t68.5 -62.5t92.5 -22q108 0 161.5 83
t53.5 227q0 63 -15.5 116.5t-43.5 92t-67.5 60.5t-88.5 22q-54 0 -94.5 -20.5t-68 -59t-41.5 -92t-14 -119.5zM421 891l126 -102q-5 -12 -16.5 -25t-24.5 -20l-142 75l-150 -80q-8 8 -13.5 27t-7.5 30l120 95h108z" />
    <glyph glyph-name="Otilde" unicode="&#xd5;" horiz-adv-x="721" 
d="M362 714q70 0 128 -23.5t99.5 -69t64 -112t22.5 -152.5q0 -90 -22.5 -160t-63.5 -118.5t-99 -73.5t-129 -25q-154 0 -235.5 95.5t-81.5 281.5q0 83 24 149t66.5 112.5t100.5 71t126 24.5zM144 357q0 -71 14.5 -128t42.5 -97.5t68.5 -62.5t92.5 -22q108 0 161.5 83
t53.5 227q0 63 -15.5 116.5t-43.5 92t-67.5 60.5t-88.5 22q-54 0 -94.5 -20.5t-68 -59t-41.5 -92t-14 -119.5zM498 876q30 0 50 -8q-1 -20 -9 -40t-23 -36.5t-36.5 -26.5t-50.5 -10q-20 0 -38.5 7t-36 15t-35 15t-35.5 7q-23 0 -39.5 -12.5t-21.5 -30.5q-11 1 -25 9.5
t-20 18.5q9 37 38 64.5t82 27.5q25 0 43.5 -6.5t34.5 -15t31.5 -15t35.5 -6.5q22 0 36.5 13t18.5 30z" />
    <glyph glyph-name="Odieresis" unicode="&#xd6;" horiz-adv-x="721" 
d="M229 874q28 0 44.5 -14t16.5 -40q0 -28 -16.5 -43t-44.5 -15q-62 0 -62 58q0 25 17 39.5t45 14.5zM510 874q28 0 44.5 -14t16.5 -40q0 -28 -16.5 -43t-44.5 -15q-62 0 -62 58q0 25 17 39.5t45 14.5zM362 714q70 0 128 -23.5t99.5 -69t64 -112t22.5 -152.5
q0 -90 -22.5 -160t-63.5 -118.5t-99 -73.5t-129 -25q-154 0 -235.5 95.5t-81.5 281.5q0 83 24 149t66.5 112.5t100.5 71t126 24.5zM144 357q0 -71 14.5 -128t42.5 -97.5t68.5 -62.5t92.5 -22q108 0 161.5 83t53.5 227q0 63 -15.5 116.5t-43.5 92t-67.5 60.5t-88.5 22
q-54 0 -94.5 -20.5t-68 -59t-41.5 -92t-14 -119.5z" />
    <glyph glyph-name="multiply" unicode="&#xd7;" 
d="M501 100q-6 -10 -22 -25.5t-26 -22.5l-168 169l-168 -169q-11 8 -26.5 23.5t-21.5 25.5l169 167l-173 171q8 9 26 21.5t31 18.5l163 -164l162 164q12 -5 30.5 -17.5t27.5 -22.5l-174 -171z" />
    <glyph glyph-name="Oslash" unicode="&#xd8;" horiz-adv-x="748" 
d="M375 714q127 0 210 -72l87 98q13 -5 30 -19.5t25 -26.5l-95 -106q30 -44 46 -101.5t16 -129.5q0 -90 -22.5 -160t-64.5 -118.5t-101 -73.5t-131 -25q-138 0 -218 74l-98 -109q-9 9 -21 28.5t-16 33.5l90 102q-59 92 -59 248q0 83 24.5 149t67.5 112.5t102 71t128 24.5z
M595 357q0 89 -31 157l-349 -390q29 -37 69 -57t91 -20q110 0 165 83t55 227zM152 357q0 -102 30 -174l346 391q-29 35 -67.5 54.5t-85.5 19.5q-55 0 -96.5 -20.5t-69.5 -59t-42.5 -92t-14.5 -119.5z" />
    <glyph glyph-name="Ugrave" unicode="&#xd9;" horiz-adv-x="704" 
d="M188 257q0 -103 43 -157.5t133 -54.5q47 0 81 16.5t56 45.5t32.5 68t10.5 84v371q-16 1 -36 3t-32 4q-3 10 -3.5 29t1.5 28h219q2 -8 2 -21q0 -9 -1 -19t-3 -16q-14 -3 -34 -5t-37 -3v-365q0 -63 -16 -115.5t-49.5 -90t-86 -58.5t-124.5 -21q-127 0 -187.5 69t-60.5 200
v379q-15 2 -38.5 4.5t-36.5 4.5q-2 4 -3.5 12t-2.5 16.5t-1.5 16.5t-0.5 12h264q2 -9 1.5 -27.5t-3.5 -28.5q-17 -3 -41.5 -5t-45.5 -3v-373zM160 843q5 9 14 19t19.5 19t21 16.5t18.5 10.5l192 -98q0 -6 -2.5 -14.5t-6 -17.5t-7.5 -17.5t-8 -13.5z" />
    <glyph glyph-name="Uacute" unicode="&#xda;" horiz-adv-x="704" 
d="M188 257q0 -103 43 -157.5t133 -54.5q47 0 81 16.5t56 45.5t32.5 68t10.5 84v371q-16 1 -36 3t-32 4q-3 10 -3.5 29t1.5 28h219q2 -8 2 -21q0 -9 -1 -19t-3 -16q-14 -3 -34 -5t-37 -3v-365q0 -63 -16 -115.5t-49.5 -90t-86 -58.5t-124.5 -21q-127 0 -187.5 69t-60.5 200
v379q-15 2 -38.5 4.5t-36.5 4.5q-2 4 -3.5 12t-2.5 16.5t-1.5 16.5t-0.5 12h264q2 -9 1.5 -27.5t-3.5 -28.5q-17 -3 -41.5 -5t-45.5 -3v-373zM321 745q-2 6 -4 15t-3.5 18.5t-2.5 19t-1 16.5l209 98q14 -12 26 -33t19 -41z" />
    <glyph glyph-name="Ucircumflex" unicode="&#xdb;" horiz-adv-x="704" 
d="M188 257q0 -103 43 -157.5t133 -54.5q47 0 81 16.5t56 45.5t32.5 68t10.5 84v371q-16 1 -36 3t-32 4q-3 10 -3.5 29t1.5 28h219q2 -8 2 -21q0 -9 -1 -19t-3 -16q-14 -3 -34 -5t-37 -3v-365q0 -63 -16 -115.5t-49.5 -90t-86 -58.5t-124.5 -21q-127 0 -187.5 69t-60.5 200
v379q-15 2 -38.5 4.5t-36.5 4.5q-2 4 -3.5 12t-2.5 16.5t-1.5 16.5t-0.5 12h264q2 -9 1.5 -27.5t-3.5 -28.5q-17 -3 -41.5 -5t-45.5 -3v-373zM429 891l126 -102q-5 -12 -16.5 -25t-24.5 -20l-142 75l-150 -80q-8 8 -13.5 27t-7.5 30l120 95h108z" />
    <glyph glyph-name="Udieresis" unicode="&#xdc;" horiz-adv-x="704" 
d="M188 257q0 -103 43 -157.5t133 -54.5q47 0 81 16.5t56 45.5t32.5 68t10.5 84v371q-16 1 -36 3t-32 4q-3 10 -3.5 29t1.5 28h219q2 -8 2 -21q0 -9 -1 -19t-3 -16q-14 -3 -34 -5t-37 -3v-365q0 -63 -16 -115.5t-49.5 -90t-86 -58.5t-124.5 -21q-127 0 -187.5 69t-60.5 200
v379q-15 2 -38.5 4.5t-36.5 4.5q-2 4 -3.5 12t-2.5 16.5t-1.5 16.5t-0.5 12h264q2 -9 1.5 -27.5t-3.5 -28.5q-17 -3 -41.5 -5t-45.5 -3v-373zM249 874q28 0 44.5 -14t16.5 -40q0 -28 -16.5 -43t-44.5 -15q-62 0 -62 58q0 25 17 39.5t45 14.5zM490 874q28 0 44.5 -14
t16.5 -40q0 -28 -16.5 -43t-44.5 -15q-62 0 -62 58q0 25 17 39.5t45 14.5z" />
    <glyph glyph-name="Yacute" unicode="&#xdd;" horiz-adv-x="602" 
d="M315 338q4 13 10.5 29.5t14.5 30.5l85 163q8 16 19.5 35t23.5 34q-16 1 -34.5 3t-32.5 5q-5 13 -7 29t-2 27h206q0 -11 -2 -28.5t-5 -28.5q-11 -2 -24 -3.5t-24 -2.5l-202 -357v-209q23 -2 49 -4t46 -6q1 -5 2 -12.5t1.5 -15.5t0.5 -15.5t-1 -11.5h-288q2 12 5.5 27.5
t7.5 25.5q15 4 41 7.5t44 5.5v206l-181 356q-11 1 -27 3.5t-27 5.5q-4 11 -6.5 28.5t-2.5 28.5h251q0 -13 -2.5 -29t-6.5 -27q-17 -3 -39.5 -5t-42.5 -3q25 -32 42 -68l80 -164q6 -13 12 -30.5t9 -29.5h7zM260 745q-2 6 -4 15t-3.5 18.5t-2.5 19t-1 16.5l209 98
q14 -12 26 -33t19 -41z" />
    <glyph glyph-name="Thorn" unicode="&#xde;" horiz-adv-x="576" 
d="M298 557q56 0 103.5 -12t82 -36t54 -60.5t19.5 -84.5q0 -58 -20.5 -99.5t-53.5 -68.5t-75 -40t-86 -13q-26 0 -54.5 2t-56.5 6v-87q23 -2 48.5 -4t45.5 -6q1 -5 2 -12t1.5 -15t0.5 -15.5t-1 -11.5h-279q1 11 4.5 26.5t7.5 26.5q14 4 37.5 7.5t40.5 5.5v564q-18 1 -38 3
t-36 4q-2 10 -3 28.5t1 28.5h257q2 -9 1 -27t-3 -28q-22 -3 -43.5 -5t-43.5 -3v-77q19 2 42.5 2.5t44.5 0.5zM211 210q24 -2 52.5 -3.5t54.5 -1.5q68 0 106 35t38 116q0 68 -49 103t-129 35q-7 0 -17 -1l-20 -1q-10 0 -19.5 -0.5t-16.5 -1.5v-280z" />
    <glyph glyph-name="germandbls" unicode="&#xdf;" horiz-adv-x="644" 
d="M117 409q-37 2 -69 8q-2 11 -2.5 30t1.5 28h72q0 140 61.5 202.5t176.5 62.5q30 0 63 -6t60.5 -20.5t45.5 -39t18 -61.5q0 -42 -22.5 -69.5t-46.5 -48.5q-20 -18 -33 -35.5t-13 -42.5q0 -21 7 -37.5t19 -29t27 -23.5t32 -22q19 -13 38 -28t34 -34.5t24 -45t9 -59.5
q0 -40 -16 -69t-41.5 -48t-59 -28.5t-67.5 -9.5q-40 0 -76 10t-68 28q-5 18 -5 43q0 20 2.5 39t7.5 30q15 0 33 -2t33 -7v-60q37 -25 81 -25q40 0 65.5 25.5t25.5 63.5q0 23 -7.5 40t-19.5 30.5t-27.5 24.5t-32.5 22q-19 12 -38 26t-34 32t-24 42.5t-9 58.5q0 23 6.5 42
t17 34.5t23 28t24.5 22.5q22 19 34.5 35t12.5 39q0 21 -9.5 35.5t-25 23.5t-34.5 13t-37 4q-83 0 -116.5 -53.5t-33.5 -156.5v-471h-165q3 25 14 45q12 5 30.5 10.5t33.5 8.5v345z" />
    <glyph glyph-name="agrave" unicode="&#xe0;" horiz-adv-x="507" 
d="M328 59q-20 -37 -57.5 -56.5t-82.5 -19.5q-27 0 -53 8t-45.5 24.5t-31.5 41.5t-12 60q0 39 15 68t40.5 48.5t59.5 29.5t71 10q24 0 49 -4.5t44 -12.5v54q0 112 -95 112q-16 0 -36 -4.5t-40 -11t-38.5 -15.5t-31.5 -18q-3 7 -4 15.5t-1 18.5q0 14 3 28t8 22
q12 7 31.5 13.5t42 11t46 7.5t43.5 3q82 0 119.5 -43.5t37.5 -146.5v-194q0 -15 3.5 -30.5t9.5 -21.5q11 0 33 3.5t36 8.5q1 -4 1 -11q0 -25 -10 -45q-17 -11 -49.5 -20t-58.5 -9q-15 9 -27.5 30.5t-14.5 45.5h-5zM326 212q-14 4 -34.5 6t-35.5 2q-59 0 -90.5 -24t-31.5 -64
q0 -42 27.5 -61t63.5 -19q29 0 57.5 13t43.5 36v111zM111 706q7 5 19 9t26 6.5t28.5 4t26.5 1.5l116 -159q-5 -2 -14.5 -5t-20 -5.5t-20.5 -4t-16 -1.5z" />
    <glyph glyph-name="aacute" unicode="&#xe1;" horiz-adv-x="507" 
d="M328 59q-20 -37 -57.5 -56.5t-82.5 -19.5q-27 0 -53 8t-45.5 24.5t-31.5 41.5t-12 60q0 39 15 68t40.5 48.5t59.5 29.5t71 10q24 0 49 -4.5t44 -12.5v54q0 112 -95 112q-16 0 -36 -4.5t-40 -11t-38.5 -15.5t-31.5 -18q-3 7 -4 15.5t-1 18.5q0 14 3 28t8 22
q12 7 31.5 13.5t42 11t46 7.5t43.5 3q82 0 119.5 -43.5t37.5 -146.5v-194q0 -15 3.5 -30.5t9.5 -21.5q11 0 33 3.5t36 8.5q1 -4 1 -11q0 -25 -10 -45q-17 -11 -49.5 -20t-58.5 -9q-15 9 -27.5 30.5t-14.5 45.5h-5zM326 212q-14 4 -34.5 6t-35.5 2q-59 0 -90.5 -24t-31.5 -64
q0 -42 27.5 -61t63.5 -19q29 0 57.5 13t43.5 36v111zM231 539q-6 2 -13 7t-14.5 11t-14 13t-9.5 12l112 156q8 0 20 -3.5t25 -8.5t24.5 -11t18.5 -12z" />
    <glyph glyph-name="acircumflex" unicode="&#xe2;" horiz-adv-x="507" 
d="M328 59q-20 -37 -57.5 -56.5t-82.5 -19.5q-27 0 -53 8t-45.5 24.5t-31.5 41.5t-12 60q0 39 15 68t40.5 48.5t59.5 29.5t71 10q24 0 49 -4.5t44 -12.5v54q0 112 -95 112q-16 0 -36 -4.5t-40 -11t-38.5 -15.5t-31.5 -18q-3 7 -4 15.5t-1 18.5q0 14 3 28t8 22
q12 7 31.5 13.5t42 11t46 7.5t43.5 3q82 0 119.5 -43.5t37.5 -146.5v-194q0 -15 3.5 -30.5t9.5 -21.5q11 0 33 3.5t36 8.5q1 -4 1 -11q0 -25 -10 -45q-17 -11 -49.5 -20t-58.5 -9q-15 9 -27.5 30.5t-14.5 45.5h-5zM326 212q-14 4 -34.5 6t-35.5 2q-59 0 -90.5 -24t-31.5 -64
q0 -42 27.5 -61t63.5 -19q29 0 57.5 13t43.5 36v111zM284 719l114 -136q-8 -11 -24.5 -24t-32.5 -16l-100 100l-107 -104q-6 3 -12 9t-11.5 13.5t-10 15t-6.5 13.5l106 125z" />
    <glyph glyph-name="atilde" unicode="&#xe3;" horiz-adv-x="507" 
d="M328 59q-20 -37 -57.5 -56.5t-82.5 -19.5q-27 0 -53 8t-45.5 24.5t-31.5 41.5t-12 60q0 39 15 68t40.5 48.5t59.5 29.5t71 10q24 0 49 -4.5t44 -12.5v54q0 112 -95 112q-16 0 -36 -4.5t-40 -11t-38.5 -15.5t-31.5 -18q-3 7 -4 15.5t-1 18.5q0 14 3 28t8 22
q12 7 31.5 13.5t42 11t46 7.5t43.5 3q82 0 119.5 -43.5t37.5 -146.5v-194q0 -15 3.5 -30.5t9.5 -21.5q11 0 33 3.5t36 8.5q1 -4 1 -11q0 -25 -10 -45q-17 -11 -49.5 -20t-58.5 -9q-15 9 -27.5 30.5t-14.5 45.5h-5zM326 212q-14 4 -34.5 6t-35.5 2q-59 0 -90.5 -24t-31.5 -64
q0 -42 27.5 -61t63.5 -19q29 0 57.5 13t43.5 36v111zM363 677q10 0 20 -1.5t19 -6.5q-1 -19 -7.5 -38t-18.5 -34.5t-30 -25t-43 -9.5q-17 0 -33 6.5t-31 15t-29.5 15t-29.5 6.5q-20 0 -34 -12.5t-18 -29.5q-25 3 -37 22q8 40 31.5 66.5t70.5 26.5q21 0 36.5 -6.5t29.5 -14
t27 -14t30 -6.5q18 0 31 11.5t16 28.5z" />
    <glyph glyph-name="adieresis" unicode="&#xe4;" horiz-adv-x="507" 
d="M328 59q-20 -37 -57.5 -56.5t-82.5 -19.5q-27 0 -53 8t-45.5 24.5t-31.5 41.5t-12 60q0 39 15 68t40.5 48.5t59.5 29.5t71 10q24 0 49 -4.5t44 -12.5v54q0 112 -95 112q-16 0 -36 -4.5t-40 -11t-38.5 -15.5t-31.5 -18q-3 7 -4 15.5t-1 18.5q0 14 3 28t8 22
q12 7 31.5 13.5t42 11t46 7.5t43.5 3q82 0 119.5 -43.5t37.5 -146.5v-194q0 -15 3.5 -30.5t9.5 -21.5q11 0 33 3.5t36 8.5q1 -4 1 -11q0 -25 -10 -45q-17 -11 -49.5 -20t-58.5 -9q-15 9 -27.5 30.5t-14.5 45.5h-5zM326 212q-14 4 -34.5 6t-35.5 2q-59 0 -90.5 -24t-31.5 -64
q0 -42 27.5 -61t63.5 -19q29 0 57.5 13t43.5 36v111zM141 672q23 0 37.5 -13t14.5 -37q0 -26 -14.5 -40t-37.5 -14q-53 0 -53 54q0 23 15 36.5t38 13.5zM348 672q23 0 37.5 -13t14.5 -37q0 -26 -14.5 -40t-37.5 -14q-53 0 -53 54q0 23 15 36.5t38 13.5z" />
    <glyph glyph-name="aring" unicode="&#xe5;" horiz-adv-x="507" 
d="M328 59q-20 -37 -57.5 -56.5t-82.5 -19.5q-27 0 -53 8t-45.5 24.5t-31.5 41.5t-12 60q0 39 15 68t40.5 48.5t59.5 29.5t71 10q24 0 49 -4.5t44 -12.5v54q0 112 -95 112q-16 0 -36 -4.5t-40 -11t-38.5 -15.5t-31.5 -18q-3 7 -4 15.5t-1 18.5q0 14 3 28t8 22
q12 7 31.5 13.5t42 11t46 7.5t43.5 3q82 0 119.5 -43.5t37.5 -146.5v-194q0 -15 3.5 -30.5t9.5 -21.5q11 0 33 3.5t36 8.5q1 -4 1 -11q0 -25 -10 -45q-17 -11 -49.5 -20t-58.5 -9q-15 9 -27.5 30.5t-14.5 45.5h-5zM326 212q-14 4 -34.5 6t-35.5 2q-59 0 -90.5 -24t-31.5 -64
q0 -42 27.5 -61t63.5 -19q29 0 57.5 13t43.5 36v111zM247 746q48 0 77.5 -25.5t29.5 -71.5q0 -51 -29.5 -77.5t-77.5 -26.5q-111 0 -111 104q0 44 30.5 70.5t80.5 26.5zM248 703q-25 0 -40 -14t-15 -40q0 -60 55 -60q23 0 36.5 15t13.5 45q0 26 -13.5 40t-36.5 14z" />
    <glyph glyph-name="ae" unicode="&#xe6;" horiz-adv-x="765" 
d="M410 226q2 -81 46.5 -127t116.5 -46q16 0 34.5 2.5t37.5 6.5t36.5 9t31.5 10q2 -11 -2 -28.5t-11 -28.5q-27 -15 -69 -28t-89 -13q-66 0 -111.5 28t-64.5 71h-5q-6 -16 -20 -33.5t-34.5 -32t-47.5 -24t-60 -9.5q-68 0 -110.5 33t-42.5 101q0 37 15.5 66.5t41 49t59.5 30
t70 10.5q24 0 49 -4.5t44 -12.5v54q0 112 -95 112q-16 0 -36 -4.5t-40 -11t-38.5 -15.5t-31.5 -18q-3 7 -4 15.5t-1 18.5q0 14 3 28t8 22q12 7 31.5 13.5t42 11t46 7.5t43.5 3q62 0 92.5 -21.5t39.5 -55.5h5q15 32 59 54.5t99 22.5q45 0 77.5 -15.5t53 -43.5t30.5 -67.5
t10 -86.5q0 -26 -3 -53h-306zM234 52q40 0 68.5 19.5t42.5 41.5q-9 23 -14.5 47.5t-6.5 52.5q-14 3 -34 5t-34 2q-58 0 -90 -25t-32 -63q0 -42 27.5 -61t72.5 -19zM630 284q3 26 0 53t-14 49.5t-31.5 36.5t-51.5 14q-54 0 -86 -42t-37 -111h220z" />
    <glyph glyph-name="ccedilla" unicode="&#xe7;" horiz-adv-x="466" 
d="M247 -16q-45 3 -82 22t-62.5 51.5t-39.5 75.5t-14 94q0 58 17.5 106.5t50 84t77.5 55t100 19.5q39 0 72 -9.5t59 -26.5q3 -20 3 -39q0 -21 -3.5 -42.5t-11.5 -39.5q-14 0 -32.5 3.5t-30.5 9.5v71q-30 15 -58 15q-65 0 -106.5 -45t-41.5 -143q0 -50 11.5 -86.5t32.5 -60.5
t49.5 -35.5t62.5 -11.5q13 0 29.5 2t33 5.5t32.5 7.5t28 9q1 -11 -3 -28.5t-11 -28.5q-19 -11 -46 -19.5t-56 -12.5l-9 -46q23 -7 43 -25t20 -45q0 -20 -10.5 -37t-28 -30.5t-39.5 -22t-44 -11.5q-20 16 -33 37q29 6 49.5 22t20.5 38q0 20 -15.5 35t-38.5 21z" />
    <glyph glyph-name="egrave" unicode="&#xe8;" horiz-adv-x="497" 
d="M142 226q2 -81 47 -127t116 -46q16 0 34.5 2.5t37.5 6.5t36.5 9t31.5 10q2 -11 -2 -28.5t-11 -28.5q-27 -15 -69 -28t-89 -13q-54 0 -95.5 19t-70.5 52t-44 77.5t-15 96.5q0 55 16.5 103t46.5 84t72.5 56.5t95.5 20.5q45 0 77.5 -15.5t53 -43.5t30.5 -67.5t10 -86.5
q0 -26 -3 -53h-306zM362 284q3 26 0 53t-14 49.5t-31.5 36.5t-51.5 14q-54 0 -86 -42t-37 -111h220zM140 706q7 5 19 9t26 6.5t28.5 4t26.5 1.5l116 -159q-5 -2 -14.5 -5t-20 -5.5t-20.5 -4t-16 -1.5z" />
    <glyph glyph-name="eacute" unicode="&#xe9;" horiz-adv-x="497" 
d="M142 226q2 -81 47 -127t116 -46q16 0 34.5 2.5t37.5 6.5t36.5 9t31.5 10q2 -11 -2 -28.5t-11 -28.5q-27 -15 -69 -28t-89 -13q-54 0 -95.5 19t-70.5 52t-44 77.5t-15 96.5q0 55 16.5 103t46.5 84t72.5 56.5t95.5 20.5q45 0 77.5 -15.5t53 -43.5t30.5 -67.5t10 -86.5
q0 -26 -3 -53h-306zM362 284q3 26 0 53t-14 49.5t-31.5 36.5t-51.5 14q-54 0 -86 -42t-37 -111h220zM256 539q-6 2 -13 7t-14.5 11t-14 13t-9.5 12l112 156q8 0 20 -3.5t25 -8.5t24.5 -11t18.5 -12z" />
    <glyph glyph-name="ecircumflex" unicode="&#xea;" horiz-adv-x="497" 
d="M142 226q2 -81 47 -127t116 -46q16 0 34.5 2.5t37.5 6.5t36.5 9t31.5 10q2 -11 -2 -28.5t-11 -28.5q-27 -15 -69 -28t-89 -13q-54 0 -95.5 19t-70.5 52t-44 77.5t-15 96.5q0 55 16.5 103t46.5 84t72.5 56.5t95.5 20.5q45 0 77.5 -15.5t53 -43.5t30.5 -67.5t10 -86.5
q0 -26 -3 -53h-306zM362 284q3 26 0 53t-14 49.5t-31.5 36.5t-51.5 14q-54 0 -86 -42t-37 -111h220zM312 719l114 -136q-8 -11 -24.5 -24t-32.5 -16l-100 100l-107 -104q-6 3 -12 9t-11.5 13.5t-10 15t-6.5 13.5l106 125z" />
    <glyph glyph-name="edieresis" unicode="&#xeb;" horiz-adv-x="497" 
d="M142 226q2 -81 47 -127t116 -46q16 0 34.5 2.5t37.5 6.5t36.5 9t31.5 10q2 -11 -2 -28.5t-11 -28.5q-27 -15 -69 -28t-89 -13q-54 0 -95.5 19t-70.5 52t-44 77.5t-15 96.5q0 55 16.5 103t46.5 84t72.5 56.5t95.5 20.5q45 0 77.5 -15.5t53 -43.5t30.5 -67.5t10 -86.5
q0 -26 -3 -53h-306zM362 284q3 26 0 53t-14 49.5t-31.5 36.5t-51.5 14q-54 0 -86 -42t-37 -111h220zM166 672q23 0 37.5 -13t14.5 -37q0 -26 -14.5 -40t-37.5 -14q-53 0 -53 54q0 23 15 36.5t38 13.5zM373 672q23 0 37.5 -13t14.5 -37q0 -26 -14.5 -40t-37.5 -14
q-53 0 -53 54q0 23 15 36.5t38 13.5z" />
    <glyph glyph-name="igrave" unicode="&#xec;" horiz-adv-x="305" 
d="M42 419q1 13 5.5 27.5t12.5 25.5q17 6 41 10t49 4q29 0 52 -6v-418q19 -2 41 -5.5t38 -8.5q3 -12 3 -31v-7q0 -4 -1 -10h-246q3 25 14 45q12 5 30.5 10.5t33.5 8.5v355h-73zM19 706q7 5 19 9t26 6.5t28.5 4t26.5 1.5l116 -159q-5 -2 -14.5 -5t-20 -5.5t-20.5 -4t-16 -1.5
z" />
    <glyph glyph-name="iacute" unicode="&#xed;" horiz-adv-x="305" 
d="M42 419q1 13 5.5 27.5t12.5 25.5q17 6 41 10t49 4q29 0 52 -6v-418q19 -2 41 -5.5t38 -8.5q3 -12 3 -31v-7q0 -4 -1 -10h-246q3 25 14 45q12 5 30.5 10.5t33.5 8.5v355h-73zM146 539q-6 2 -13 7t-14.5 11t-14 13t-9.5 12l112 156q8 0 20 -3.5t25 -8.5t24.5 -11t18.5 -12z
" />
    <glyph glyph-name="icircumflex" unicode="&#xee;" horiz-adv-x="305" 
d="M42 419q1 13 5.5 27.5t12.5 25.5q17 6 41 10t49 4q29 0 52 -6v-418q19 -2 41 -5.5t38 -8.5q3 -12 3 -31v-7q0 -4 -1 -10h-246q3 25 14 45q12 5 30.5 10.5t33.5 8.5v355h-73zM198 719l114 -136q-8 -11 -24.5 -24t-32.5 -16l-100 100l-107 -104q-6 3 -12 9t-11.5 13.5
t-10 15t-6.5 13.5l106 125z" />
    <glyph glyph-name="idieresis" unicode="&#xef;" horiz-adv-x="305" 
d="M42 419q1 13 5.5 27.5t12.5 25.5q17 6 41 10t49 4q29 0 52 -6v-418q19 -2 41 -5.5t38 -8.5q3 -12 3 -31v-7q0 -4 -1 -10h-246q3 25 14 45q12 5 30.5 10.5t33.5 8.5v355h-73zM67 672q23 0 37.5 -13t14.5 -37q0 -26 -14.5 -40t-37.5 -14q-53 0 -53 54q0 23 15 36.5t38 13.5
zM244 672q23 0 37.5 -13t14.5 -37q0 -26 -14.5 -40t-37.5 -14q-53 0 -53 54q0 23 15 36.5t38 13.5z" />
    <glyph glyph-name="eth" unicode="&#xf0;" horiz-adv-x="559" 
d="M193 513q-6 12 -9 30t-4 29l78 46q-37 23 -75 34t-73 19q5 15 16 31t21 26q47 -9 94 -25.5t91 -45.5l103 60q8 -8 18 -23t15 -25l-87 -50q52 -49 85 -126t33 -193q0 -150 -57.5 -233.5t-171.5 -83.5q-98 0 -156 61t-58 176q0 54 14 100t41.5 79.5t67.5 53t91 19.5
q48 0 80 -16t47 -35h5q-15 52 -39.5 92.5t-53.5 66.5zM291 408q-72 0 -110 -48t-38 -127q0 -91 33.5 -140t94.5 -49q37 0 64 17.5t45 50t26.5 77.5t8.5 100q0 20 -1.5 39t-3.5 36q-25 21 -53.5 32.5t-65.5 11.5z" />
    <glyph glyph-name="ntilde" unicode="&#xf1;" horiz-adv-x="605" 
d="M202 61q19 -2 39 -5t34 -8q2 -9 3 -23t-1 -25h-240q3 25 14 45q12 5 30.5 10.5t33.5 8.5v355h-73q1 13 5.5 27.5t12.5 25.5q16 6 38 10t45 4q26 0 47 -6v-73h10q7 13 20 27.5t33.5 27.5t47 21.5t60.5 8.5q30 0 57 -6.5t47.5 -25.5t32.5 -54.5t12 -93.5q0 -124 -6 -251
q20 -2 43 -5t38 -8q3 -12 3 -31v-9q0 -3 -1 -8h-237q3 25 14 45q11 5 27.5 10.5t29.5 8.5v234q0 58 -20.5 92t-73.5 34q-19 0 -38 -6t-35.5 -15.5t-30 -21t-21.5 -21.5v-299zM443 677q10 0 20 -1.5t19 -6.5q-1 -19 -7.5 -38t-18.5 -34.5t-30 -25t-43 -9.5q-17 0 -33 6.5
t-31 15t-29.5 15t-29.5 6.5q-20 0 -34 -12.5t-18 -29.5q-25 3 -37 22q8 40 31.5 66.5t70.5 26.5q21 0 36.5 -6.5t29.5 -14t27 -14t30 -6.5q18 0 31 11.5t16 28.5z" />
    <glyph glyph-name="ograve" unicode="&#xf2;" horiz-adv-x="553" 
d="M277 492q51 0 93 -16t71.5 -47.5t46 -77.5t16.5 -106q0 -126 -61.5 -194t-165.5 -68q-110 0 -169 66t-59 196q0 57 17.5 103t48 78t72 49t90.5 17zM140 245q0 -92 36.5 -147t100.5 -55q69 0 102.5 54t33.5 148q0 40 -9.5 74.5t-27.5 59.5t-43 39.5t-56 14.5
q-67 0 -102 -51.5t-35 -136.5zM151 706q7 5 19 9t26 6.5t28.5 4t26.5 1.5l116 -159q-5 -2 -14.5 -5t-20 -5.5t-20.5 -4t-16 -1.5z" />
    <glyph glyph-name="oacute" unicode="&#xf3;" horiz-adv-x="553" 
d="M277 492q51 0 93 -16t71.5 -47.5t46 -77.5t16.5 -106q0 -126 -61.5 -194t-165.5 -68q-110 0 -169 66t-59 196q0 57 17.5 103t48 78t72 49t90.5 17zM140 245q0 -92 36.5 -147t100.5 -55q69 0 102.5 54t33.5 148q0 40 -9.5 74.5t-27.5 59.5t-43 39.5t-56 14.5
q-67 0 -102 -51.5t-35 -136.5zM256 539q-6 2 -13 7t-14.5 11t-14 13t-9.5 12l112 156q8 0 20 -3.5t25 -8.5t24.5 -11t18.5 -12z" />
    <glyph glyph-name="ocircumflex" unicode="&#xf4;" horiz-adv-x="553" 
d="M277 492q51 0 93 -16t71.5 -47.5t46 -77.5t16.5 -106q0 -126 -61.5 -194t-165.5 -68q-110 0 -169 66t-59 196q0 57 17.5 103t48 78t72 49t90.5 17zM140 245q0 -92 36.5 -147t100.5 -55q69 0 102.5 54t33.5 148q0 40 -9.5 74.5t-27.5 59.5t-43 39.5t-56 14.5
q-67 0 -102 -51.5t-35 -136.5zM323 719l114 -136q-8 -11 -24.5 -24t-32.5 -16l-100 100l-107 -104q-6 3 -12 9t-11.5 13.5t-10 15t-6.5 13.5l106 125z" />
    <glyph glyph-name="otilde" unicode="&#xf5;" horiz-adv-x="553" 
d="M277 492q51 0 93 -16t71.5 -47.5t46 -77.5t16.5 -106q0 -126 -61.5 -194t-165.5 -68q-110 0 -169 66t-59 196q0 57 17.5 103t48 78t72 49t90.5 17zM140 245q0 -92 36.5 -147t100.5 -55q69 0 102.5 54t33.5 148q0 40 -9.5 74.5t-27.5 59.5t-43 39.5t-56 14.5
q-67 0 -102 -51.5t-35 -136.5zM394 677q10 0 20 -1.5t19 -6.5q-1 -19 -7.5 -38t-18.5 -34.5t-30 -25t-43 -9.5q-17 0 -33 6.5t-31 15t-29.5 15t-29.5 6.5q-20 0 -34 -12.5t-18 -29.5q-25 3 -37 22q8 40 31.5 66.5t70.5 26.5q21 0 36.5 -6.5t29.5 -14t27 -14t30 -6.5
q18 0 31 11.5t16 28.5z" />
    <glyph glyph-name="odieresis" unicode="&#xf6;" horiz-adv-x="553" 
d="M155 672q23 0 37.5 -13t14.5 -37q0 -26 -14.5 -40t-37.5 -14q-53 0 -53 54q0 23 15 36.5t38 13.5zM402 672q23 0 37.5 -13t14.5 -37q0 -26 -14.5 -40t-37.5 -14q-53 0 -53 54q0 23 15 36.5t38 13.5zM277 492q51 0 93 -16t71.5 -47.5t46 -77.5t16.5 -106
q0 -126 -61.5 -194t-165.5 -68q-110 0 -169 66t-59 196q0 57 17.5 103t48 78t72 49t90.5 17zM140 245q0 -92 36.5 -147t100.5 -55q69 0 102.5 54t33.5 148q0 40 -9.5 74.5t-27.5 59.5t-43 39.5t-56 14.5q-67 0 -102 -51.5t-35 -136.5z" />
    <glyph glyph-name="divide" unicode="&#xf7;" 
d="M53 236q0 14 3 35t6 32h448q2 -8 3 -20.5t1 -26.5v-10q0 -5 -1 -10h-460zM283 125q24 0 39.5 -14t15.5 -40q0 -28 -15.5 -43t-39.5 -15q-56 0 -56 58q0 24 16 39t40 15zM283 525q24 0 39.5 -14t15.5 -40q0 -28 -15.5 -43t-39.5 -15q-56 0 -56 58q0 24 16 39t40 15z" />
    <glyph glyph-name="oslash" unicode="&#xf8;" horiz-adv-x="559" 
d="M454 417q26 -32 39.5 -75t13.5 -97q0 -126 -61.5 -194t-165.5 -68q-41 0 -75 9.5t-60 26.5l-61 -78q-9 8 -20 22.5t-16 26.5l54 70q-50 65 -50 185q0 57 17.5 103t48 78t72 49t90.5 17q77 0 131 -36l51 66q11 -5 25 -15.5t22 -19.5zM419 245q0 30 -6 57.5t-15 47.5
l-209 -269q36 -38 91 -38q70 0 104.5 54t34.5 148zM140 245q0 -67 20 -116l207 267q-16 17 -37.5 27t-49.5 10q-68 0 -104 -51.5t-36 -136.5z" />
    <glyph glyph-name="ugrave" unicode="&#xf9;" horiz-adv-x="598" 
d="M398 419h-72q1 13 5.5 27.5t12.5 25.5q17 7 41 10.5t49 3.5q28 0 51 -6v-348q0 -17 1.5 -35.5t6.5 -35.5h76q1 -3 1 -7v-6q0 -10 -2.5 -21t-5.5 -19q-14 -5 -32.5 -8.5t-38 -6t-37.5 -4t-29 -1.5q-8 15 -13 36.5t-7 42.5h-5q-7 -13 -20 -27.5t-33 -27t-46.5 -21
t-59.5 -8.5q-29 0 -56 6.5t-47 25.5t-32 54.5t-12 93.5q0 63 1 128t4 128h-76q2 12 6 26.5t12 25.5q17 7 41.5 11t49.5 4q28 0 51 -6v-303q0 -57 20.5 -91t71.5 -34q19 0 37.5 5.5t35 14.5t29.5 19.5t21 21.5v306zM153 706q7 5 19 9t26 6.5t28.5 4t26.5 1.5l116 -159
q-5 -2 -14.5 -5t-20 -5.5t-20.5 -4t-16 -1.5z" />
    <glyph glyph-name="uacute" unicode="&#xfa;" horiz-adv-x="598" 
d="M398 419h-72q1 13 5.5 27.5t12.5 25.5q17 7 41 10.5t49 3.5q28 0 51 -6v-348q0 -17 1.5 -35.5t6.5 -35.5h76q1 -3 1 -7v-6q0 -10 -2.5 -21t-5.5 -19q-14 -5 -32.5 -8.5t-38 -6t-37.5 -4t-29 -1.5q-8 15 -13 36.5t-7 42.5h-5q-7 -13 -20 -27.5t-33 -27t-46.5 -21
t-59.5 -8.5q-29 0 -56 6.5t-47 25.5t-32 54.5t-12 93.5q0 63 1 128t4 128h-76q2 12 6 26.5t12 25.5q17 7 41.5 11t49.5 4q28 0 51 -6v-303q0 -57 20.5 -91t71.5 -34q19 0 37.5 5.5t35 14.5t29.5 19.5t21 21.5v306zM263 539q-6 2 -13 7t-14.5 11t-14 13t-9.5 12l112 156
q8 0 20 -3.5t25 -8.5t24.5 -11t18.5 -12z" />
    <glyph glyph-name="ucircumflex" unicode="&#xfb;" horiz-adv-x="598" 
d="M398 419h-72q1 13 5.5 27.5t12.5 25.5q17 7 41 10.5t49 3.5q28 0 51 -6v-348q0 -17 1.5 -35.5t6.5 -35.5h76q1 -3 1 -7v-6q0 -10 -2.5 -21t-5.5 -19q-14 -5 -32.5 -8.5t-38 -6t-37.5 -4t-29 -1.5q-8 15 -13 36.5t-7 42.5h-5q-7 -13 -20 -27.5t-33 -27t-46.5 -21
t-59.5 -8.5q-29 0 -56 6.5t-47 25.5t-32 54.5t-12 93.5q0 63 1 128t4 128h-76q2 12 6 26.5t12 25.5q17 7 41.5 11t49.5 4q28 0 51 -6v-303q0 -57 20.5 -91t71.5 -34q19 0 37.5 5.5t35 14.5t29.5 19.5t21 21.5v306zM326 719l114 -136q-8 -11 -24.5 -24t-32.5 -16l-100 100
l-107 -104q-6 3 -12 9t-11.5 13.5t-10 15t-6.5 13.5l106 125z" />
    <glyph glyph-name="udieresis" unicode="&#xfc;" horiz-adv-x="598" 
d="M398 419h-72q1 13 5.5 27.5t12.5 25.5q17 7 41 10.5t49 3.5q28 0 51 -6v-348q0 -17 1.5 -35.5t6.5 -35.5h76q1 -3 1 -7v-6q0 -10 -2.5 -21t-5.5 -19q-14 -5 -32.5 -8.5t-38 -6t-37.5 -4t-29 -1.5q-8 15 -13 36.5t-7 42.5h-5q-7 -13 -20 -27.5t-33 -27t-46.5 -21
t-59.5 -8.5q-29 0 -56 6.5t-47 25.5t-32 54.5t-12 93.5q0 63 1 128t4 128h-76q2 12 6 26.5t12 25.5q17 7 41.5 11t49.5 4q28 0 51 -6v-303q0 -57 20.5 -91t71.5 -34q19 0 37.5 5.5t35 14.5t29.5 19.5t21 21.5v306zM179 672q23 0 37.5 -13t14.5 -37q0 -26 -14.5 -40
t-37.5 -14q-53 0 -53 54q0 23 15 36.5t38 13.5zM386 672q23 0 37.5 -13t14.5 -37q0 -26 -14.5 -40t-37.5 -14q-53 0 -53 54q0 23 15 36.5t38 13.5z" />
    <glyph glyph-name="yacute" unicode="&#xfd;" horiz-adv-x="519" 
d="M276 55q2 9 5.5 22.5t7 27.5t7.5 27.5t7 22.5l50 159q3 11 7.5 24t9.5 26.5t10 25.5t10 21q-14 2 -31.5 5t-28.5 8q-8 24 -8 51h191q0 -11 -3 -27.5t-7 -27.5q-9 -3 -23 -5.5t-24 -3.5l-57 -166q-11 -31 -24.5 -70.5t-28.5 -80t-30.5 -78.5t-29.5 -66q-35 -72 -84.5 -119
t-117.5 -71q-11 11 -23 31.5t-14 42.5q68 19 113.5 58t67.5 89l-163 425q-14 3 -27.5 7.5t-24.5 9.5q-4 11 -6.5 25.5t-3.5 26.5h226q0 -12 -2.5 -26.5t-5.5 -25.5q-14 -4 -35 -7t-38 -5q9 -17 18.5 -40t17.5 -44l63 -175q3 -8 6 -21t6 -26.5t5.5 -27t4.5 -22.5h7zM250 539
q-6 2 -13 7t-14.5 11t-14 13t-9.5 12l112 156q8 0 20 -3.5t25 -8.5t24.5 -11t18.5 -12z" />
    <glyph glyph-name="thorn" unicode="&#xfe;" horiz-adv-x="559" 
d="M179 420q17 29 50 50.5t95 21.5q33 0 66.5 -12t60 -40.5t43 -74.5t16.5 -114q0 -60 -18 -109.5t-51 -85t-78.5 -54.5t-100.5 -19q-21 0 -46.5 6.5t-41.5 17.5v-174q10 -1 23 -3t26.5 -4.5t25.5 -5t20 -5.5q2 -9 3 -22t-1 -24h-262q3 25 14 45q12 5 30.5 10.5t33.5 8.5
v831h-72q1 13 5.5 27.5t12.5 25.5q18 6 41.5 10t48.5 4q28 0 51 -6v-188q0 -29 -1.5 -58.5t-3.5 -58.5h10zM173 57q18 -6 39.5 -10t44.5 -4q84 0 123.5 54t39.5 141q0 91 -35 139.5t-92 48.5q-45 0 -74.5 -19t-45.5 -42v-308z" />
    <glyph glyph-name="ydieresis" unicode="&#xff;" horiz-adv-x="519" 
d="M276 55q2 9 5.5 22.5t7 27.5t7.5 27.5t7 22.5l50 159q3 11 7.5 24t9.5 26.5t10 25.5t10 21q-14 2 -31.5 5t-28.5 8q-8 24 -8 51h191q0 -11 -3 -27.5t-7 -27.5q-9 -3 -23 -5.5t-24 -3.5l-57 -166q-11 -31 -24.5 -70.5t-28.5 -80t-30.5 -78.5t-29.5 -66q-35 -72 -84.5 -119
t-117.5 -71q-11 11 -23 31.5t-14 42.5q68 19 113.5 58t67.5 89l-163 425q-14 3 -27.5 7.5t-24.5 9.5q-4 11 -6.5 25.5t-3.5 26.5h226q0 -12 -2.5 -26.5t-5.5 -25.5q-14 -4 -35 -7t-38 -5q9 -17 18.5 -40t17.5 -44l63 -175q3 -8 6 -21t6 -26.5t5.5 -27t4.5 -22.5h7zM159 672
q23 0 37.5 -13t14.5 -37q0 -26 -14.5 -40t-37.5 -14q-53 0 -53 54q0 23 15 36.5t38 13.5zM366 672q23 0 37.5 -13t14.5 -37q0 -26 -14.5 -40t-37.5 -14q-53 0 -53 54q0 23 15 36.5t38 13.5z" />
    <glyph glyph-name="dotlessi" unicode="&#x131;" horiz-adv-x="305" 
d="M42 419q1 13 5.5 27.5t12.5 25.5q17 6 41 10t49 4q29 0 52 -6v-418q19 -2 41 -5.5t38 -8.5q3 -12 3 -31v-7q0 -4 -1 -10h-246q3 25 14 45q12 5 30.5 10.5t33.5 8.5v355h-73z" />
    <glyph glyph-name="IJ" unicode="&#x132;" horiz-adv-x="671" 
d="M29 0q1 11 4.5 26.5t7.5 26.5q14 4 37.5 7.5t40.5 5.5v564q-17 1 -39 3t-35 4q-2 10 -3 28.5t1 28.5h252q2 -9 1.5 -27.5t-3.5 -28.5q-17 -3 -39.5 -5t-42.5 -3v-565q22 -2 46 -4t43 -6q2 -8 3 -18t1 -21v-8q0 -3 -1 -8h-274zM647 694q2 -8 2 -21q0 -9 -1 -19t-3 -16
q-17 -3 -39.5 -5t-42.5 -3v-404q0 -142 -59.5 -245.5t-177.5 -159.5q-8 7 -16.5 22t-10.5 26q93 55 132.5 139.5t39.5 198.5v423q-21 1 -47.5 3t-42.5 4q-2 10 -3 28.5t1 28.5h268z" />
    <glyph glyph-name="ij" unicode="&#x133;" horiz-adv-x="574" 
d="M42 419q1 13 5.5 27.5t12.5 25.5q17 6 41 10t49 4q29 0 52 -6v-418q19 -2 41 -5.5t38 -8.5q3 -12 3 -31v-9q0 -3 -1 -8h-246q3 25 14 45q12 5 30.5 10.5t33.5 8.5v355h-73zM161 707q25 0 40.5 -14.5t15.5 -40.5q0 -29 -15.5 -44t-40.5 -15q-57 0 -57 59q0 25 16 40t41 15
zM334 419q1 13 5.5 27.5t11.5 25.5q17 6 41.5 10t49.5 4q29 0 52 -6v-410q0 -54 -13 -98.5t-34.5 -82t-49 -69.5t-55.5 -59q-14 5 -27 15.5t-21 23.5q20 21 40 46t36.5 55.5t26.5 66t10 77.5v374h-73zM453 707q25 0 40.5 -14.5t15.5 -40.5q0 -29 -15.5 -44t-40.5 -15
q-57 0 -57 59q0 25 16 40t41 15z" />
    <glyph glyph-name="Lslash" unicode="&#x141;" horiz-adv-x="571" 
d="M135 341v289q-17 1 -39 3t-35 4q-2 10 -3 28.5t1 28.5h262q2 -9 1.5 -27.5t-3.5 -28.5q-19 -3 -44.5 -5t-47.5 -3v-244l169 104q3 -4 8 -11t9.5 -15t8 -15.5t5.5 -12.5l-200 -124v-248h248q2 23 4.5 52.5t6.5 47.5q11 4 31 5.5t34 1.5v-171h-506q1 11 4.5 26.5t7.5 26.5
q14 4 37.5 7.5t40.5 5.5v201l-80 -49q-5 11 -9.5 31.5t-4.5 33.5z" />
    <glyph glyph-name="lslash" unicode="&#x142;" horiz-adv-x="329" 
d="M123 355v309h-72q1 13 5.5 27.5t12.5 25.5q17 6 41 10t49 4q28 0 51 -6v-328l69 43q6 -8 14.5 -22.5t11.5 -23.5l-95 -60v-272q19 -2 42 -5.5t39 -8.5q2 -9 3 -23t-1 -25h-248q3 25 14 45q12 5 30.5 10.5t33.5 8.5v228l-80 -50q-5 9 -8.5 26.5t-4.5 28.5z" />
    <glyph glyph-name="OE" unicode="&#x152;" horiz-adv-x="945" 
d="M504 0q-35 -11 -67 -14t-56 -3q-160 0 -243.5 93.5t-83.5 280.5q0 83 25 148.5t68.5 111t103.5 69.5t130 24q29 0 60.5 -2.5t62.5 -13.5h392v-147q-13 0 -28.5 2t-27.5 5q-4 15 -7.5 39.5t-4.5 39.5h-232v-254h183q1 11 4 27.5t6 26.5q10 3 27 5.5t30 2.5v-184
q-13 -2 -29.5 -0.5t-28.5 4.5q-3 14 -5.5 30t-3.5 28h-183v-256h236q2 20 5 44.5t7 41.5q11 3 29.5 5t32.5 2v-156h-402zM381 47q26 0 59.5 3t63.5 16v550q-29 17 -60.5 24.5t-62.5 7.5q-56 0 -99 -20.5t-71.5 -59t-43 -92t-14.5 -119.5q0 -72 15 -129t44.5 -97.5t72 -62
t96.5 -21.5z" />
    <glyph glyph-name="oe" unicode="&#x153;" horiz-adv-x="857" 
d="M502 226q2 -81 47.5 -127t116.5 -46q16 0 34.5 2.5t37.5 6.5t36.5 9t31.5 10q2 -11 -2 -28.5t-11 -28.5q-27 -15 -69 -28t-89 -13q-37 0 -67 9t-52 23.5t-36.5 33t-20.5 38.5h-5q-6 -20 -20.5 -38.5t-36.5 -33t-52 -23.5t-68 -9q-110 0 -169 66t-59 196q0 57 17.5 103
t48 78t72 49t90.5 17q37 0 68 -9t54 -23t38 -32.5t22 -37.5h5q8 18 23.5 36.5t38 33t51 23.5t63.5 9q45 0 77.5 -15.5t53 -43.5t30.5 -67.5t10 -86.5q0 -26 -3 -53h-306zM140 245q0 -92 36.5 -147t100.5 -55q69 0 102.5 54t33.5 148q0 40 -9.5 74.5t-27.5 59.5t-43 39.5
t-56 14.5q-67 0 -102 -51.5t-35 -136.5zM722 284q3 26 0 53t-14 49.5t-31.5 36.5t-51.5 14q-54 0 -86 -42t-37 -111h220z" />
    <glyph glyph-name="Scaron" unicode="&#x160;" horiz-adv-x="540" 
d="M395 630q-18 11 -43 16.5t-51 5.5q-63 0 -98.5 -29.5t-35.5 -72.5q0 -44 24.5 -71t61 -47t79.5 -38t79.5 -44t61 -64t24.5 -98q0 -59 -21 -98.5t-55.5 -64t-79.5 -35t-94 -10.5q-53 0 -105.5 10.5t-93.5 27.5q0 19 0.5 41t2 44.5t3.5 44t5 38.5q7 0 16.5 -0.5t20 -2
t20.5 -3.5t17 -4v-102q27 -15 61.5 -22.5t67.5 -7.5q72 0 107 33.5t35 93.5q0 46 -24.5 73.5t-61.5 47.5t-80 37t-80 42t-61.5 63.5t-24.5 100.5q0 40 15 73t43.5 56.5t69 36.5t91.5 13q44 0 94 -9t91 -25q0 -16 -1 -35.5t-2.5 -39.5t-4.5 -39t-6 -34q-15 0 -35 4t-32 10v84
zM226 748l-127 110q10 11 29 20t36 12l129 -71l118 68q13 -4 28 -14t22 -18l-123 -107h-112z" />
    <glyph glyph-name="scaron" unicode="&#x161;" horiz-adv-x="430" 
d="M296 428q-11 5 -26.5 8.5t-32.5 3.5q-39 0 -60.5 -16.5t-21.5 -44.5t17.5 -45.5t43 -31t56 -26.5t56 -31.5t43 -46.5t17.5 -71q0 -39 -15 -66.5t-40 -44.5t-57.5 -25t-67.5 -8q-88 0 -153 38q-2 8 -3.5 22t-1.5 26q0 19 3 38t7 33q17 0 36.5 -2t35.5 -7v-69
q17 -11 39 -17t45 -6q38 0 61 20.5t23 54.5q0 30 -17.5 48t-43.5 31.5t-56.5 25.5t-56.5 30t-43.5 46t-17.5 72q0 27 12 50t34 39.5t52.5 26t67.5 9.5q35 0 71 -6t70 -20q2 -7 2 -15v-16q0 -21 -3 -42.5t-8 -38.5q-17 0 -35.5 3.5t-31.5 11.5v59zM179 541l-119 151q3 4 11 8
t18 7t19.5 5t17.5 2l105 -101l101 103q14 -2 29 -10t23 -16l-120 -146z" />
    <glyph glyph-name="Ydieresis" unicode="&#x178;" horiz-adv-x="602" 
d="M315 338q4 13 10.5 29.5t14.5 30.5l85 163q8 16 19.5 35t23.5 34q-16 1 -34.5 3t-32.5 5q-5 13 -7 29t-2 27h206q0 -11 -2 -28.5t-5 -28.5q-11 -2 -24 -3.5t-24 -2.5l-202 -357v-209q23 -2 49 -4t46 -6q1 -5 2 -12.5t1.5 -15.5t0.5 -15.5t-1 -11.5h-288q2 12 5.5 27.5
t7.5 25.5q15 4 41 7.5t44 5.5v206l-181 356q-11 1 -27 3.5t-27 5.5q-4 11 -6.5 28.5t-2.5 28.5h251q0 -13 -2.5 -29t-6.5 -27q-17 -3 -39.5 -5t-42.5 -3q25 -32 42 -68l80 -164q6 -13 12 -30.5t9 -29.5h7zM187 874q28 0 44.5 -14t16.5 -40q0 -28 -16.5 -43t-44.5 -15
q-62 0 -62 58q0 25 17 39.5t45 14.5zM428 874q28 0 44.5 -14t16.5 -40q0 -28 -16.5 -43t-44.5 -15q-62 0 -62 58q0 25 17 39.5t45 14.5z" />
    <glyph glyph-name="Zcaron" unicode="&#x17d;" horiz-adv-x="561" 
d="M41 70l371 551v7h-275q0 -8 -2 -20.5t-4 -26t-4.5 -26t-4.5 -19.5q-14 -3 -33 -5t-34 -2v165h460v-71l-365 -548v-7h297q0 8 1.5 21t3.5 27t4 27.5t4 22.5q12 4 32 6.5t34 2.5v-175h-485v70zM230 748l-127 110q10 11 29 20t36 12l129 -71l118 68q13 -4 28 -14t22 -18
l-123 -107h-112z" />
    <glyph glyph-name="zcaron" unicode="&#x17e;" horiz-adv-x="459" 
d="M44 43l259 369v7h-165q-2 -16 -7 -36t-11 -35q-13 0 -33.5 3t-29.5 7v117h347l11 -43l-259 -369v-7q46 0 96.5 2t92.5 7q4 17 10 36t12 35q20 5 39 5q15 0 25 -2l-17 -139h-359zM192 541l-119 151q3 4 11 8t18 7t19.5 5t17.5 2l105 -101l101 103q14 -2 29 -10t23 -16
l-120 -146z" />
    <glyph glyph-name="longs" unicode="&#x17f;" horiz-adv-x="326" 
d="M115 409q-17 1 -36.5 3t-34.5 5q-2 11 -2.5 30t1.5 28h72v66q0 51 14.5 86.5t38.5 58.5t56 33.5t67 10.5q24 0 52 -4t57 -13q3 -17 3 -34q0 -24 -4 -47.5t-10 -40.5q-12 0 -30.5 4.5t-28.5 11.5v67q-7 4 -16 5.5t-16 1.5q-20 0 -37.5 -6t-30.5 -20.5t-20.5 -39.5
t-7.5 -64v-487q10 -1 24 -3t27.5 -4.5t26 -5t21.5 -5.5q2 -9 3 -22t-1 -24h-266q3 25 14 45q12 5 30.5 10.5t33.5 8.5v345z" />
    <glyph glyph-name="florin" unicode="&#x192;" 
d="M313 292l-24 -287q-5 -53 -22.5 -90.5t-44 -61.5t-59.5 -35t-67 -11q-22 0 -48.5 4t-51.5 13q2 29 9 66t15 62q11 -2 29.5 -6.5t28.5 -9.5l-6 -72q5 -2 12.5 -4t15.5 -2q16 0 32.5 6t30.5 21t24.5 40.5t13.5 63.5l28 303h-133q0 12 3.5 30t7.5 29h127l13 140
q5 53 23 90.5t44 61.5t58.5 35t65.5 11q22 0 46.5 -4t49.5 -13q-3 -28 -11 -61.5t-17 -56.5q-12 1 -28 6t-25 10l9 61q-6 4 -14 5.5t-16 1.5q-16 0 -32.5 -6.5t-31 -21.5t-24.5 -40t-13 -63l-13 -156h161q2 -13 0.5 -30t-3.5 -29h-163z" />
    <glyph glyph-name="uni02BB" unicode="&#x2bb;" horiz-adv-x="248" 
d="M204 703q-7 -17 -15 -39t-15.5 -44.5t-13.5 -43.5t-9 -36l40 -10q-2 -6 -6 -15.5t-9.5 -19t-11.5 -18t-11 -14.5q-28 3 -54.5 11.5t-46.5 20.5q15 54 39.5 108.5t47.5 92.5q9 2 29.5 4.5t35.5 2.5z" />
    <glyph glyph-name="afii57929" unicode="&#x2bc;" horiz-adv-x="246" 
d="M52 641q5 16 13.5 35t18.5 30q17 4 40 4q19 0 37.5 -3t32.5 -8q-6 -28 -17 -61.5t-24 -66t-27 -61.5t-25 -47q-13 4 -27 11.5t-21 14.5q11 32 22.5 72t16.5 70z" />
    <glyph glyph-name="circumflex" unicode="&#x2c6;" horiz-adv-x="419" 
d="M261 719l114 -136q-8 -11 -24.5 -24t-32.5 -16l-100 100l-107 -104q-6 3 -12 9t-11.5 13.5t-10 15t-6.5 13.5l106 125z" />
    <glyph glyph-name="caron" unicode="&#x2c7;" horiz-adv-x="419" 
d="M179 541l-119 151q3 4 11 8t18 7t19.5 5t17.5 2l105 -101l101 103q14 -2 29 -10t23 -16l-120 -146z" />
    <glyph glyph-name="breve" unicode="&#x2d8;" horiz-adv-x="419" 
d="M122 703q9 -48 30 -69.5t56 -21.5q68 0 90 91q17 -1 31.5 -5t27.5 -11q-8 -63 -45.5 -103t-103.5 -40q-64 0 -99.5 35.5t-45.5 99.5q10 10 26 16t33 8z" />
    <glyph glyph-name="dotaccent" unicode="&#x2d9;" horiz-adv-x="419" 
d="M211 675q24 0 39 -13.5t15 -38.5q0 -29 -15 -43.5t-39 -14.5q-57 0 -57 58q0 23 16 37.5t41 14.5z" />
    <glyph glyph-name="ring" unicode="&#x2da;" horiz-adv-x="419" 
d="M212 746q48 0 77.5 -25.5t29.5 -71.5q0 -51 -29.5 -77.5t-77.5 -26.5q-111 0 -111 104q0 44 30.5 70.5t80.5 26.5zM213 703q-25 0 -40 -14t-15 -40q0 -60 55 -60q23 0 36.5 15t13.5 45q0 26 -13.5 40t-36.5 14z" />
    <glyph glyph-name="ogonek" unicode="&#x2db;" horiz-adv-x="419" 
d="M266 -152q5 -8 8 -24.5t3 -26.5q-11 -5 -27.5 -7t-29.5 -2q-23 0 -44 6.5t-37.5 19.5t-26.5 32.5t-10 45.5q0 14 6 30t19 31t33 28.5t48 22.5q11 2 34 3t40 1q-102 -47 -102 -104q0 -32 18 -46t41 -14q7 0 14.5 1t12.5 3z" />
    <glyph glyph-name="tilde" unicode="&#x2dc;" horiz-adv-x="419" 
d="M329 677q10 0 20 -1.5t19 -6.5q-1 -19 -7.5 -38t-18.5 -34.5t-30 -25t-43 -9.5q-17 0 -33 6.5t-31 15t-29.5 15t-29.5 6.5q-20 0 -34 -12.5t-18 -29.5q-25 3 -37 22q8 40 31.5 66.5t70.5 26.5q21 0 36.5 -6.5t29.5 -14t27 -14t30 -6.5q18 0 31 11.5t16 28.5z" />
    <glyph glyph-name="hungarumlaut" unicode="&#x2dd;" horiz-adv-x="419" 
d="M100 539q-14 5 -30.5 16.5t-24.5 21.5l91 158q9 0 21.5 -2.5t25.5 -6t24.5 -8.5t18.5 -10zM276 539q-14 5 -30.5 16t-24.5 22l91 158q9 0 21.5 -2.5t25.5 -6t24.5 -8.5t18.5 -10z" />
    <glyph glyph-name="gravecomb" unicode="&#x300;" horiz-adv-x="1" 
d="M-215 706q7 5 19 9t26 6.5t28.5 4t26.5 1.5l116 -159q-5 -2 -14.5 -5t-20 -5.5t-20.5 -4t-16 -1.5z" />
    <glyph glyph-name="acutecomb" unicode="&#x301;" horiz-adv-x="1" 
d="M-148 539q-6 2 -13 7t-14.5 11t-14 13t-9.5 12l112 156q8 0 20 -3.5t25 -8.5t24.5 -11t18.5 -12z" />
    <glyph glyph-name="uni0302" unicode="&#x302;" horiz-adv-x="1" 
d="M-113 719l114 -136q-8 -11 -24.5 -24t-32.5 -16l-100 100l-107 -104q-6 3 -12 9t-11.5 13.5t-10 15t-6.5 13.5l106 125z" />
    <glyph glyph-name="tildecomb" unicode="&#x303;" horiz-adv-x="1" 
d="M-38 677q10 0 20 -1.5t19 -6.5q-1 -19 -7.5 -38t-18.5 -34.5t-30 -25t-43 -9.5q-17 0 -33 6.5t-31 15t-29.5 15t-29.5 6.5q-20 0 -34 -12.5t-18 -29.5q-25 3 -37 22q8 40 31.5 66.5t70.5 26.5q21 0 36.5 -6.5t29.5 -14t27 -14t30 -6.5q18 0 31 11.5t16 28.5z" />
    <glyph glyph-name="uni0304" unicode="&#x304;" horiz-adv-x="1" 
d="M-260 584q0 14 3 34t6 31h249q2 -10 2.5 -22.5t0.5 -23.5v-9q0 -3 -1 -10h-260z" />
    <glyph glyph-name="uni0306" unicode="&#x306;" horiz-adv-x="1" 
d="M-234 703q9 -48 30 -69.5t56 -21.5q68 0 90 91q17 -1 31.5 -5t27.5 -11q-8 -63 -45.5 -103t-103.5 -40q-64 0 -99.5 35.5t-45.5 99.5q10 10 26 16t33 8z" />
    <glyph glyph-name="uni0307" unicode="&#x307;" horiz-adv-x="1" 
d="M-53 675q24 0 39 -13.5t15 -38.5q0 -29 -15 -43.5t-39 -14.5q-57 0 -57 58q0 23 16 37.5t41 14.5z" />
    <glyph glyph-name="uni0308" unicode="&#x308;" horiz-adv-x="1" 
d="M-258 672q23 0 37.5 -13t14.5 -37q0 -26 -14.5 -40t-37.5 -14q-53 0 -53 54q0 23 15 36.5t38 13.5zM-51 672q23 0 37.5 -13t14.5 -37q0 -26 -14.5 -40t-37.5 -14q-53 0 -53 54q0 23 15 36.5t38 13.5z" />
    <glyph glyph-name="uni030A" unicode="&#x30a;" horiz-adv-x="1" 
d="M-106 746q48 0 77.5 -25.5t29.5 -71.5q0 -51 -29.5 -77.5t-77.5 -26.5q-111 0 -111 104q0 44 30.5 70.5t80.5 26.5zM-105 703q-25 0 -40 -14t-15 -40q0 -60 55 -60q23 0 36.5 15t13.5 45q0 26 -13.5 40t-36.5 14z" />
    <glyph glyph-name="uni030B" unicode="&#x30b;" horiz-adv-x="1" 
d="M-301 539q-14 5 -30.5 16.5t-24.5 21.5l91 158q9 0 21.5 -2.5t25.5 -6t24.5 -8.5t18.5 -10zM-125 539q-14 5 -30.5 16t-24.5 22l91 158q9 0 21.5 -2.5t25.5 -6t24.5 -8.5t18.5 -10z" />
    <glyph glyph-name="uni030C" unicode="&#x30c;" horiz-adv-x="1" 
d="M-204 541l-119 151q3 4 11 8t18 7t19.5 5t17.5 2l105 -101l101 103q14 -2 29 -10t23 -16l-120 -146z" />
    <glyph glyph-name="uni0312" unicode="&#x312;" horiz-adv-x="1" 
d="M-7 746q-5 -13 -10.5 -30t-10.5 -34.5t-9 -34t-6 -28.5l44 -9q-3 -13 -14.5 -33t-22.5 -31q-26 3 -52 11t-44 20q11 43 29 86t36 73q8 4 26.5 7t33.5 3z" />
    <glyph glyph-name="uni0313" unicode="&#x313;" horiz-adv-x="1" 
d="M-128 657q4 14 12 30.5t16 26.5q18 3 40 3q14 0 31.5 -3t29.5 -8q-4 -24 -13.5 -53.5t-21.5 -58t-24.5 -54t-22.5 -40.5q-14 3 -27.5 10t-19.5 12q5 13 10.5 30t10.5 34.5t9.5 34t6.5 29.5z" />
    <glyph glyph-name="uni0326" unicode="&#x326;" horiz-adv-x="1" 
d="M-127 -112q4 14 11.5 30t15.5 26q9 2 19 3t21 1q14 0 31.5 -3t29.5 -8q-5 -23 -14.5 -51.5t-21 -57t-23.5 -53t-21 -39.5q-14 3 -27 10t-19 12q4 13 9.5 29t10 33t8.5 33l7 28z" />
    <glyph glyph-name="uni0394" unicode="&#x394;" horiz-adv-x="659" 
d="M380 704l247 -646v-58h-595v47l261 657h87zM521 62l-151 399q-7 18 -14 37.5t-13 39t-10.5 37t-5.5 30.5h-7q-2 -13 -6.5 -30.5t-10.5 -36t-13 -38t-13 -36.5l-152 -402h396z" />
    <glyph glyph-name="uni03A9" unicode="&#x3a9;" horiz-adv-x="849" 
d="M493 64q28 20 54 48.5t45.5 65.5t31 83t11.5 101q0 52 -12 104t-37.5 92.5t-66 66t-97.5 25.5q-56 0 -95.5 -24t-65 -63.5t-37.5 -90t-12 -102.5q0 -53 11 -100t30 -86t45 -69.5t56 -50.5v-64h-309v153q14 0 34.5 -2t31.5 -4q4 -14 7 -36.5t5 -39.5h133v7q-28 16 -54 44
t-45.5 66t-31 85t-11.5 102q0 78 23 140.5t64 107t97.5 68t124.5 23.5q70 0 127.5 -24.5t98 -69t62.5 -106.5t22 -137q0 -57 -13 -105.5t-33.5 -86t-46.5 -65t-51 -42.5v-7h140q2 17 4.5 39t6.5 39q13 3 33 5t34 2v-156h-314v64z" />
    <glyph glyph-name="uni03BC" unicode="&#x3bc;" horiz-adv-x="612" 
d="M141 81q20 -99 28.5 -186.5t8.5 -163.5q-12 0 -25.5 2.5t-27 5.5t-25 7t-18.5 7q7 189 11.5 367t4.5 349q6 2 18 4t25 3.5t25.5 2t18.5 0.5q-2 -60 -3.5 -119.5t-1.5 -121.5q0 -90 25.5 -135.5t86.5 -45.5q21 0 40 7.5t35 20t28.5 28t19.5 31.5q-3 43 -3 94q0 64 1 123
t4 108q6 2 17 4t23 3.5t23.5 2t17.5 0.5q-3 -60 -3.5 -122.5t-0.5 -122.5q0 -98 12 -139t40 -41q10 0 24 4.5t22 9.5q1 -5 1 -12q0 -14 -3.5 -29t-8.5 -23q-11 -8 -29.5 -14.5t-35.5 -6.5q-41 0 -62 27t-30 72h-5q-6 -17 -16 -35t-27.5 -32t-42 -23t-58.5 -9q-46 0 -79.5 23
t-47.5 75h-7z" />
    <glyph glyph-name="pi" unicode="&#x3c0;" horiz-adv-x="600" 
d="M472 395q-2 -31 -3.5 -66.5t-1.5 -70.5q0 -105 7.5 -151t32.5 -46q11 0 22 2.5t19 6.5q2 -16 -2 -38.5t-10 -36.5q-11 -5 -24.5 -8.5t-28.5 -3.5q-30 0 -48.5 19t-28.5 53t-13.5 81.5t-3.5 104.5q0 36 2 79.5t5 77.5q-42 3 -90 3h-26q-13 0 -27 -1q2 -15 2.5 -35.5
t0.5 -34.5q0 -47 -1.5 -95t-5 -94t-10.5 -87.5t-18 -76.5q-26 3 -48.5 11t-37.5 19q10 34 18.5 69t13.5 72.5t8 79.5t3 90q0 13 -0.5 36.5t-2.5 39.5q-39 -3 -75 -22t-55 -39q-6 14 -4.5 37t6.5 41q13 14 31 26.5t46 22.5t68.5 15.5t97.5 5.5q32 0 69 -0.5t74.5 -1t74.5 -2
t70 -3.5q5 -22 5 -53q0 -9 -0.5 -17t-1.5 -15q-27 2 -53.5 3.5t-55.5 2.5z" />
    <glyph glyph-name="uni2007" unicode="&#x2007;" 
 />
    <glyph glyph-name="uni2008" unicode="&#x2008;" horiz-adv-x="350" 
 />
    <glyph glyph-name="uni200B" unicode="&#x200b;" horiz-adv-x="0" 
 />
    <glyph glyph-name="endash" unicode="&#x2013;" horiz-adv-x="500" 
d="M459 307q2 -8 3 -21.5t1 -27.5v-10q0 -4 -1 -9h-424q0 7 1 16t2 19t2.5 18.5t3.5 14.5h412z" />
    <glyph glyph-name="emdash" unicode="&#x2014;" horiz-adv-x="1000" 
d="M949 307q2 -8 3 -21.5t1 -27.5v-10q0 -4 -1 -9h-914q0 7 1 16t2 19t2.5 18.5t3.5 14.5h902z" />
    <glyph glyph-name="quoteleft" unicode="&#x2018;" horiz-adv-x="248" 
d="M204 703q-7 -17 -15 -39t-15.5 -44.5t-13.5 -43.5t-9 -36l40 -10q-2 -6 -6 -15.5t-9.5 -19t-11.5 -18t-11 -14.5q-28 3 -54.5 11.5t-46.5 20.5q15 54 39.5 108.5t47.5 92.5q9 2 29.5 4.5t35.5 2.5z" />
    <glyph glyph-name="quoteright" unicode="&#x2019;" horiz-adv-x="246" 
d="M52 641q5 16 13.5 35t18.5 30q17 4 40 4q19 0 37.5 -3t32.5 -8q-6 -28 -17 -61.5t-24 -66t-27 -61.5t-25 -47q-13 4 -27 11.5t-21 14.5q11 32 22.5 72t16.5 70z" />
    <glyph glyph-name="quotesinglbase" unicode="&#x201a;" horiz-adv-x="249" 
d="M52 28q5 16 13.5 35.5t18.5 30.5q17 4 40 4q20 0 38.5 -3.5t33.5 -8.5q-6 -28 -17 -62t-24.5 -67t-27.5 -62.5t-25 -47.5q-14 4 -28 12t-22 14q6 16 12 35t11.5 38.5t10 38t6.5 33.5z" />
    <glyph glyph-name="quotereversed" unicode="&#x201b;" horiz-adv-x="246" 
d="M152 628q3 -14 7 -33t9 -39t10.5 -39.5t10.5 -34.5q-8 -6 -25 -13t-31 -9q-10 19 -22 48t-24 61t-22 65.5t-16 61.5q16 5 36 7.5t40 2.5t37 -3q9 -11 18.5 -30t14.5 -35z" />
    <glyph glyph-name="quotedblleft" unicode="&#x201c;" horiz-adv-x="420" 
d="M200 703q-7 -17 -15 -39t-15.5 -44.5t-13.5 -43.5t-9 -36l40 -10q-2 -6 -6 -15.5t-9.5 -19t-11.5 -18t-11 -14.5q-28 3 -53 11.5t-45 20.5q15 54 39.5 108.5t47.5 92.5q9 2 28 4.5t34 2.5zM378 703q-7 -17 -15 -39t-15.5 -44.5t-13.5 -43.5t-9 -36l40 -10q-2 -6 -6 -15.5
t-9.5 -19t-11.5 -18t-11 -14.5q-28 3 -53 11.5t-45 20.5q15 54 39.5 108.5t47.5 92.5q9 2 28 4.5t34 2.5z" />
    <glyph glyph-name="quotedblright" unicode="&#x201d;" horiz-adv-x="422" 
d="M52 641q5 16 13.5 35t18.5 30q17 4 39 4q19 0 36.5 -3t31.5 -8q-6 -28 -17 -61.5t-24 -66t-27 -61.5t-25 -47q-13 4 -25.5 11.5t-19.5 14.5q11 32 22.5 72t16.5 70zM230 641q5 16 13.5 35t18.5 30q17 4 39 4q19 0 36.5 -3t31.5 -8q-6 -28 -17 -61.5t-24 -66t-27 -61.5
t-25 -47q-13 4 -25.5 11.5t-19.5 14.5q11 32 22.5 72t16.5 70z" />
    <glyph glyph-name="quotedblbase" unicode="&#x201e;" horiz-adv-x="422" 
d="M51 28q5 16 13.5 35.5t18.5 30.5q17 4 39 4q20 0 38 -3.5t33 -8.5q-6 -28 -17 -62t-24.5 -67t-27.5 -62.5t-25 -47.5q-14 4 -27 12t-21 14q6 16 12 35t11.5 38.5t10 38t6.5 33.5zM230 28q5 16 13.5 35.5t18.5 30.5q17 4 39 4q20 0 38 -3.5t33 -8.5q-6 -28 -17 -62
t-24.5 -67t-27.5 -62.5t-25 -47.5q-14 4 -27 12t-21 14q6 16 12 35t11.5 38.5t10 38t6.5 33.5z" />
    <glyph glyph-name="dagger" unicode="&#x2020;" horiz-adv-x="500" 
d="M288 417l-11 -582q-11 -3 -30 -3q-20 0 -30 3l-12 582h-154q0 11 2 29t6 29h145l-4 209q15 6 36.5 9.5t38.5 3.5h8q5 0 10 -1l-4 -221h162q3 -15 3 -38v-10q0 -4 -1 -10h-165z" />
    <glyph glyph-name="daggerdbl" unicode="&#x2021;" horiz-adv-x="500" 
d="M282 121l-5 -286q-11 -3 -30 -3q-20 0 -30 3l-6 286h-160q0 11 2 28.5t6 28.5h151l-5 240h-154q0 11 2 28.5t6 28.5h145l-4 209q15 6 36.5 9.5t38.5 3.5h8q5 0 10 -1l-4 -221h162q3 -15 3 -37v-10q0 -4 -1 -10h-165l-5 -240h168q3 -15 3 -37v-10q0 -4 -1 -10h-171z" />
    <glyph glyph-name="bullet" unicode="&#x2022;" horiz-adv-x="580" 
d="M292 376q59 0 95.5 -34t36.5 -96q0 -68 -36.5 -104t-95.5 -36q-66 0 -101 35.5t-35 104.5q0 59 38 94.5t98 35.5z" />
    <glyph glyph-name="ellipsis" unicode="&#x2026;" horiz-adv-x="834" 
d="M697 115q27 0 44.5 -16t17.5 -45q0 -32 -17.5 -49t-44.5 -17q-64 0 -64 66q0 27 18 44t46 17zM145 115q27 0 44.5 -16t17.5 -45q0 -32 -17.5 -49t-44.5 -17q-64 0 -64 66q0 27 18 44t46 17zM421 115q27 0 44.5 -16t17.5 -45q0 -32 -17.5 -49t-44.5 -17q-64 0 -64 66
q0 27 18 44t46 17z" />
    <glyph glyph-name="perthousand" unicode="&#x2030;" horiz-adv-x="1300" 
d="M234 686q74 0 117.5 -43t43.5 -126q0 -88 -43 -133.5t-118 -45.5q-78 0 -119.5 44t-41.5 135q0 39 12 70.5t33.5 53t51 33.5t64.5 12zM153 517q0 -61 21 -95.5t60 -34.5q41 0 60.5 34t19.5 96q0 53 -20.5 86.5t-59.5 33.5q-40 0 -60.5 -32t-20.5 -88zM672 331
q74 0 117.5 -43t43.5 -126q0 -88 -43 -133.5t-118 -45.5q-78 0 -119.5 44t-41.5 135q0 39 12 70.5t33.5 53t51 33.5t64.5 12zM591 162q0 -61 21 -95.5t60 -34.5q41 0 60.5 34t19.5 96q0 53 -20.5 86.5t-59.5 33.5q-40 0 -60.5 -32t-20.5 -88zM1067 331q74 0 117.5 -43
t43.5 -126q0 -88 -43 -133.5t-118 -45.5q-78 0 -119.5 44t-41.5 135q0 39 12 70.5t33.5 53t51 33.5t64.5 12zM986 162q0 -61 21 -95.5t60 -34.5q41 0 60.5 34t19.5 96q0 53 -20.5 86.5t-59.5 33.5q-40 0 -60.5 -32t-20.5 -88zM257 -25q-12 2 -29.5 10.5t-25.5 16.5l447 692
q14 -1 32 -5.5t31 -9.5z" />
    <glyph glyph-name="guilsinglleft" unicode="&#x2039;" horiz-adv-x="343" 
d="M171 250q20 -49 41.5 -96t46.5 -96q-6 -3 -15.5 -5t-20 -4t-21 -3t-17.5 -1q-30 49 -60 102.5t-53 102.5q22 49 47 93.5t55 94.5q17 5 43 9t46 4q-25 -49 -49 -100.5t-43 -100.5z" />
    <glyph glyph-name="guilsinglright" unicode="&#x203a;" horiz-adv-x="343" 
d="M178 250q-19 49 -39.5 93.5t-45.5 93.5q13 5 33.5 10t38.5 5q30 -49 59.5 -101t51.5 -101q-23 -49 -54 -104t-61 -104q-15 2 -36.5 8.5t-32.5 13.5q24 48 45 92.5t41 93.5z" />
    <glyph glyph-name="uni203E" unicode="&#x203e;" horiz-adv-x="500" 
d="M501 723q2 -9 2.5 -20t0.5 -22v-8q0 -3 -1 -9h-511q0 11 2 29.5t6 29.5h501z" />
    <glyph glyph-name="fraction" unicode="&#x2044;" horiz-adv-x="141" 
d="M-147 -25q-12 2 -29.5 10.5t-25.5 16.5l484 697q14 -1 31.5 -5.5t30.5 -9.5z" />
    <glyph glyph-name="uni2070" unicode="&#x2070;" horiz-adv-x="385" 
d="M192 772q72 0 115 -49t43 -144q0 -101 -42.5 -153.5t-115.5 -52.5q-77 0 -117 51.5t-40 154.5q0 45 11.5 80.5t32.5 60.5t49.5 38.5t63.5 13.5zM116 579q0 -72 19 -113t57 -41q39 0 58 40.5t19 113.5q0 62 -19.5 101.5t-57.5 39.5t-57 -37.5t-19 -103.5z" />
    <glyph glyph-name="uni2074" unicode="&#x2074;" horiz-adv-x="385" 
d="M296 381q-2 -1 -14.5 -1.5t-20.5 -0.5q-7 0 -21 0.5t-17 1.5v99h-187v48l164 237h96v-229h55q2 -8 3 -25.5t1 -30.5h-59v-99zM223 642q0 14 1 28.5t3 31.5h-4l-112 -163v-4q11 1 23 1h89v106z" />
    <glyph glyph-name="uni2075" unicode="&#x2075;" horiz-adv-x="385" 
d="M150 619q13 2 25.5 3.5t26.5 1.5q57 0 94.5 -27.5t37.5 -89.5q0 -38 -14.5 -63.5t-37.5 -41t-53.5 -22.5t-61.5 -7q-26 0 -55 3.5t-45 8.5q-5 12 -8 28t-3 30q0 9 1 13q23 -9 52.5 -17t58.5 -8q37 0 60 17t23 55q0 39 -23.5 53t-57.5 14q-20 0 -47.5 -2.5t-47.5 -6.5
l15 204h246q0 -36 -6 -69h-174z" />
    <glyph glyph-name="uni2076" unicode="&#x2076;" horiz-adv-x="385" 
d="M134 587q7 17 28.5 29.5t56.5 12.5q63 0 94 -33.5t31 -88.5q0 -64 -39.5 -99t-107.5 -35q-76 0 -113 44.5t-37 129.5q0 55 15 97.5t41.5 70.5t63 42.5t80.5 14.5q20 0 40.5 -2.5t34.5 -7.5q3 -6 5.5 -15t4 -19.5t2 -21t-0.5 -18.5q-16 9 -43 16t-51 7q-44 0 -74 -29
t-36 -95h5zM130 533q0 -110 67 -110q32 0 48.5 22t16.5 57q0 72 -65 72q-23 0 -38 -9t-29 -23v-9z" />
    <glyph glyph-name="uni2077" unicode="&#x2077;" horiz-adv-x="385" 
d="M346 704q-54 -85 -89 -164t-61 -158q-21 -3 -44 -3q-24 0 -46 3q29 77 73 157.5t94 153.5v5h-145q0 -8 -3.5 -22t-6.5 -22q-13 -3 -31 -5t-33 -2v118h292v-61z" />
    <glyph glyph-name="uni2078" unicode="&#x2078;" horiz-adv-x="385" 
d="M335 680q0 -31 -17 -54t-40 -35v-5q27 -13 46.5 -35.5t19.5 -60.5q0 -30 -11.5 -52t-32 -36.5t-48.5 -21.5t-62 -7q-27 0 -53.5 5t-47.5 17t-34 31.5t-13 49.5q0 37 20.5 63.5t52.5 37.5v5q-26 13 -42.5 33.5t-16.5 54.5q0 28 12 47.5t32 31.5t45.5 17.5t51.5 5.5
t50.5 -5t44 -16t31.5 -28.5t12 -42.5zM263 482q0 15 -8.5 26t-22.5 20t-32 16t-37 14q-20 -12 -31.5 -29.5t-11.5 -42.5q0 -34 20 -48.5t51 -14.5q30 0 51 14t21 45zM134 678q0 -12 7.5 -21t20.5 -16.5t29 -14t34 -12.5q34 25 34 61q0 29 -20 39.5t-43 10.5q-10 0 -21 -2
t-20 -7.5t-15 -14.5t-6 -23z" />
    <glyph glyph-name="uni2079" unicode="&#x2079;" horiz-adv-x="385" 
d="M257 563q-7 -18 -29.5 -30.5t-58.5 -12.5q-60 0 -90 35t-30 87q0 62 40 96t106 34q76 0 112.5 -44.5t36.5 -132.5q0 -56 -14.5 -98t-40.5 -69.5t-62.5 -41t-79.5 -13.5q-20 0 -44 2.5t-38 7.5q-3 6 -5.5 15t-4 19.5t-2 21t0.5 18.5q16 -8 46 -15.5t55 -7.5q46 0 74.5 30
t32.5 99h-5zM261 616q0 106 -66 106q-32 0 -48 -21t-16 -55q0 -71 64 -71q23 0 37.5 9t28.5 23v9z" />
    <glyph glyph-name="uni2080" unicode="&#x2080;" horiz-adv-x="385" 
d="M192 299q72 0 115 -49t43 -144q0 -101 -42.5 -153.5t-115.5 -52.5q-77 0 -117 51.5t-40 154.5q0 45 11.5 80.5t32.5 60.5t49.5 38.5t63.5 13.5zM116 106q0 -72 19 -113t57 -41q39 0 58 40.5t19 113.5q0 62 -19.5 101.5t-57.5 39.5t-57 -37.5t-19 -103.5z" />
    <glyph glyph-name="uni2081" unicode="&#x2081;" horiz-adv-x="385" 
d="M87 -92q1 11 5 24.5t8 22.5q14 3 32 5t34 4v271l-90 -9q1 12 3.5 26.5t8.5 26.5q20 5 62.5 11.5t94.5 9.5v-337q16 -1 38.5 -3.5t36.5 -4.5q2 -10 3.5 -23.5t0.5 -23.5h-237z" />
    <glyph glyph-name="uni2082" unicode="&#x2082;" horiz-adv-x="385" 
d="M53 -32q21 21 54 47.5t64.5 56t54.5 60.5t23 61q0 52 -60 52q-17 0 -35 -4.5t-32 -12.5v-51q-11 -4 -29 -6t-30 -2q-4 20 -5.5 47t-1.5 53q26 12 60 21.5t79 9.5q60 0 98.5 -21.5t38.5 -77.5q0 -24 -11 -48t-28 -46.5t-38.5 -43t-42.5 -38t-39 -32t-29 -23.5v-5
q19 0 44 1t52 1.5t54.5 2t53.5 3.5q0 -11 -1.5 -31.5t-3.5 -33.5h-290v60z" />
    <glyph glyph-name="uni2083" unicode="&#x2083;" horiz-adv-x="385" 
d="M103 77q-2 12 -1 28.5t5 27.5q69 0 102.5 14.5t33.5 47.5q0 27 -17.5 36.5t-42.5 9.5q-23 0 -56.5 -5.5t-61.5 -17.5q-3 32 8 65q24 9 54.5 13t56.5 4q28 0 53 -5.5t44.5 -17t31 -29t11.5 -42.5q0 -38 -23 -63t-62 -30v-5q37 -3 65.5 -26.5t28.5 -69.5q0 -30 -13 -51
t-36 -34.5t-54 -19.5t-67 -6q-26 0 -53.5 3t-44.5 9q-5 11 -7.5 25t-2.5 28v6q0 4 1 8q10 -4 24 -7.5t30 -6.5t32 -5t30 -2q34 0 56 13t22 45q0 35 -33 47.5t-114 12.5z" />
    <glyph glyph-name="uni2084" unicode="&#x2084;" horiz-adv-x="385" 
d="M296 -92q-2 -1 -14.5 -1.5t-20.5 -0.5q-7 0 -21 0.5t-17 1.5v99h-187v48l164 237h96v-229h55q2 -8 3 -25.5t1 -30.5h-59v-99zM223 169q0 14 1 28.5t3 31.5h-4l-112 -163v-4q11 1 23 1h89v106z" />
    <glyph glyph-name="uni2085" unicode="&#x2085;" horiz-adv-x="385" 
d="M150 146q13 2 25.5 3.5t26.5 1.5q57 0 94.5 -27.5t37.5 -89.5q0 -38 -14.5 -63.5t-37.5 -41t-53.5 -22.5t-61.5 -7q-26 0 -55 3.5t-45 8.5q-5 12 -8 28t-3 30q0 9 1 13q23 -9 52.5 -17t58.5 -8q37 0 60 17t23 55q0 39 -23.5 53t-57.5 14q-20 0 -47.5 -2.5t-47.5 -6.5
l15 204h246q0 -36 -6 -69h-174z" />
    <glyph glyph-name="uni2086" unicode="&#x2086;" horiz-adv-x="385" 
d="M134 114q7 17 28.5 29.5t56.5 12.5q63 0 94 -33.5t31 -88.5q0 -64 -39.5 -99t-107.5 -35q-76 0 -113 44.5t-37 129.5q0 55 15 97.5t41.5 70.5t63 42.5t80.5 14.5q20 0 40.5 -2.5t34.5 -7.5q3 -6 5.5 -15t4 -19.5t2 -21t-0.5 -18.5q-16 9 -43 16t-51 7q-44 0 -74 -29
t-36 -95h5zM130 60q0 -110 67 -110q32 0 48.5 22t16.5 57q0 72 -65 72q-23 0 -38 -9t-29 -23v-9z" />
    <glyph glyph-name="uni2087" unicode="&#x2087;" horiz-adv-x="385" 
d="M346 231q-54 -85 -89 -164t-61 -158q-21 -3 -44 -3q-24 0 -46 3q29 77 73 157.5t94 153.5v5h-145q0 -8 -3.5 -22t-6.5 -22q-13 -3 -31 -5t-33 -2v118h292v-61z" />
    <glyph glyph-name="uni2088" unicode="&#x2088;" horiz-adv-x="385" 
d="M335 207q0 -31 -17 -54t-40 -35v-5q27 -13 46.5 -35.5t19.5 -60.5q0 -30 -11.5 -52t-32 -36.5t-48.5 -21.5t-62 -7q-27 0 -53.5 5t-47.5 17t-34 31.5t-13 49.5q0 37 20.5 63.5t52.5 37.5v5q-26 13 -42.5 33.5t-16.5 54.5q0 28 12 47.5t32 31.5t45.5 17.5t51.5 5.5
t50.5 -5t44 -16t31.5 -28.5t12 -42.5zM263 9q0 15 -8.5 26t-22.5 20t-32 16t-37 14q-20 -12 -31.5 -29.5t-11.5 -42.5q0 -34 20 -48.5t51 -14.5q30 0 51 14t21 45zM134 205q0 -12 7.5 -21t20.5 -16.5t29 -14t34 -12.5q34 25 34 61q0 29 -20 39.5t-43 10.5q-10 0 -21 -2
t-20 -7.5t-15 -14.5t-6 -23z" />
    <glyph glyph-name="uni2089" unicode="&#x2089;" horiz-adv-x="385" 
d="M257 90q-7 -18 -29.5 -30.5t-58.5 -12.5q-60 0 -90 35t-30 87q0 62 40 96t106 34q76 0 112.5 -44.5t36.5 -132.5q0 -56 -14.5 -98t-40.5 -69.5t-62.5 -41t-79.5 -13.5q-20 0 -44 2.5t-38 7.5q-3 6 -5.5 15t-4 19.5t-2 21t0.5 18.5q16 -8 46 -15.5t55 -7.5q46 0 74.5 30
t32.5 99h-5zM261 143q0 106 -66 106q-32 0 -48 -21t-16 -55q0 -71 64 -71q23 0 37.5 9t28.5 23v9z" />
    <glyph glyph-name="Euro" unicode="&#x20ac;" 
d="M19 353q0 11 2 26.5t5 26.5h67q12 67 40.5 120t68 89t89 55t104.5 19q51 0 92 -10t75 -28q0 -40 -3 -80.5t-9 -73.5q-16 0 -36.5 4t-34.5 12v91q-23 12 -46 17t-46 5q-75 0 -130 -55.5t-71 -164.5h261q1 -3 1.5 -9.5t1 -14.5t0.5 -16t-1 -13h-430zM194 239
q21 -94 74.5 -138t124.5 -44q19 0 41 3t44 8t42.5 11t37.5 13q2 -14 -2.5 -34t-9.5 -30q-17 -9 -39 -18t-47 -15.5t-50.5 -10.5t-49.5 -4q-51 0 -95.5 18.5t-79 52.5t-58.5 81.5t-34 106.5h-74q0 11 2 26.5t5 26.5h421q1 -3 1.5 -9.5t1 -14.5t0.5 -16t-1 -13h-255z" />
    <glyph glyph-name="afii61289" unicode="&#x2113;" horiz-adv-x="489" 
d="M118 480q0 52 14 90.5t37.5 64t53 38.5t59.5 13q25 0 47.5 -8.5t39.5 -26.5t27 -45.5t10 -64.5q0 -81 -54.5 -157.5t-148.5 -146.5v-73q0 -63 24 -90t60 -27q35 0 61.5 13.5t53.5 45.5q8 -5 20.5 -14.5t19.5 -17.5q-33 -52 -74.5 -71.5t-88.5 -19.5q-33 0 -62 9.5t-51 30
t-35 51.5t-13 74v37q-13 -8 -27.5 -16.5t-28.5 -16.5q-5 13 -8 33.5t-3 34.5q15 8 34 20t33 22v218zM203 321q63 55 92 107.5t29 104.5q0 51 -15.5 72.5t-36.5 21.5q-29 0 -49 -35t-20 -104v-167z" />
    <glyph glyph-name="afii61352" unicode="&#x2116;" horiz-adv-x="1066" 
d="M440 201q7 -12 15.5 -28.5t16 -33.5t13.5 -33t8 -27h7v383q-21 1 -45.5 3t-38.5 4q-2 10 -2.5 28t1.5 26h219v-28q0 -8 -1 -15.5t-2 -12.5q-14 -2 -31.5 -3t-31.5 -2v-458l-108 -13l-198 363q-4 7 -11 20t-14.5 27t-14.5 27.5t-10 21.5h-7v-385q17 -2 42 -6t39 -9
q2 -10 3.5 -24.5t-0.5 -25.5h-233q1 9 5 24.5t9 23.5q12 7 30 12.5t34 8.5v393q-17 1 -36.5 3t-33.5 4q-2 10 -2.5 28t1.5 26h198zM856 505q72 0 115.5 -40.5t43.5 -115.5q0 -80 -43 -124.5t-116 -44.5q-77 0 -119 43.5t-42 125.5q0 36 12 65t34 49.5t51 31t64 10.5z
M770 349q0 -54 23 -85.5t63 -31.5q41 0 62 31.5t21 85.5q0 45 -22.5 75.5t-60.5 30.5q-42 0 -64 -29t-22 -77zM996 136q1 -3 1.5 -10.5t1 -16.5t0.5 -17.5t-1 -14.5h-284q0 11 2 29.5t6 29.5h274z" />
    <glyph glyph-name="trademark" unicode="&#x2122;" horiz-adv-x="922" 
d="M393 409q1 8 3.5 18t5.5 17q8 2 21 4.5t21 3.5v198q-10 1 -22 2t-25 3q-2 7 -2.5 19t1.5 20h140l66 -174q6 -17 11.5 -35t7.5 -35h5q4 17 9 35t11 35l69 174h135q2 -7 1.5 -19.5t-2.5 -19.5q-11 -2 -23.5 -3t-23.5 -1v-200q29 -2 51 -7q3 -9 3 -23q0 -8 -1 -12h-162
q1 8 3.5 18.5t5.5 16.5q7 2 20.5 4.5t20.5 3.5v199h-5q-2 -18 -9 -40.5t-15 -44.5l-66 -162h-63l-65 163q-18 45 -24 84h-5v-201q11 -1 21 -2t20 -3q2 -6 3 -18t-1 -18h-141zM238 452q35 -2 61 -7q2 -6 3 -18t-1 -18h-187q1 7 3.5 17.5t6.5 17.5q9 3 24 5t26 3v202h-62
q-1 -12 -3.5 -30.5t-4.5 -27.5q-11 -5 -23 -6t-20 -1v105h293v-104q-8 0 -21 0.5t-22 2.5q-4 13 -6.5 30t-3.5 31h-63v-202z" />
    <glyph glyph-name="Omega" unicode="&#x2126;" horiz-adv-x="849" 
d="M493 64q28 20 54 48.5t45.5 65.5t31 83t11.5 101q0 52 -12 104t-37.5 92.5t-66 66t-97.5 25.5q-56 0 -95.5 -24t-65 -63.5t-37.5 -90t-12 -102.5q0 -53 11 -100t30 -86t45 -69.5t56 -50.5v-64h-309v153q14 0 34.5 -2t31.5 -4q4 -14 7 -36.5t5 -39.5h133v7q-28 16 -54 44
t-45.5 66t-31 85t-11.5 102q0 78 23 140.5t64 107t97.5 68t124.5 23.5q70 0 127.5 -24.5t98 -69t62.5 -106.5t22 -137q0 -57 -13 -105.5t-33.5 -86t-46.5 -65t-51 -42.5v-7h140q2 17 4.5 39t6.5 39q13 3 33 5t34 2v-156h-314v64z" />
    <glyph glyph-name="estimated" unicode="&#x212e;" horiz-adv-x="879" 
d="M203 325q-5 0 -5 -4v-191q0 -13 9 -23q45 -48 106.5 -76t133.5 -28q77 0 141 31.5t110 85.5h57q-54 -63 -134 -100t-175 -37q-81 0 -152.5 27.5t-125 75.5t-84 112t-30.5 136q0 73 30.5 138t84 113t125 76t152.5 28t152 -28t124 -76t83.5 -113t30.5 -138v-9h-633z
M693 543q0 15 -11 24q-45 46 -105 73t-130 27q-71 0 -132.5 -28t-106.5 -76q-10 -7 -10 -24v-187q0 -5 5 -5h486q4 0 4 5v191z" />
    <glyph glyph-name="uni2150" unicode="&#x2150;" horiz-adv-x="911" 
d="M87 284q1 11 5 24.5t8 22.5q14 3 32 5t34 4v271l-90 -9q1 12 3.5 26.5t8.5 26.5q20 5 62.5 11.5t94.5 9.5v-337q16 -1 38.5 -3.5t36.5 -4.5q2 -10 3.5 -23.5t0.5 -23.5h-237zM238 -25q-12 2 -29.5 10.5t-25.5 16.5l484 697q14 -1 31.5 -5.5t30.5 -9.5zM872 324
q-54 -85 -89 -164t-61 -158q-21 -3 -44 -3q-24 0 -46 3q29 77 73 157.5t94 153.5v5h-145q0 -8 -3.5 -22t-6.5 -22q-13 -3 -31 -5t-33 -2v118h292v-61z" />
    <glyph glyph-name="uni2151" unicode="&#x2151;" horiz-adv-x="911" 
d="M87 284q1 11 5 24.5t8 22.5q14 3 32 5t34 4v271l-90 -9q1 12 3.5 26.5t8.5 26.5q20 5 62.5 11.5t94.5 9.5v-337q16 -1 38.5 -3.5t36.5 -4.5q2 -10 3.5 -23.5t0.5 -23.5h-237zM238 -25q-12 2 -29.5 10.5t-25.5 16.5l484 697q14 -1 31.5 -5.5t30.5 -9.5zM783 183
q-7 -18 -29.5 -30.5t-58.5 -12.5q-60 0 -90 35t-30 87q0 62 40 96t106 34q76 0 112.5 -44.5t36.5 -132.5q0 -56 -14.5 -98t-40.5 -69.5t-62.5 -41t-79.5 -13.5q-20 0 -44 2.5t-38 7.5q-3 6 -5.5 15t-4 19.5t-2 21t0.5 18.5q16 -8 46 -15.5t55 -7.5q46 0 74.5 30t32.5 99h-5z
M787 236q0 106 -66 106q-32 0 -48 -21t-16 -55q0 -71 64 -71q23 0 37.5 9t28.5 23v9z" />
    <glyph glyph-name="uni2152" unicode="&#x2152;" horiz-adv-x="1256" 
d="M87 284q1 11 5 24.5t8 22.5q14 3 32 5t34 4v271l-90 -9q1 12 3.5 26.5t8.5 26.5q20 5 62.5 11.5t94.5 9.5v-337q16 -1 38.5 -3.5t36.5 -4.5q2 -10 3.5 -23.5t0.5 -23.5h-237zM238 -25q-12 2 -29.5 10.5t-25.5 16.5l484 697q14 -1 31.5 -5.5t30.5 -9.5zM613 0q1 11 5 24.5
t8 22.5q14 3 32 5t34 4v271l-90 -9q1 12 3.5 26.5t8.5 26.5q20 5 62.5 11.5t94.5 9.5v-337q16 -1 38.5 -3.5t36.5 -4.5q2 -10 3.5 -23.5t0.5 -23.5h-237zM1063 392q72 0 115 -49t43 -144q0 -101 -42.5 -153.5t-115.5 -52.5q-77 0 -117 51.5t-40 154.5q0 45 11.5 80.5
t32.5 60.5t49.5 38.5t63.5 13.5zM987 199q0 -72 19 -113t57 -41q39 0 58 40.5t19 113.5q0 62 -19.5 101.5t-57.5 39.5t-57 -37.5t-19 -103.5z" />
    <glyph glyph-name="onethird" unicode="&#x2153;" horiz-adv-x="911" 
d="M87 284q1 11 5 24.5t8 22.5q14 3 32 5t34 4v271l-90 -9q1 12 3.5 26.5t8.5 26.5q20 5 62.5 11.5t94.5 9.5v-337q16 -1 38.5 -3.5t36.5 -4.5q2 -10 3.5 -23.5t0.5 -23.5h-237zM238 -25q-12 2 -29.5 10.5t-25.5 16.5l484 697q14 -1 31.5 -5.5t30.5 -9.5zM629 169
q-2 12 -1 28.5t5 27.5q69 0 102.5 14.5t33.5 47.5q0 27 -17.5 36.5t-42.5 9.5q-23 0 -56.5 -5.5t-61.5 -17.5q-3 32 8 65q24 9 54.5 13t56.5 4q28 0 53 -5.5t44.5 -17t31 -29t11.5 -42.5q0 -38 -23 -63t-62 -30v-5q37 -3 65.5 -26.5t28.5 -69.5q0 -30 -13 -51t-36 -34.5
t-54 -19.5t-67 -6q-26 0 -53.5 3t-44.5 9q-5 11 -7.5 25t-2.5 28v6q0 4 1 8q10 -4 24 -7.5t30 -6.5t32 -5t30 -2q34 0 56 13t22 45q0 35 -33 47.5t-114 12.5z" />
    <glyph glyph-name="twothirds" unicode="&#x2154;" horiz-adv-x="911" 
d="M53 344q21 21 54 47.5t64.5 56t54.5 60.5t23 61q0 52 -60 52q-17 0 -35 -4.5t-32 -12.5v-51q-11 -4 -29 -6t-30 -2q-4 20 -5.5 47t-1.5 53q26 12 60 21.5t79 9.5q60 0 98.5 -21.5t38.5 -77.5q0 -24 -11 -48t-28 -46.5t-38.5 -43t-42.5 -38t-39 -32t-29 -23.5v-5
q19 0 44 1t52 1.5t54.5 2t53.5 3.5q0 -11 -1.5 -31.5t-3.5 -33.5h-290v60zM238 -25q-12 2 -29.5 10.5t-25.5 16.5l484 697q14 -1 31.5 -5.5t30.5 -9.5zM629 169q-2 12 -1 28.5t5 27.5q69 0 102.5 14.5t33.5 47.5q0 27 -17.5 36.5t-42.5 9.5q-23 0 -56.5 -5.5t-61.5 -17.5
q-3 32 8 65q24 9 54.5 13t56.5 4q28 0 53 -5.5t44.5 -17t31 -29t11.5 -42.5q0 -38 -23 -63t-62 -30v-5q37 -3 65.5 -26.5t28.5 -69.5q0 -30 -13 -51t-36 -34.5t-54 -19.5t-67 -6q-26 0 -53.5 3t-44.5 9q-5 11 -7.5 25t-2.5 28v6q0 4 1 8q10 -4 24 -7.5t30 -6.5t32 -5t30 -2
q34 0 56 13t22 45q0 35 -33 47.5t-114 12.5z" />
    <glyph glyph-name="uni2155" unicode="&#x2155;" horiz-adv-x="911" 
d="M87 284q1 11 5 24.5t8 22.5q14 3 32 5t34 4v271l-90 -9q1 12 3.5 26.5t8.5 26.5q20 5 62.5 11.5t94.5 9.5v-337q16 -1 38.5 -3.5t36.5 -4.5q2 -10 3.5 -23.5t0.5 -23.5h-237zM238 -25q-12 2 -29.5 10.5t-25.5 16.5l484 697q14 -1 31.5 -5.5t30.5 -9.5zM676 239
q13 2 25.5 3.5t26.5 1.5q57 0 94.5 -27.5t37.5 -89.5q0 -38 -14.5 -63.5t-37.5 -41t-53.5 -22.5t-61.5 -7q-26 0 -55 3.5t-45 8.5q-5 12 -8 28t-3 30q0 9 1 13q23 -9 52.5 -17t58.5 -8q37 0 60 17t23 55q0 39 -23.5 53t-57.5 14q-20 0 -47.5 -2.5t-47.5 -6.5l15 204h246
q0 -36 -6 -69h-174z" />
    <glyph glyph-name="uni2156" unicode="&#x2156;" horiz-adv-x="911" 
d="M53 344q21 21 54 47.5t64.5 56t54.5 60.5t23 61q0 52 -60 52q-17 0 -35 -4.5t-32 -12.5v-51q-11 -4 -29 -6t-30 -2q-4 20 -5.5 47t-1.5 53q26 12 60 21.5t79 9.5q60 0 98.5 -21.5t38.5 -77.5q0 -24 -11 -48t-28 -46.5t-38.5 -43t-42.5 -38t-39 -32t-29 -23.5v-5
q19 0 44 1t52 1.5t54.5 2t53.5 3.5q0 -11 -1.5 -31.5t-3.5 -33.5h-290v60zM238 -25q-12 2 -29.5 10.5t-25.5 16.5l484 697q14 -1 31.5 -5.5t30.5 -9.5zM676 239q13 2 25.5 3.5t26.5 1.5q57 0 94.5 -27.5t37.5 -89.5q0 -38 -14.5 -63.5t-37.5 -41t-53.5 -22.5t-61.5 -7
q-26 0 -55 3.5t-45 8.5q-5 12 -8 28t-3 30q0 9 1 13q23 -9 52.5 -17t58.5 -8q37 0 60 17t23 55q0 39 -23.5 53t-57.5 14q-20 0 -47.5 -2.5t-47.5 -6.5l15 204h246q0 -36 -6 -69h-174z" />
    <glyph glyph-name="uni2157" unicode="&#x2157;" horiz-adv-x="911" 
d="M103 453q-2 12 -1 28.5t5 27.5q69 0 102.5 14.5t33.5 47.5q0 27 -17.5 36.5t-42.5 9.5q-23 0 -56.5 -5.5t-61.5 -17.5q-3 32 8 65q24 9 54.5 13t56.5 4q28 0 53 -5.5t44.5 -17t31 -29t11.5 -42.5q0 -38 -23 -63t-62 -30v-5q37 -3 65.5 -26.5t28.5 -69.5q0 -30 -13 -51
t-36 -34.5t-54 -19.5t-67 -6q-26 0 -53.5 3t-44.5 9q-5 11 -7.5 25t-2.5 28v6q0 4 1 8q10 -4 24 -7.5t30 -6.5t32 -5t30 -2q34 0 56 13t22 45q0 35 -33 47.5t-114 12.5zM238 -25q-12 2 -29.5 10.5t-25.5 16.5l484 697q14 -1 31.5 -5.5t30.5 -9.5zM676 239q13 2 25.5 3.5
t26.5 1.5q57 0 94.5 -27.5t37.5 -89.5q0 -38 -14.5 -63.5t-37.5 -41t-53.5 -22.5t-61.5 -7q-26 0 -55 3.5t-45 8.5q-5 12 -8 28t-3 30q0 9 1 13q23 -9 52.5 -17t58.5 -8q37 0 60 17t23 55q0 39 -23.5 53t-57.5 14q-20 0 -47.5 -2.5t-47.5 -6.5l15 204h246q0 -36 -6 -69h-174
z" />
    <glyph glyph-name="uni2158" unicode="&#x2158;" horiz-adv-x="911" 
d="M296 285q-2 -1 -14.5 -1.5t-20.5 -0.5q-7 0 -21 0.5t-17 1.5v99h-187v48l164 237h96v-229h55q2 -8 3 -25.5t1 -30.5h-59v-99zM223 546q0 14 1 28.5t3 31.5h-4l-112 -163v-4q11 1 23 1h89v106zM238 -25q-12 2 -29.5 10.5t-25.5 16.5l484 697q14 -1 31.5 -5.5t30.5 -9.5z
M676 239q13 2 25.5 3.5t26.5 1.5q57 0 94.5 -27.5t37.5 -89.5q0 -38 -14.5 -63.5t-37.5 -41t-53.5 -22.5t-61.5 -7q-26 0 -55 3.5t-45 8.5q-5 12 -8 28t-3 30q0 9 1 13q23 -9 52.5 -17t58.5 -8q37 0 60 17t23 55q0 39 -23.5 53t-57.5 14q-20 0 -47.5 -2.5t-47.5 -6.5l15 204
h246q0 -36 -6 -69h-174z" />
    <glyph glyph-name="uni2159" unicode="&#x2159;" horiz-adv-x="911" 
d="M87 284q1 11 5 24.5t8 22.5q14 3 32 5t34 4v271l-90 -9q1 12 3.5 26.5t8.5 26.5q20 5 62.5 11.5t94.5 9.5v-337q16 -1 38.5 -3.5t36.5 -4.5q2 -10 3.5 -23.5t0.5 -23.5h-237zM238 -25q-12 2 -29.5 10.5t-25.5 16.5l484 697q14 -1 31.5 -5.5t30.5 -9.5zM660 207
q7 17 28.5 29.5t56.5 12.5q63 0 94 -33.5t31 -88.5q0 -64 -39.5 -99t-107.5 -35q-76 0 -113 44.5t-37 129.5q0 55 15 97.5t41.5 70.5t63 42.5t80.5 14.5q20 0 40.5 -2.5t34.5 -7.5q3 -6 5.5 -15t4 -19.5t2 -21t-0.5 -18.5q-16 9 -43 16t-51 7q-44 0 -74 -29t-36 -95h5z
M656 153q0 -110 67 -110q32 0 48.5 22t16.5 57q0 72 -65 72q-23 0 -38 -9t-29 -23v-9z" />
    <glyph glyph-name="uni215A" unicode="&#x215a;" horiz-adv-x="911" 
d="M150 523q13 2 25.5 3.5t26.5 1.5q57 0 94.5 -27.5t37.5 -89.5q0 -38 -14.5 -63.5t-37.5 -41t-53.5 -22.5t-61.5 -7q-26 0 -55 3.5t-45 8.5q-5 12 -8 28t-3 30q0 9 1 13q23 -9 52.5 -17t58.5 -8q37 0 60 17t23 55q0 39 -23.5 53t-57.5 14q-20 0 -47.5 -2.5t-47.5 -6.5
l15 204h246q0 -36 -6 -69h-174zM238 -25q-12 2 -29.5 10.5t-25.5 16.5l484 697q14 -1 31.5 -5.5t30.5 -9.5zM660 207q7 17 28.5 29.5t56.5 12.5q63 0 94 -33.5t31 -88.5q0 -64 -39.5 -99t-107.5 -35q-76 0 -113 44.5t-37 129.5q0 55 15 97.5t41.5 70.5t63 42.5t80.5 14.5
q20 0 40.5 -2.5t34.5 -7.5q3 -6 5.5 -15t4 -19.5t2 -21t-0.5 -18.5q-16 9 -43 16t-51 7q-44 0 -74 -29t-36 -95h5zM656 153q0 -110 67 -110q32 0 48.5 22t16.5 57q0 72 -65 72q-23 0 -38 -9t-29 -23v-9z" />
    <glyph glyph-name="oneeighth" unicode="&#x215b;" horiz-adv-x="911" 
d="M87 284q1 11 5 24.5t8 22.5q14 3 32 5t34 4v271l-90 -9q1 12 3.5 26.5t8.5 26.5q20 5 62.5 11.5t94.5 9.5v-337q16 -1 38.5 -3.5t36.5 -4.5q2 -10 3.5 -23.5t0.5 -23.5h-237zM238 -25q-12 2 -29.5 10.5t-25.5 16.5l484 697q14 -1 31.5 -5.5t30.5 -9.5zM861 300
q0 -31 -17 -54t-40 -35v-5q27 -13 46.5 -35.5t19.5 -60.5q0 -30 -11.5 -52t-32 -36.5t-48.5 -21.5t-62 -7q-27 0 -53.5 5t-47.5 17t-34 31.5t-13 49.5q0 37 20.5 63.5t52.5 37.5v5q-26 13 -42.5 33.5t-16.5 54.5q0 28 12 47.5t32 31.5t45.5 17.5t51.5 5.5t50.5 -5t44 -16
t31.5 -28.5t12 -42.5zM789 102q0 15 -8.5 26t-22.5 20t-32 16t-37 14q-20 -12 -31.5 -29.5t-11.5 -42.5q0 -34 20 -48.5t51 -14.5q30 0 51 14t21 45zM660 298q0 -12 7.5 -21t20.5 -16.5t29 -14t34 -12.5q34 25 34 61q0 29 -20 39.5t-43 10.5q-10 0 -21 -2t-20 -7.5
t-15 -14.5t-6 -23z" />
    <glyph glyph-name="threeeighths" unicode="&#x215c;" horiz-adv-x="911" 
d="M103 453q-2 12 -1 28.5t5 27.5q69 0 102.5 14.5t33.5 47.5q0 27 -17.5 36.5t-42.5 9.5q-23 0 -56.5 -5.5t-61.5 -17.5q-3 32 8 65q24 9 54.5 13t56.5 4q28 0 53 -5.5t44.5 -17t31 -29t11.5 -42.5q0 -38 -23 -63t-62 -30v-5q37 -3 65.5 -26.5t28.5 -69.5q0 -30 -13 -51
t-36 -34.5t-54 -19.5t-67 -6q-26 0 -53.5 3t-44.5 9q-5 11 -7.5 25t-2.5 28v6q0 4 1 8q10 -4 24 -7.5t30 -6.5t32 -5t30 -2q34 0 56 13t22 45q0 35 -33 47.5t-114 12.5zM238 -25q-12 2 -29.5 10.5t-25.5 16.5l484 697q14 -1 31.5 -5.5t30.5 -9.5zM861 300q0 -31 -17 -54
t-40 -35v-5q27 -13 46.5 -35.5t19.5 -60.5q0 -30 -11.5 -52t-32 -36.5t-48.5 -21.5t-62 -7q-27 0 -53.5 5t-47.5 17t-34 31.5t-13 49.5q0 37 20.5 63.5t52.5 37.5v5q-26 13 -42.5 33.5t-16.5 54.5q0 28 12 47.5t32 31.5t45.5 17.5t51.5 5.5t50.5 -5t44 -16t31.5 -28.5
t12 -42.5zM789 102q0 15 -8.5 26t-22.5 20t-32 16t-37 14q-20 -12 -31.5 -29.5t-11.5 -42.5q0 -34 20 -48.5t51 -14.5q30 0 51 14t21 45zM660 298q0 -12 7.5 -21t20.5 -16.5t29 -14t34 -12.5q34 25 34 61q0 29 -20 39.5t-43 10.5q-10 0 -21 -2t-20 -7.5t-15 -14.5t-6 -23z
" />
    <glyph glyph-name="fiveeighths" unicode="&#x215d;" horiz-adv-x="911" 
d="M150 523q13 2 25.5 3.5t26.5 1.5q57 0 94.5 -27.5t37.5 -89.5q0 -38 -14.5 -63.5t-37.5 -41t-53.5 -22.5t-61.5 -7q-26 0 -55 3.5t-45 8.5q-5 12 -8 28t-3 30q0 9 1 13q23 -9 52.5 -17t58.5 -8q37 0 60 17t23 55q0 39 -23.5 53t-57.5 14q-20 0 -47.5 -2.5t-47.5 -6.5
l15 204h246q0 -36 -6 -69h-174zM238 -25q-12 2 -29.5 10.5t-25.5 16.5l484 697q14 -1 31.5 -5.5t30.5 -9.5zM861 300q0 -31 -17 -54t-40 -35v-5q27 -13 46.5 -35.5t19.5 -60.5q0 -30 -11.5 -52t-32 -36.5t-48.5 -21.5t-62 -7q-27 0 -53.5 5t-47.5 17t-34 31.5t-13 49.5
q0 37 20.5 63.5t52.5 37.5v5q-26 13 -42.5 33.5t-16.5 54.5q0 28 12 47.5t32 31.5t45.5 17.5t51.5 5.5t50.5 -5t44 -16t31.5 -28.5t12 -42.5zM789 102q0 15 -8.5 26t-22.5 20t-32 16t-37 14q-20 -12 -31.5 -29.5t-11.5 -42.5q0 -34 20 -48.5t51 -14.5q30 0 51 14t21 45z
M660 298q0 -12 7.5 -21t20.5 -16.5t29 -14t34 -12.5q34 25 34 61q0 29 -20 39.5t-43 10.5q-10 0 -21 -2t-20 -7.5t-15 -14.5t-6 -23z" />
    <glyph glyph-name="seveneighths" unicode="&#x215e;" horiz-adv-x="851" 
d="M346 608q-54 -85 -89 -164t-61 -158q-21 -3 -44 -3q-24 0 -46 3q29 77 73 157.5t94 153.5v5h-145q0 -8 -3.5 -22t-6.5 -22q-13 -3 -31 -5t-33 -2v118h292v-61zM178 -25q-12 2 -29.5 10.5t-25.5 16.5l484 697q14 -1 31.5 -5.5t30.5 -9.5zM801 300q0 -31 -17 -54t-40 -35
v-5q27 -13 46.5 -35.5t19.5 -60.5q0 -30 -11.5 -52t-32 -36.5t-48.5 -21.5t-62 -7q-27 0 -53.5 5t-47.5 17t-34 31.5t-13 49.5q0 37 20.5 63.5t52.5 37.5v5q-26 13 -42.5 33.5t-16.5 54.5q0 28 12 47.5t32 31.5t45.5 17.5t51.5 5.5t50.5 -5t44 -16t31.5 -28.5t12 -42.5z
M729 102q0 15 -8.5 26t-22.5 20t-32 16t-37 14q-20 -12 -31.5 -29.5t-11.5 -42.5q0 -34 20 -48.5t51 -14.5q30 0 51 14t21 45zM600 298q0 -12 7.5 -21t20.5 -16.5t29 -14t34 -12.5q34 25 34 61q0 29 -20 39.5t-43 10.5q-10 0 -21 -2t-20 -7.5t-15 -14.5t-6 -23z" />
    <glyph glyph-name="uni215F" unicode="&#x215f;" horiz-adv-x="526" 
d="M87 284q1 11 5 24.5t8 22.5q14 3 32 5t34 4v271l-90 -9q1 12 3.5 26.5t8.5 26.5q20 5 62.5 11.5t94.5 9.5v-337q16 -1 38.5 -3.5t36.5 -4.5q2 -10 3.5 -23.5t0.5 -23.5h-237zM238 -25q-12 2 -29.5 10.5t-25.5 16.5l484 697q14 -1 31.5 -5.5t30.5 -9.5z" />
    <glyph glyph-name="uni2189" unicode="&#x2189;" horiz-adv-x="911" 
d="M192 676q72 0 115 -49t43 -144q0 -101 -42.5 -153.5t-115.5 -52.5q-77 0 -117 51.5t-40 154.5q0 45 11.5 80.5t32.5 60.5t49.5 38.5t63.5 13.5zM116 483q0 -72 19 -113t57 -41q39 0 58 40.5t19 113.5q0 62 -19.5 101.5t-57.5 39.5t-57 -37.5t-19 -103.5zM238 -25
q-12 2 -29.5 10.5t-25.5 16.5l484 697q14 -1 31.5 -5.5t30.5 -9.5zM629 169q-2 12 -1 28.5t5 27.5q69 0 102.5 14.5t33.5 47.5q0 27 -17.5 36.5t-42.5 9.5q-23 0 -56.5 -5.5t-61.5 -17.5q-3 32 8 65q24 9 54.5 13t56.5 4q28 0 53 -5.5t44.5 -17t31 -29t11.5 -42.5
q0 -38 -23 -63t-62 -30v-5q37 -3 65.5 -26.5t28.5 -69.5q0 -30 -13 -51t-36 -34.5t-54 -19.5t-67 -6q-26 0 -53.5 3t-44.5 9q-5 11 -7.5 25t-2.5 28v6q0 4 1 8q10 -4 24 -7.5t30 -6.5t32 -5t30 -2q34 0 56 13t22 45q0 35 -33 47.5t-114 12.5z" />
    <glyph glyph-name="partialdiff" unicode="&#x2202;" horiz-adv-x="559" 
d="M428 370q-3 86 -22.5 142.5t-49.5 90t-67.5 47t-76.5 13.5q-29 0 -61 -9t-58 -21q-2 20 2 44.5t12 42.5q24 10 54.5 15t61.5 5q54 0 106 -23t92.5 -70.5t65 -121t24.5 -175.5q0 -73 -15.5 -139t-45.5 -116.5t-74.5 -80t-102.5 -29.5q-48 0 -88.5 14.5t-69.5 40.5
t-45 63.5t-16 83.5q0 50 14.5 95.5t43 80t69 55t93.5 20.5q28 0 52.5 -6t43.5 -16t32.5 -22t18.5 -24h7zM424 309q-26 28 -58.5 45t-74.5 17q-38 0 -66 -15.5t-46.5 -41t-27.5 -59t-9 -70.5q0 -63 32.5 -101t90.5 -38q38 0 66.5 23t48 60t30.5 84t14 96z" />
    <glyph glyph-name="Delta" unicode="&#x2206;" horiz-adv-x="659" 
d="M380 704l247 -646v-58h-595v47l261 657h87zM521 62l-151 399q-7 18 -14 37.5t-13 39t-10.5 37t-5.5 30.5h-7q-2 -13 -6.5 -30.5t-10.5 -36t-13 -38t-13 -36.5l-152 -402h396z" />
    <glyph glyph-name="product" unicode="&#x220f;" horiz-adv-x="766" 
d="M478 -168q1 11 4.5 26.5t6.5 26.5q12 4 34 7.5t37 5.5v733h-354v-734q20 -2 42 -4t39 -6q1 -5 2 -12.5t1.5 -15.5t0.5 -15.5t-1 -11.5h-258q1 11 4.5 26.5t6.5 26.5q13 4 35.5 7.5t38.5 5.5v730q-17 1 -37 2.5t-35 3.5q-1 5 -2 13t-1 17v17q0 8 1 13h687q2 -9 1 -28.5
t-3 -29.5q-14 -3 -38 -5t-41 -3v-731q20 -2 43.5 -4t40.5 -6q2 -8 3 -18t1 -21t-1 -16h-258z" />
    <glyph glyph-name="summation" unicode="&#x2211;" horiz-adv-x="605" 
d="M23 -105l287 362l-269 378v59h527v-162q-14 0 -30.5 2t-29.5 6q-5 18 -9 45.5t-5 45.5h-346v-7q19 -17 42.5 -45.5t43.5 -57.5l173 -248l-200 -258q-23 -31 -46 -57t-44 -43v-6h373q2 22 5.5 49.5t7.5 45.5q11 3 31.5 5t34.5 2v-179h-546v63z" />
    <glyph glyph-name="minus" unicode="&#x2212;" 
d="M510 303q2 -9 3 -22t1 -27v-10q0 -4 -1 -10h-452q0 14 3 36t6 33h440z" />
    <glyph glyph-name="uni2219" unicode="&#x2219;" 
d="M288 404q59 0 95.5 -34t36.5 -96q0 -68 -36.5 -104t-95.5 -36q-66 0 -101 35.5t-35 104.5q0 59 38 94.5t98 35.5z" />
    <glyph glyph-name="radical" unicode="&#x221a;" horiz-adv-x="513" 
d="M133 417l92 -281q9 -29 15.5 -60t10.5 -58h7q5 26 12.5 59t16.5 62l199 638q13 0 36.5 -4t36.5 -8l-255 -814l-102 -12l-133 392l-64 -16q0 17 2.5 38t6.5 35z" />
    <glyph glyph-name="infinity" unicode="&#x221e;" horiz-adv-x="860" 
d="M420 212q-49 -53 -102.5 -87t-118.5 -34q-41 0 -72 13.5t-52 36.5t-32 54t-11 67q0 34 12 66.5t35 57.5t57 40t78 15q62 0 115 -28.5t115 -90.5q47 51 101 84.5t114 33.5q41 0 72.5 -13t53 -36t32.5 -54t11 -67q0 -35 -14 -67.5t-38.5 -57.5t-58 -40t-72.5 -15
q-65 0 -118.5 33.5t-106.5 88.5zM376 258q-54 57 -95 81.5t-76 24.5q-42 0 -70 -26.5t-28 -66.5q0 -46 31 -77.5t82 -31.5q44 0 85 28t71 68zM488 276q22 -23 42 -43t40.5 -34.5t41.5 -23t44 -8.5q45 0 71 28t26 66q0 51 -32 79.5t-80 28.5q-42 0 -80.5 -26t-72.5 -67z" />
    <glyph glyph-name="integral" unicode="&#x222b;" horiz-adv-x="342" 
d="M337 800q5 -13 8 -32.5t3 -36.5q-12 8 -31 12.5t-34 4.5q-26 0 -42 -12t-24.5 -34t-11.5 -52t-3 -66q0 -52 3.5 -121.5t7.5 -142.5t7.5 -143t3.5 -124q0 -46 -7.5 -87.5t-26 -73t-49 -50t-75.5 -18.5q-19 0 -37.5 3.5t-32.5 10.5q0 14 5.5 37t12.5 36q28 -17 55 -17
q45 0 58 41.5t13 113.5q0 55 -3.5 125t-8 143t-8 142t-3.5 122q0 48 9 89.5t28 72.5t49.5 49t72.5 18q17 0 34 -2.5t27 -7.5z" />
    <glyph glyph-name="approxequal" unicode="&#x2248;" 
d="M507 347q-22 -21 -53.5 -37.5t-73.5 -16.5q-36 0 -61 8t-46.5 18t-44 18t-53.5 8t-54.5 -11.5t-39.5 -23.5q-7 12 -12 29t-7 30q23 18 52 32.5t69 14.5q34 0 60 -8.5t48.5 -18t45 -18t50.5 -8.5q26 0 45 9t42 26q8 -8 19 -24.5t14 -26.5zM507 165q-22 -21 -53.5 -37.5
t-73.5 -16.5q-36 0 -61 8t-46.5 18t-44 18t-53.5 8t-54.5 -11.5t-39.5 -23.5q-7 12 -12 29t-7 30q23 18 52 32.5t69 14.5q34 0 60 -8.5t48.5 -18t45 -18t50.5 -8.5q26 0 45 9t42 26q8 -8 19 -24.5t14 -26.5z" />
    <glyph glyph-name="notequal" unicode="&#x2260;" 
d="M380 390h110q2 -8 3 -20.5t1 -25.5v-10q0 -4 -1 -9h-148l-69 -115h214q2 -8 3 -20.5t1 -25.5v-10q0 -4 -1 -9h-252l-57 -96q-9 3 -25 11.5t-23 15.5l41 69h-110q0 14 3 34.5t6 30.5h136l70 115h-215q0 14 3 34.5t6 30.5h241l51 84q13 0 29 -3t27 -8z" />
    <glyph glyph-name="lessequal" unicode="&#x2264;" 
d="M196 373v-7l268 -184q-2 -5 -8 -13.5t-13.5 -17t-14.5 -15.5t-11 -10l-310 218l3 54l298 211q13 -7 31 -22t29 -26zM481 64q2 -8 3 -20t1 -25v-10q0 -4 -1 -9h-406q0 14 3 33.5t5 30.5h395z" />
    <glyph glyph-name="greaterequal" unicode="&#x2265;" 
d="M155 123q-5 3 -12 10t-14 15.5t-13 17t-8 13.5l270 187v7l-277 184q4 5 12.5 11.5t17.5 13.5t18 13l15 10l299 -208l3 -53zM487 64q2 -8 3 -20t1 -25v-10q0 -4 -1 -9h-406q0 14 3 33.5t5 30.5h395z" />
    <glyph glyph-name="dotmath" unicode="&#x22c5;" 
d="M286 338q31 0 50 -18t19 -50q0 -35 -19 -54t-50 -19q-71 0 -71 73q0 31 19.5 49.5t51.5 18.5z" />
    <glyph glyph-name="H18543" unicode="&#x25aa;" 
d="M48 475h474v-475h-474v475z" />
    <glyph glyph-name="H18551" unicode="&#x25ab;" 
d="M48 475h474v-475h-474v475zM129 66h312v343h-312v-343z" />
    <glyph glyph-name="uni25B8" unicode="&#x25b8;" 
d="M76 -32q-3 51 -5 124t-2 151t2 148.5t5 115.5q31 -14 72 -34t86.5 -43.5t92.5 -49.5t91.5 -50.5t82.5 -47.5t65 -41q-27 -18 -65.5 -41.5t-83 -49.5t-91.5 -52t-92.5 -50.5t-86 -45t-71.5 -34.5z" />
    <glyph glyph-name="uni25B9" unicode="&#x25b9;" 
d="M76 -32q-3 51 -5 124t-2 151t2 148.5t5 115.5q31 -14 72 -34t86.5 -43.5t92.5 -49.5t91.5 -50.5t82.5 -47.5t65 -41q-27 -18 -65.5 -41.5t-83 -49.5t-91.5 -52t-92.5 -50.5t-86 -45t-71.5 -34.5zM152 92q24 11 62 30.5t78 41t77 42.5t58 35q-21 13 -57.5 33t-76.5 41
t-78 39.5t-62 29.5q-2 -23 -3.5 -63.5t-1.5 -78.5q0 -41 1 -82.5t3 -67.5z" />
    <glyph glyph-name="uni25C2" unicode="&#x25c2;" 
d="M499 -32q-31 14 -71.5 35t-86 45t-92.5 50t-91.5 52t-83 49t-65.5 42q27 18 65 41t82.5 47.5t91.5 50.5t92.5 49.5t86.5 43.5t72 34q3 -45 5 -115.5t2 -148.5t-2 -151t-5 -124z" />
    <glyph glyph-name="uni25C3" unicode="&#x25c3;" 
d="M499 -32q-31 14 -71.5 35t-86 45t-92.5 50t-91.5 52t-83 49t-65.5 42q27 18 65 41t82.5 47.5t91.5 50.5t92.5 49.5t86.5 43.5t72 34q3 -45 5 -115.5t2 -148.5t-2 -151t-5 -124zM423 92q2 26 3 67.5t1 82.5q0 38 -1.5 78.5t-3.5 63.5q-24 -11 -62 -29.5t-78 -39.5
t-76.5 -41t-57.5 -33q21 -14 58 -35t77 -42.5t78 -41t62 -30.5z" />
    <glyph glyph-name="lozenge" unicode="&#x25ca;" horiz-adv-x="544" 
d="M221 701l99 11l190 -361l-188 -364l-101 -9l-187 360zM242 133q11 -20 19.5 -43t13.5 -40h7q5 17 15 42t21 46l98 197l-110 211q-11 20 -21.5 45.5t-16.5 44.5h-7q-6 -20 -16 -44.5t-22 -47.5l-96 -189z" />
    <glyph glyph-name="circle" unicode="&#x25cb;" 
d="M293 492q52 0 97 -17t78 -48.5t52 -76t19 -99.5q0 -64 -19 -114t-52 -84t-78 -52t-97 -18q-125 0 -193 67t-68 201q0 52 19.5 96t54.5 76.5t83 50.5t104 18zM292 423q-37 0 -69 -12.5t-55 -35.5t-36.5 -54.5t-13.5 -69.5q0 -99 45.5 -149t128.5 -50q34 0 64 13.5t51.5 39
t34 62.5t12.5 84q0 40 -12.5 72t-34 54t-51.5 34t-64 12z" />
    <glyph glyph-name="H18533" unicode="&#x25cf;" 
d="M293 492q52 0 97 -17t78 -48.5t52 -76t19 -99.5q0 -64 -19 -114t-52 -84t-78 -52t-97 -18q-125 0 -193 67t-68 201q0 52 19.5 96t54.5 76.5t83 50.5t104 18z" />
    <glyph glyph-name="uniFB06" unicode="&#xfb06;" horiz-adv-x="780" 
d="M532 604q-20 11 -40 16.5t-43 5.5q-25 0 -41.5 -6.5t-26.5 -17t-14 -24t-4 -27.5q0 -19 1.5 -33t3.5 -26.5t3.5 -25.5t1.5 -31q0 -26 -3 -47t-7 -34q-17 0 -35.5 3.5t-31.5 11.5v59q-11 5 -26.5 8.5t-32.5 3.5q-39 0 -60.5 -16.5t-21.5 -44.5t17.5 -45.5t43 -31t56 -26.5
t56 -31.5t43 -46.5t17.5 -71q0 -39 -15 -66.5t-40 -44.5t-57.5 -25t-67.5 -8q-88 0 -153 38q-2 8 -3.5 22t-1.5 26q0 19 3 38t7 33q17 0 36.5 -2t35.5 -7v-69q17 -11 39 -17t45 -6q38 0 61 20.5t23 54.5q0 30 -17.5 48t-43.5 31.5t-56.5 25.5t-56.5 30t-43.5 46t-17.5 72
q0 27 12 50t34 39.5t52.5 26t67.5 9.5q16 0 33 -1.5t28 -3.5q-2 18 -4 31t-2 33q0 62 38.5 100t124.5 38q38 0 78 -11t80 -38v-165h145q1 -8 2.5 -27t0.5 -31h-148v-275q0 -49 11.5 -71t53.5 -22q21 0 45.5 3.5t47.5 9.5q1 -3 1 -7v-6q0 -11 -3 -21.5t-7 -17.5
q-30 -13 -61.5 -20t-61.5 -7q-58 0 -87 33.5t-29 111.5v56q0 34 1 73t1.5 80.5t2.5 79.5h-69q0 11 3.5 26.5t8.5 25.5q12 5 28 10t30 8z" />
    <glyph glyph-name="uniFEFF" unicode="&#xfeff;" horiz-adv-x="0" 
 />
    <glyph glyph-name="seven.osf" horiz-adv-x="496" 
d="M475 457q-87 -137 -156 -277t-103 -271q-20 -5 -45 -5q-14 0 -29.5 1.5t-25.5 3.5q19 61 47.5 128.5t63.5 136t74 134.5t79 125v7h-264q-1 -8 -3.5 -19.5t-5.5 -23.5t-6.5 -23t-6.5 -18q-12 0 -32.5 4t-30.5 8l13 155h417z" />
    <glyph glyph-name="eight.osf" horiz-adv-x="539" 
d="M196 333q-19 6 -39 18t-37 29.5t-28 40.5t-11 52q0 43 17.5 74.5t45 51t63 29t71.5 9.5q37 0 72 -8t62 -26t43.5 -46.5t16.5 -69.5q0 -27 -9.5 -52t-25 -46t-36.5 -36t-44 -22v-5q22 -8 45 -21.5t41.5 -33t30 -44.5t11.5 -56q0 -48 -18 -84t-48 -59.5t-69 -35.5t-82 -12
q-36 0 -74 8t-69 27.5t-51 51.5t-20 81q0 32 11 61t30.5 52.5t45 40.5t55.5 26v5zM247 303q-48 -19 -76.5 -53t-28.5 -85q0 -36 10.5 -60.5t28.5 -39.5t42 -21.5t51 -6.5q22 0 44 6t39.5 20.5t28 38t10.5 58.5q0 28 -12.5 49t-33.5 37.5t-48 30t-55 26.5zM303 357
q44 20 64 54.5t20 69.5q0 30 -10.5 50t-27.5 32t-37.5 17t-39.5 5q-14 0 -32.5 -4t-35 -15.5t-28 -31t-11.5 -49.5q0 -23 11.5 -41.5t30.5 -33.5t44 -28t52 -25z" />
    <glyph glyph-name="nine.osf" horiz-adv-x="557" 
d="M405 214q-15 -30 -55 -52t-93 -22q-48 0 -85 15t-62 41.5t-37.5 61.5t-12.5 75q0 47 15.5 86t43.5 66.5t67 42.5t85 15q114 0 173 -75.5t59 -218.5q0 -83 -23 -150.5t-63.5 -114.5t-95 -72.5t-117.5 -25.5q-16 0 -33.5 2t-34.5 5.5t-31.5 8t-24.5 8.5q-8 13 -12 35t-2 35
q26 -10 62 -15.5t68 -5.5q42 0 79 17t66 49.5t47.5 80t23.5 108.5h-7zM410 271q0 107 -32 160.5t-107 53.5q-58 0 -89.5 -40t-31.5 -106q0 -60 32.5 -98t98.5 -38q40 0 73.5 19.5t55.5 48.5z" />
    <glyph glyph-name="one.osf" horiz-adv-x="408" 
d="M177 459l-144 -18q1 15 5 31.5t11 30.5q15 5 38.5 11t52.5 12t61.5 10.5t65.5 6.5v-473q25 -2 57.5 -6.5t58.5 -10.5q2 -8 3.5 -19.5t1.5 -19.5v-6q0 -3 -1 -8h-332q2 13 7.5 26t10.5 24q20 7 49 13.5t55 11.5v384z" />
    <glyph glyph-name="zero.osf" horiz-adv-x="631" 
d="M316 543q59 0 107 -17.5t81.5 -52t52 -85.5t18.5 -118q0 -142 -69.5 -216t-189.5 -74q-126 0 -193 72t-67 218q0 63 19 114t53.5 86t82.5 54t105 19zM151 270q0 -106 43.5 -166.5t121.5 -60.5q82 0 123 59.5t41 167.5q0 46 -11.5 85t-32.5 67t-51.5 43.5t-68.5 15.5
q-81 0 -123 -56.5t-42 -154.5z" />
    <glyph glyph-name="two.osf" horiz-adv-x="496" 
d="M158 73q73 1 152 3.5t158 8.5q1 -5 1 -9v-8q0 -17 -2 -36t-4 -32h-399l-13 72q21 19 52 43t64.5 51t66.5 56.5t59 59.5t42.5 60.5t16.5 59.5q0 39 -28.5 57.5t-74.5 18.5q-31 0 -60 -8t-50 -18v-83q-12 -7 -31.5 -11t-36.5 -4q-6 17 -9.5 45.5t-3.5 48.5q0 10 0.5 23
t1.5 22q35 19 84.5 34.5t110.5 15.5q41 0 76.5 -7t61.5 -22t41 -39.5t15 -58.5q0 -37 -17 -72t-43.5 -67.5t-59.5 -62t-65.5 -54.5t-60.5 -45t-45 -35v-7z" />
    <glyph glyph-name="three.osf" horiz-adv-x="493" 
d="M131 189q-4 7 -5.5 18t-1.5 22q0 8 0.5 13.5t1.5 10.5q36 1 72.5 10t65.5 25.5t47.5 41t18.5 57.5q0 25 -9.5 42.5t-24.5 28.5t-34 15.5t-39 4.5q-23 0 -50.5 -5t-46.5 -11v-70q-12 -7 -33 -11t-38 -4q-5 16 -8 42t-3 44q0 10 0.5 23t1.5 22q19 8 43 14.5t49 11t49.5 7
t46.5 2.5q37 0 72 -8t62 -25.5t43 -44.5t16 -65q0 -30 -11.5 -56.5t-30 -48.5t-43.5 -38t-52 -25v-5q27 -3 54.5 -13t49.5 -27t36 -41t14 -57q0 -49 -23.5 -87t-61 -63.5t-85.5 -39t-97 -13.5q-35 0 -73.5 5.5t-62.5 12.5q-6 11 -10.5 28t-4.5 31q0 7 1 12q29 -9 69.5 -14
t73.5 -5q32 0 63.5 6.5t56 20.5t40 37.5t15.5 58.5q0 52 -51 81t-163 29z" />
    <glyph glyph-name="four.osf" horiz-adv-x="525" 
d="M406 -92q-5 -2 -18.5 -2.5t-24.5 -0.5t-24.5 0.5t-18.5 2.5v174h-286l-14 52q63 102 134.5 205t150.5 201l101 -16v-375h89q5 -20 5 -43q0 -6 -0.5 -12.5t-1.5 -11.5h-92v-174zM320 376q0 17 1.5 39t3.5 40h-7q-28 -34 -56.5 -72t-55.5 -77t-52 -78t-46 -74v-7
q11 1 29.5 1.5t33.5 0.5h149v227z" />
    <glyph glyph-name="five.osf" horiz-adv-x="489" 
d="M154 266q18 4 46 7t50 3q42 0 78 -10.5t62.5 -30.5t41.5 -51t15 -71q0 -59 -22.5 -102t-58.5 -70.5t-82.5 -41t-94.5 -13.5q-42 0 -76 5.5t-57 11.5q-6 9 -10 25t-4 29v5q0 3 1 6q29 -6 67 -10t77 -4q32 0 62 10t53 29t36.5 47t13.5 65q0 57 -39 83t-110 26
q-29 0 -62.5 -3.5t-63.5 -9.5l24 322h348q0 -8 -1 -19.5t-2.5 -24t-3.5 -24.5t-4 -21q-67 4 -134.5 5.5t-135.5 3.5z" />
    <glyph glyph-name="six.osf" horiz-adv-x="560" 
d="M163 309q16 28 53.5 51.5t93.5 23.5q47 0 83.5 -15t62 -40.5t39 -60.5t13.5 -74q0 -48 -15.5 -87.5t-44 -67.5t-67.5 -43.5t-86 -15.5q-114 0 -172.5 74.5t-58.5 207.5q0 86 24 155.5t65 118t95.5 75t114.5 26.5q27 0 57 -5.5t55 -16.5q6 -12 9.5 -35t1.5 -37
q-11 6 -25.5 10.5t-30.5 7.5t-32 5t-29 2q-41 0 -77 -17.5t-64 -51t-47 -81.5t-25 -109h7zM157 241q0 -94 34.5 -147.5t106.5 -53.5q26 0 48 12t37.5 32t24.5 47.5t9 57.5q0 60 -34.5 96t-94.5 36q-41 0 -73 -18t-58 -48v-14z" />
    <glyph glyph-name="gravecomb.case" horiz-adv-x="1" 
d="M-264 843q5 9 14 19t19.5 19t21 16.5t18.5 10.5l192 -98q0 -6 -2.5 -14.5t-6 -17.5t-7.5 -17.5t-8 -13.5z" />
    <glyph glyph-name="acutecomb.case" horiz-adv-x="1" 
d="M-242 745q-2 6 -4 15t-3.5 18.5t-2.5 19t-1 16.5l209 98q14 -12 26 -33t19 -41z" />
    <glyph glyph-name="uni0302.case" horiz-adv-x="1" 
d="M-125 891l126 -102q-5 -12 -16.5 -25t-24.5 -20l-142 75l-150 -80q-8 8 -13.5 27t-7.5 30l120 95h108z" />
    <glyph glyph-name="tildecomb.case" horiz-adv-x="1" 
d="M-49 876q30 0 50 -8q-1 -20 -9 -40t-23 -36.5t-36.5 -26.5t-50.5 -10q-20 0 -38.5 7t-36 15t-35 15t-35.5 7q-23 0 -39.5 -12.5t-21.5 -30.5q-11 1 -25 9.5t-20 18.5q9 37 38 64.5t82 27.5q25 0 43.5 -6.5t34.5 -15t31.5 -15t35.5 -6.5q22 0 36.5 13t18.5 30z" />
    <glyph glyph-name="uni0308.case" horiz-adv-x="1" 
d="M-301 874q28 0 44.5 -14t16.5 -40q0 -28 -16.5 -43t-44.5 -15q-62 0 -62 58q0 25 17 39.5t45 14.5zM-60 874q28 0 44.5 -14t16.5 -40q0 -28 -16.5 -43t-44.5 -15q-62 0 -62 58q0 25 17 39.5t45 14.5z" />
    <glyph glyph-name="uni030C.case" horiz-adv-x="1" 
d="M-234 748l-127 110q10 11 29 20t36 12l129 -71l118 68q13 -4 28 -14t22 -18l-123 -107h-112z" />
    </font>
</defs>
</svg>
